<svg id="Layer_1" data-name="Layer 1" xmlns="http://www.w3.org/2000/svg" xmlns:xlink="http://www.w3.org/1999/xlink" viewBox="0 0 1024 1024"><defs><style>.cls-1{fill:#389da4;}.cls-2{fill:#29656d;}.cls-3{fill:#166f58;}.cls-4{fill:#ebc839;}.cls-5{fill:#e5a821;}.cls-6{fill:#c04a58;}.cls-7{fill:url(#linear-gradient);}.cls-8{fill:#f18f65;}.cls-9{fill:#6d3366;}.cls-10{fill:#f8b170;}.cls-11{fill:#a2788f;}.cls-12{fill:#4d435a;}.cls-13{fill:#1b2838;}.cls-14{fill:url(#linear-gradient-2);}.cls-15{fill:#e05e78;}.cls-16{fill:#993c5e;}.cls-17{fill:#f05c4e;}.cls-18{fill:#8991a3;}.cls-19{fill:#31cb8e;}.cls-20{fill:#391a12;}.cls-21{fill:#b18a0b;}.cls-22{fill:#f9f4f7;}.cls-23{fill:#0b0808;}.cls-24{fill:#e8ab7f;}.cls-25{fill:#93a41f;}.cls-26{fill:#a32e3b;}.cls-27{fill:#707a12;}.cls-28{fill:#0f5d52;}.cls-29{fill:#7a5942;}.cls-30{fill:#66272e;}.cls-31{fill:#a0b5c2;}.cls-32{fill:#e9f4ee;}.cls-33{fill:#333f51;}.cls-34{fill:#1e2026;}.cls-35{fill:#e9abb0;}.cls-36{fill:#0e3b51;}.cls-37{fill:#532a1b;}.cls-38{fill:#c7885e;}.cls-39{fill:#a96b43;}.cls-40{fill:#d0ced9;}.cls-41{fill:#b64f96;}.cls-42{fill:url(#linear-gradient-3);}.cls-43{fill:#4f6e97;}</style><linearGradient id="linear-gradient" x1="618.74" y1="1645.16" x2="634.26" y2="1639.67" gradientTransform="matrix(1, 0, 0, -1, 206, 2164)" gradientUnits="userSpaceOnUse"><stop offset="0" stop-color="#5e8815"/><stop offset="1" stop-color="#4b7425"/></linearGradient><linearGradient id="linear-gradient-2" x1="609.48" y1="1617.91" x2="630.33" y2="1620.22" gradientTransform="matrix(1, 0, 0, -1, 206, 2164)" gradientUnits="userSpaceOnUse"><stop offset="0" stop-color="#608517"/><stop offset="1" stop-color="#4a6a25"/></linearGradient><linearGradient id="linear-gradient-3" x1="378.59" y1="1564.07" x2="374.6" y2="1517.96" gradientTransform="matrix(1, 0, 0, -1, 206, 2164)" gradientUnits="userSpaceOnUse"><stop offset="0" stop-color="#666d78"/><stop offset="1" stop-color="#989ba7"/></linearGradient></defs><path class="cls-1" d="M548.94,453.88c2.53.23,5.42.14,7.31,2.09,3.64,3.75,3,13.63,3,18.48C555.2,468.05,552.1,460.78,548.94,453.88Z"/><path class="cls-2" d="M165.64,669.91l.84-4.49c4.29,0,28.55-.6,30.23.64L196.2,670Z"/><path class="cls-3" d="M255.56,581c3.84-.3,10.48-1.5,13.77.54,1,3.65.68,8.72.19,12.49L255,594l0-12.46Z"/><path class="cls-4" d="M289,621.94l-.28-5.54c0-1.57.09-2.84,1.39-3.95,2.37-2,5.91-1.3,8.81-1.28l.47.09a44.19,44.19,0,0,0,8.13.4c0,3,.66,7.53-.16,10.34Z"/><path class="cls-5" d="M298.88,612h25.78a4.09,4.09,0,0,1,2.48,2.64,30,30,0,0,1,.69,7.69l-.2.67-20,0-.31-.16c.82-2.82.2-7.35.17-10.37a44.41,44.41,0,0,1-8.15-.4Z"/><path class="cls-6" d="M254.18,542.5c3.22,0,11.17-1,13.55.94,2.86,2.27,2.37,7.53,2.21,10.76a4.64,4.64,0,0,1-.72,2.8l-14.86,0-.36-.11Z"/><path class="cls-7" d="M837.26,536.55l1.13-.82c-.85-1.5-2.55-2.38-3.77-3.61a24.8,24.8,0,0,1-4.34-6.15c-2.24-4.33-4.62-10.92-3.07-15.72a6.87,6.87,0,0,1,5-2.58c3.92-.54,7.06,2.7,10,4.89-3.3,6.06-3.45,15.21-4.05,22l5.41,5.49A48.1,48.1,0,0,0,837.26,536.55Z"/><path class="cls-8" d="M254.78,557,270,557c-.2,1.71-.52,3,.4,4.55,1.24,3.81.45,9.52.42,13.57l-1,.91L255,576l-.11-14.43A11.71,11.71,0,0,1,254.78,557Z"/><path class="cls-9" d="M255.28,557l13.45,0c-.18,1.51-.45,2.65.36,4H255.38A10.22,10.22,0,0,1,255.28,557Z"/><path class="cls-8" d="M289.09,622h18.56l20,0a58.76,58.76,0,0,1-.4,7.74c-3,.57-6.39.27-9.5.28h-16.4c-3.55,0-8.82.7-12-.5Z"/><path class="cls-10" d="M288.69,622l18.95.07.32.16-.1.64a42.46,42.46,0,0,0,0,7.13L289,629.87Z"/><path class="cls-11" d="M254.41,594,269,594a12.14,12.14,0,0,0,.67,5.57c.34,4.3.59,9.26-.47,13.45l-.25,5-14.91,0,0-4.41,0-.42c0-3.93.82-10-.53-13.6l.59-.14A33.54,33.54,0,0,1,254.41,594Z"/><path class="cls-12" d="M254,613l15.83-.18-.25,5.18-15.61,0,0-4.61Z"/><path class="cls-12" d="M254.07,594l15.59,0a12.91,12.91,0,0,0,.71,6l-16.65-.13A36.08,36.08,0,0,1,254.07,594Z"/><path class="cls-13" d="M707,132.74a84.61,84.61,0,0,0,11,.38l-.17-26.24c-1.17,1.41-2.1,3.17-3.88,3.83-2-.16-3.07-.26-4.44-1.88a8.88,8.88,0,0,1-1.77-6.59,5.18,5.18,0,0,1,2.57-3.52c1.44-.94,3.58-.69,5.2-.56,3.37,1.93,5.56,5.21,7.49,8.48l.12,24.42c0,.84-.2,1,.42,1.62s.4.42,1.36.8a18.07,18.07,0,0,1,.61,6.2c-1,1-2.69.91-4,1a130.71,130.71,0,0,1-14.67.65Z"/><path class="cls-14" d="M835.64,561a23.11,23.11,0,0,0-2.7-2.12,56,56,0,0,1-16.69-18.23c-1.15-2.11-2.5-4.46-2.83-6.87-.32-2.23-.14-2.69,1.12-4.41,5.86-3.48,12.91,1.95,17.65,5,1.28.81,2.94,2.16,4.48,2.28l.59,0c-.85,2-.61,4.33-.61,6.47,0,5.67.34,11.31,2.46,16.64l.57,1.36Z"/><path class="cls-8" d="M701.2,275.07c.06-3.09-.57-9.08,2-11.15,2.27-1.84,30.42-1.67,34.39-1a5.37,5.37,0,0,1,3.59,2.39c1.68,2.36,1,7.48,1,10.41L741,276.8c-5.8.75-12,.39-17.86.43-6.86,0-14.15.52-20.94-.36Z"/><path class="cls-15" d="M835.64,561h4l.2,1h42.48c4.2-.84,9.21-1.45,13.25-.25,1.52,1.62,1.43,1.76,1.54,4-.67,1.17-.68,1.6-2.06,2a16.31,16.31,0,0,1-4.19.16c.23,3,.1,9.16.1,9.16v-7H856.35c-4.39-.89-9.12-.55-13.55-.55l-.47-.57-.89-.82a16.43,16.43,0,0,0-3.42.05,82.25,82.25,0,0,1-8.31-.14l-.56-.06-1-.17a51.43,51.43,0,0,1-7.86.25c0-2.13.21-8,.21-8Z"/><path class="cls-16" d="M843,568l48.13.36a36.9,36.9,0,0,1-.12,8.85V570l-33.29,0c-4.25-.45-8.83-.12-13.11-.13l-.46-.55s-.84-.79-.86-.79a15.39,15.39,0,0,0-3.31.05c-2.69,0-5.36.09-8-.14l-.55-.05C835.11,567.88,839.21,568.1,843,568Z"/><path class="cls-17" d="M211.05,557c-.05-3.86-.86-9.76,1-13a9.54,9.54,0,0,1,1.64-1c1.63-.55,6.17,0,8,0L254,543l-.17,14Z"/><path class="cls-4" d="M107.72,395.27A16.85,16.85,0,0,1,99,388.88a15.48,15.48,0,0,1-2.58-12.22,17.26,17.26,0,0,1,7.57-10.15c4.44-2.55,8.7-1.93,13.39-.59a25,25,0,0,1,8.51,7.29,15.51,15.51,0,0,1,.32,12.64,16,16,0,0,1-6.28,7.5A24.23,24.23,0,0,1,107.72,395.27Z"/><path class="cls-4" d="M177.74,609.9c7.06-.1,16-1.54,21.61,3.68a38.07,38.07,0,0,1,8.83,12.89c-3.74-.64-8-.42-11.76-.47l-23.17,0c-15.78,0-32-.88-47.73.29,2-4.45,4.13-8.73,7.6-12.25a16.54,16.54,0,0,1,6.17-4.28c2.91-1,6.71-.7,9.76-.71l17.34,1Z"/><path class="cls-6" d="M828.05,567.66l1,.17.56,0a82.5,82.5,0,0,0,8.32.14,16.43,16.43,0,0,1,3.42,0s.85.79.88.83l.48.56c4.43,0,9.16-.33,13.55.13l-14.2.3,10,40.94c1.58,6,2.71,12.49,4.84,18.27H845.76c-5.63,0-14.46,1.61-17.33-4.64a7,7,0,0,1-.57-2.25c-.48-5.05.11-10.75.14-15.84l.21-36.84Z"/><path class="cls-9" d="M828.13,567.74l1,.17.56.06a82.25,82.25,0,0,0,8.31.14,16.43,16.43,0,0,1,3.42-.05l.89.82.47.57c-4.7.73-9.76.26-14.51.06Z"/><path class="cls-18" d="M117.33,365.92l68.1-79.28,16.78-19.72c4.59-5.49,9-11.47,14.56-16,1.37,1.44,3.57,3.46,3.6,5.61,0,1.86-4.43,7.25-5.68,9l-18.51,25.53-37.27,44.36c-10.81,12.76-21.07,26.11-33.07,37.77A25,25,0,0,0,117.33,365.92Z"/><path class="cls-13" d="M777,322V285s5.84,1.27,7.62,3.67a6.74,6.74,0,0,1,1.06,3.63c.45,6.31-.68,19.23-.68,19.23l1,36.74v15.12c-.13,2.27.19,5.22-.36,7.41a7.07,7.07,0,0,1-3.06,3.45c-3.83,2-51.51.53-58.87.8H699c-2.73-.11-7.41.43-10-.46-3.64-1.28-7-6.71-8.44-10.11l-.37-.43h88.16c1-.49,3.17-.23,4-.55a12.66,12.66,0,0,0,2.58-2.2,6.3,6.3,0,0,0,1.67-3.73,40.3,40.3,0,0,0-.56-11.88Z"/><path class="cls-4" d="M211,557l42.53,0,.36.11a11.34,11.34,0,0,0,.11,4.42V576h15.27l-.68-.12c-3.45,1.18-9.9.29-13.68.27l.26,4.82-.17.54V594a14.9,14.9,0,0,0-.72,5.47l-.59.56h-44.2l.51-6V581.47a33.43,33.43,0,0,1-.13-5.93A37.89,37.89,0,0,1,211,561.48Z"/><path class="cls-16" d="M210,557h44.21l.36.06a14.33,14.33,0,0,0,.11,4.94H210Z"/><path class="cls-12" d="M209.87,575l44.91,1,14.59,0-.69.25c-3.5,1.21-10,.31-13.87.29l.27,4.88-.6.54H210Z"/><path class="cls-19" d="M209.92,582,255,582l0,12.4a31.94,31.94,0,0,0-.34,5.44l-.59.13h-44.7l.59-5.53Z"/><path class="cls-9" d="M210.07,594l44.54-.06a39.11,39.11,0,0,0-.33,5.92l-.59.14h-44.2Z"/><path class="cls-13" d="M776.79,146.91c3.12.2,5.8.29,8,3a5.27,5.27,0,0,1,1.1,3.2c.37,3.71.09,7.78.09,11.54l0,21.59c0,14.83.72,30.21-.18,45-.16,2.68-.41,4.22-2.26,6.18a8.17,8.17,0,0,1-5.36,2.34c-4.46.56-9.21.21-13.71.21h-70.4c-6.4,0-13,.33-19.36,0a5.64,5.64,0,0,1-3.86-2.17c-2.19-2.51-2.67-6.19-3.18-9.81H767.83c2.55.42,4.34,0,6.11-2a8.39,8.39,0,0,0,2.08-3.34,31.25,31.25,0,0,0,0-7.67l1-14.47Z"/><path class="cls-15" d="M856.35,569,891,569v7.51l-1.49,28.43c-.18,5.39.58,12.05-.68,17.26a9.48,9.48,0,0,1-3.2,5,10.37,10.37,0,0,1-2.51,1.65c-2.33.52-5.72.18-8.15.18l-18-.08c-2.15-5.82-3.29-12.38-4.88-18.4L842.05,569.3Z"/><path class="cls-20" d="M601.39,288.17c8.22,5.25,15.51,15.31,17.45,24.87a25.51,25.51,0,0,1-1.22,14l-1,3.2.51.4c11.51,9.18,20.8,23.18,23,37.86l.13.84a44.89,44.89,0,0,1-8.82,33.38,51.57,51.57,0,0,1-32.94,19.5c2.44-2.25,5.22-4.12,7.61-6.46,7-6.83,10.26-16,11.74-25.43a44.16,44.16,0,0,0,0-13.77c-3-16.9-10.29-30.83-21.8-43.46Z"/><path class="cls-18" d="M107.72,395.59a24.23,24.23,0,0,0,12.16-1.91L177.32,610l-10.93.1Z"/><path class="cls-21" d="M219.16,210.27c3.69-2.56,7.27-4.33,11.89-3.43,7,1.35,13.42,8.35,17.81,13.54a12.43,12.43,0,0,1,3.86-3.88l-1.52,41.77-5.29,42.28c-.4,3.77-2.06,11.2-.56,14.59l-10.94,12.75-11.55-84.3,3.4-2.67c-3.83-1.26-7.11-2.74-10-5.67a15,15,0,0,1-4.54-12C211.93,218,215.5,213.7,219.16,210.27Z"/><path class="cls-4" d="M219.16,210.27c3.69-2.56,7.27-4.33,11.89-3.43,7,1.35,13.42,8.35,17.81,13.54-2.88,3.74-7.08,7.28-10.43,10.68Z"/><path class="cls-22" d="M327.15,546a5.57,5.57,0,0,1,5.14-.13c3.42,4,1.91,13.7,1.81,19-.72,3.07-.63,6.5-1,9.66-.42,3.61-1.27,7-2,10.59-.64,1.82-2.23,4.94-2.26,6.77-1.59,3.34-3.56,6.81-4.74,10.3a9.73,9.73,0,0,1-5.23,4.26c-5.32,1.66-11.71,1.66-17.24,1.9-3.34.14-6.83.63-9.87-1-3.43-1.88-5-5.94-6.15-9.47-2.92-8.78-3.87-17.52-3.94-26.73,0-4.33.27-8.93-.51-13.2-.65-3.55-4.71-6.34-5.41-9.76a2.87,2.87,0,0,1,.63-2.45c2.39-.75,4.95-.52,7.44-.67l12.79,1Z"/><path class="cls-23" d="M296.26,584c1.66.86,3.07,1.23,3.63,3.22a9.8,9.8,0,0,1,.32,2.8,6.44,6.44,0,0,1-1.77,1.2c-1.87-.44-1.91-.35-3.14-2C295.07,587.07,295.09,585.91,296.26,584Z"/><path class="cls-23" d="M302.5,571.34c.95-1.54,1.43-3,3.44-3.26,1.67-.25,2.42.46,3.64,1.46a4.45,4.45,0,0,1,0,3.9l-1.79,1.06C305.4,573.82,304,573.42,302.5,571.34Z"/><path class="cls-23" d="M296.2,582.47a6,6,0,0,1-2-2.22,4.78,4.78,0,0,1,.07-4,5.58,5.58,0,0,1,3.92-1.65c1.23,1.52,1.72,1.91,2,3.9a5.16,5.16,0,0,1-2.8,3.5Z"/><path class="cls-10" d="M298.18,574.6a5,5,0,0,0,2.51-.61,4.07,4.07,0,0,0,1.81-2.65c1.46,2.08,2.9,2.48,5.26,3.16l1.79-1.06c1.61,1.21,2.8.91,4.77,1,1.54.46,3,.55,3.88,2.09,1,1.88.42,4.29-.28,6.16l-1.34,2.86a10.05,10.05,0,0,1,.64,4.73c-1.52,1.3-2,1.18-4,1.41a21.31,21.31,0,0,0-2.85,1.47l-.51.7a4.57,4.57,0,0,1-3.7,1.18,8.13,8.13,0,0,1-3.55-2.85c-.34-.94-1.64-1.61-2.43-2.12a9.8,9.8,0,0,0-.32-2.8c-.56-2-2-2.36-3.63-3.22l-.06-1.55,1.18-.47a5.16,5.16,0,0,0,2.8-3.5C299.9,576.51,299.41,576.12,298.18,574.6Z"/><path class="cls-24" d="M307.76,574.5l1.79-1.06c1.61,1.21,2.8.91,4.77,1,.41,1.28.76,1.86.16,3.14a11.15,11.15,0,0,1-3.29.48A7.1,7.1,0,0,1,307.76,574.5Z"/><path class="cls-23" d="M302.64,592.16c2.13-1.88,2.82-1.59,5.55-1.62a6.32,6.32,0,0,1,2.21,2.59l-.51.7a4.57,4.57,0,0,1-3.7,1.18A8.13,8.13,0,0,1,302.64,592.16Z"/><path class="cls-23" d="M313.25,591.66c-.92-1.71-1.27-2.42-1.06-4.41a5.14,5.14,0,0,1,3.24-2.38l1.15.65a10.05,10.05,0,0,1,.64,4.73C315.7,591.55,315.19,591.43,313.25,591.66Z"/><path class="cls-23" d="M314.32,574.41c1.54.46,3,.55,3.88,2.09,1,1.88.42,4.29-.28,6.16a6.52,6.52,0,0,1-3.86-1.91c-.29-1.64-.33-1.72.42-3.2C315.08,576.27,314.73,575.69,314.32,574.41Z"/><path class="cls-25" d="M842.21,512.34l3.64,2.64c-1.1-7.1.09-15.11,4.59-21,1.43-1.86,3.56-3.65,6-3.8a6.6,6.6,0,0,1,5.08,2.11c2.5,2.45,3.74,5.42,4.74,8.69l.24.76c1.47,4.82.71,9.44.16,14.31,3.45-4.83,7.25-8.71,13.44-9.65a6.88,6.88,0,0,1,5.48,1.67,5.67,5.67,0,0,1,2.12,4.16C888.08,523.79,881,530.09,874,538c-1.11,1.25-2.63,2.57-3.13,4.2,2.09-.78,4.33-3.64,6-5.23,4.22-4.06,14.52-13.74,21-10.36a5.29,5.29,0,0,1,2.71,2.93c1.49,5.14-1.71,12.57-4.51,16.87-3.67,5.66-8.6,10.26-13.69,14.6l-42.48.18-.2-.38-.57-1.35c-2.12-5.33-2.46-11-2.46-16.65,0-2.14-.24-4.47.61-6.47a48.17,48.17,0,0,1,6.31,3.53l-5.41-5.5C838.76,527.55,838.91,518.41,842.21,512.34Z"/><path class="cls-4" d="M252.72,216.5c3.25-.25,6.45,1.29,9.52,2.21l19.2,5.91,36.08,11.69-72.17,78.83c-1.5-3.39.16-10.82.56-14.59l5.29-42.28Z"/><path class="cls-5" d="M252.72,216.5c3.25-.25,6.45,1.29,9.52,2.21l19.2,5.91L251.2,258.27Z"/><path class="cls-1" d="M165.67,670l30.44.09-12.94,79.15-3.29,22.11c-.44,3-.53,6.82-1.51,9.65l-28.32,0Z"/><path class="cls-1" d="M770.42,781.55,787.35,667l29.38.1L798.44,782l-19,0C776.75,782,773,782.55,770.42,781.55Z"/><path class="cls-1" d="M850.81,782.16,831.49,667l30.43,0,17.45,115Z"/><path class="cls-1" d="M236.84,666l15.72-.09.58,4.83L270,781.25a4,4,0,0,1-1,.8c-1.38.46-5.21,0-6.82,0l-23.15.07L219.45,671.4c-.38-.59-.17-4.45-.21-5.4Z"/><path class="cls-2" d="M236.84,666h15.68l.59,4-33.08.12-.62.66c-.41-.63-.18-4.76-.22-5.78Z"/><path class="cls-6" d="M310.16,406.16A50.05,50.05,0,0,0,327,419.06L326.91,545H296l1-89.8L297,432c0-3.89-.31-8.07.05-11.95a12.73,12.73,0,0,1,1-4C300.5,410.51,304.93,408.19,310.16,406.16Z"/><path class="cls-2" d="M879.37,781.84l19.08,138.42L900.93,938l-16.29,0c-2.5,0-5.43.28-7.87-.21l-3.32-20.3L850.77,782Z"/><path class="cls-2" d="M750.9,910.68l19.47-129.17c2.54,1,6.37.49,9.09.49l19.07,0L776.22,910.84,771.57,938H747Z"/><path class="cls-2" d="M150,781l28.48,0-21,134.45L153.88,938l-25.35-.07,2.52-19Z"/><path class="cls-26" d="M327.09,419.16c12.59,4.33,23.61,5,36.56,1.82,2.71,9.19,9.23,15.58,16.89,21l-25.19,46.42,5.18,3.79c-3.83,8.1-6.6,17-9.6,25.41L340,548l-4,12.25c-.24.76-.83,3.61-1.29,4.12a3.3,3.3,0,0,1-.82.47c.09-5.27,1.6-15-1.82-19-1.63-.83-3.35-.72-5.14-.77Z"/><path class="cls-2" d="M270,781.18c.11,5.77,1.46,11.83,2.31,17.55l3.8,26.78,12,83.94L292.52,940l-26.93.1-4.7-29.81c-.65-6.21-2-12.43-3-18.6L251.21,852l-8.78-51.08c-1.15-6.22-1.64-12.85-3.52-18.88l23.18-.07c1.61,0,5.47.51,6.86.05A4.18,4.18,0,0,0,270,781.18Z"/><path class="cls-25" d="M742.16,275.81a105.34,105.34,0,0,1,13.06-.54c4.22-.08,8.55-.39,12.74.19l.95.12.58.08c2.71.72,4.19,1.56,5.66,4s.83,7.92.85,10.74v20.73s.17,7.35,0,10.9v23.6a40.3,40.3,0,0,1,.56,11.88,6.3,6.3,0,0,1-1.67,3.73,12.66,12.66,0,0,1-2.58,2.2c-.79.32-4-.45-4-.45l-15.46,1h-72.7c-2.87-.8-5.06-.85-7.2-3a8,8,0,0,1-2.3-4.26c-1.33-5.79-.46-13.37-.69-19.37l1-37.53,0-15c0-2.29-.32-4.79,1.18-6.71a7.76,7.76,0,0,1,3.81-2.69c2.14-.57,4.88-.27,7.11-.26,5.73,0,12.05.65,17.71,0l.84-.1,1,1.78c6.73.88,14,.4,20.74.36,5.79,0,11.95.32,17.69-.43Z"/><path class="cls-22" d="M692,321l59,0,0,9H692Z"/><path class="cls-22" d="M732.88,305H751v9l-39.56,1H692V304Z"/><path class="cls-27" d="M769.74,275.59c2.74.73,4.23,1.58,5.71,4.05s.55,10.84.55,10.84v20.66s.17,7.35,0,10.9v23.6a40.3,40.3,0,0,1,.56,11.88,6.3,6.3,0,0,1-1.67,3.73,12.66,12.66,0,0,1-2.58,2.2,6.74,6.74,0,0,1-4-.45l-15.46,1h-72.7s-5.06-.85-7.2-3a8,8,0,0,1-2.3-4.26c-1.33-5.79-.46-13.37-.69-19.37V299.86c1.3,4.93.63,10.93,0,16v33.79c1.73,1.35,2.69,2.75,4.1,3.7a5.38,5.38,0,0,0,3,1.16c7,.51,21.3-.54,21.3-.54l35.21,1h22.74c2.94,0,7.07.53,9.9-.16a6.14,6.14,0,0,0,3.73-2.65,5.87,5.87,0,0,0,.78-2.69c.36-5.34,0-11,.27-16.36V298.69C770.32,291.44,771.3,282.61,769.74,275.59Z"/><path class="cls-3" d="M657,216.5l.63-73.41c.38-3.66,1.51-6.88,4.69-9.12a8.67,8.67,0,0,1,4.11-1.49c5.86-.65,12.48-.1,18.38-.11,7.55,0,15.93-.7,23.39.28l-.15,8.31a126.27,126.27,0,0,0,14.16-.64c1.29-.13,2.92-.07,3.89-1a17.39,17.39,0,0,0-.59-6c1.93-.91,5.67-.38,7.85-.36h19.69s14.48-1.38,19.71,2.51c2.62,3.67,2.88,7,3.24,11.35l1,53.68v15a45.57,45.57,0,0,1-.18,7.67,8.38,8.38,0,0,1-2.09,3.35c-1.77,2-3.57,2.4-6.14,2.46l-100.65,0-2.72-.43c-2.43-.37-4.25-.8-6-2.62C656.73,223.43,657,219.72,657,216.5Z"/><path class="cls-22" d="M738.09,169,757,169l-.1,7-18.9.09Z"/><path class="cls-28" d="M725,133.42c1.93-.91,5.65-.38,7.82-.36-.54,3.87-1.28,9.52-4.73,11.93-1.73,1.21-4.15,1-6.16,1l-14.54.24a29.39,29.39,0,0,1,.25-5.23,127.34,127.34,0,0,0,14.08-.63c1.29-.14,2.91-.08,3.87-1A17.12,17.12,0,0,0,725,133.42Z"/><path class="cls-22" d="M675,169l31,.05,0,6.95H675Z"/><path class="cls-22" d="M695.4,200H722v6l-20.7,1H674v-8Z"/><path class="cls-22" d="M674,155l49,0,.12,7L674,161.78Z"/><path class="cls-22" d="M737.45,186h7.37l-.13,6-63.82,1H674v-8Z"/><path class="cls-28" d="M772.76,135.51c2.62,3.67,3.24,11.35,3.24,11.35l1,53.68V215c-.8,2.42-.55,5.3-1,7.67a8.39,8.39,0,0,1-2.08,3.34c-1.77,2-3.56,2.4-6.11,2H664.94c-2.42-.37-4.23-.79-6-2.61-2.43-2.49-2.15-6.19-2.17-9.41l3.59,3.31c1.15.84,3.58.7,3.58.7h87c4.87.49,10.07.85,14.87,0,1.9-.35,4.23-3.17,4.68-5,1.2-4.93.3-11.84.27-16.94-.06-9.09-1.07-59,1.56-62.11Z"/><path class="cls-29" d="M126.3,626c15.19-.68,46.17,0,46.17,0l23.79,0c4,.05,8.49-.18,12.45.5l1.64.08c.88.27,1.64.22,2.1,1.07a5.94,5.94,0,0,1,.65,2.21l.22,0c0,1.94-.22,3.38.88,5l403.67,1,108.71-1h29.74s10.16.49,14.8-.39l.56.07c4.43.5,13.48,1.32,13.48,1.32l21.76-2,76.42,1,19.48,0c3.55,0,7.48-.34,11,.3a16.67,16.67,0,0,1,10,5.92,13.79,13.79,0,0,1,2.59,4.83l.17.52c1,3.36,0,7-1.6,10a17.19,17.19,0,0,1-10.14,8.1c-2.21.55-5,.35-7.27.36L894,666H656.15l-65.54-1-32.87,1-49.94-1H493l-7.11,1H346.76l-.61,1c-1.88-.56-4.09,0-6.06,0-4.61.07-14.18,0-14.18,0H303.13l-1.27-2-49.34,1H236.84l-12.35-1-25,1-54-1-17.08.1c-4.76,0-9.79.39-14.29-1.4a17.06,17.06,0,0,1-9-9.16,13.92,13.92,0,0,1,.55-11.37,16.58,16.58,0,0,1,9.87-8.49l.58-.18c2.79-1,5.29-.93,8.2-1,1.47,0,3.48.22,4.69-.67l-6.05-.19-.72-1c0-1.91-.4-4,.7-5.63Z"/><path class="cls-13" d="M303,665l42.57.06-.58,1.41c-1.78-.53-3.87,0-5.74,0-4.37.07-9.15-.31-13.43.52H304.28Z"/><path class="cls-5" d="M126.3,626c15.19-.68,30.9.2,46.17,0h24.05c3.91.28,8.24,0,12.09.71l1.59.09c.85.26,1.59.21,2,1a5.67,5.67,0,0,1,.63,2.15l-.43,2.32c-7.64,1-89,.46-90.2-.23,0-1.89-.39-4,.7-6.07Z"/><path class="cls-13" d="M569.74,903.78l.94.35a15.26,15.26,0,0,1,3,1.6c1.28-.32,2-1.43,3-2.31,3.59-3.26,8.52-5.34,13.07-6.84.41,1.3,1.07,4.53,2.14,5.26l.84.43c1.75.89,2,3.48,3.26,4.14a10.46,10.46,0,0,0,2.16.27c1.92-1,4.2-.67,6.32-.68H618.1l79.53,1.9,38.64,1.36c3.87.19,9-.17,12.69.84l.63.23L745.75,937h25.83l4.63-26.48,97.25,6.57,3.3,20.26a68.38,68.38,0,0,0,7.87.65l16.26,0-2.47-17.42c8.35.14,17.05,1.82,25.29,3.17,9.29,1.52,18.72,3,27.73,5.73a49.08,49.08,0,0,1,10.78,4.22,5.67,5.67,0,0,1,3.18,4c-.51,2-1.47,3-3.07,4.33-4.42,3.77-12.62,5.7-18.2,7.17-24.93,6.54-50.66,8.84-76.25,11.43L631,974l-116.38,2-48.49-.74L213,964.55c-36.4-2.95-73.47-6.09-109.34-13a177.34,177.34,0,0,1-26.1-6.65c-4.42-1.58-8.41-3-11.53-6.72,0-1.59-.23-2.54.89-3.85,3-3.51,9.79-5.37,14.13-6.6A261.72,261.72,0,0,1,130.62,919l-2.52,19h25.78l3.56-22.42,103.46-5.7L265.59,940l25.84-.11-4.59-31.6,30.26-1.5c6.44-.23,12.88-1.17,19.19.37l2-.77a23.11,23.11,0,0,1,14-.61l1.36-.78,51.66,1,17.24-.07c2.7,0,5.85-.45,8.43.36,2.94.89,6.24,0,9.31.23l.15.7,2.95.52a6.6,6.6,0,0,1,3,1.47l.57-5.39.27-.82,29.56-.18,4.25.95a4.08,4.08,0,0,1,.53,2c1.17,1.14,2.88.87,4.34,1.63l.41-.33a13.3,13.3,0,0,1,3.47-2.07,12,12,0,0,0,2.84-1.18l4.19-1.93.72-.48,2-.73c1.94-.76,3.71-1.88,5.81-1.46,2,1.79,2.5,2.18,3,4.83l16.22,0c3.3,0,6.79-.29,10,.54a33.37,33.37,0,0,1,4.69-.28l.39-.06c8.84-1.22,18.95-.69,27.9-.61Z"/><path class="cls-26" d="M439.87,938h92l.08,1.4-1,1c-5.34,1.48-13.21.6-18.88.61H472.66l-20.37.13c-2.71,0-5.79.33-8.45-.06C442,940.79,441,939.43,439.87,938Z"/><path class="cls-23" d="M431.08,906.15c2.86.86,6.07,0,9.05.22l.14.68-.28,2.88-.37,16a58.39,58.39,0,0,1-.21,8l-.18,3.6-.39.24c-2.37,1-7.58.18-9.8-.91-4.19-2-7.64-5.2-9.12-9.73A18.23,18.23,0,0,1,421,913.37C423.31,908.83,426.56,907.5,431.08,906.15Z"/><path class="cls-13" d="M439.41,933.88c-.15-.37-.17-.83-.46-1.11s-3.32-.67-4-.85a16.09,16.09,0,0,1-5.33-2.37,9.69,9.69,0,0,1-3.88-6.34A10.84,10.84,0,0,1,428,915c2.79-3.57,7.77-4.5,12-5.08l-.37,16A58.39,58.39,0,0,1,439.41,933.88Z"/><path class="cls-23" d="M337.65,907.2a22.37,22.37,0,0,1,13.49-.59,18,18,0,0,1,3.84,2,16.67,16.67,0,0,1,6.54,12.25c.21,4.25-2.08,9.12-5.08,12.09a17.46,17.46,0,0,1-12.13,5,16.66,16.66,0,0,1-12.4-6c-3.06-3.38-4-7.28-3.76-11.72a15.58,15.58,0,0,1,5.66-10.67l1.9-1.69Z"/><path class="cls-13" d="M341.7,912.06a18.56,18.56,0,0,1,4.94,0,10.19,10.19,0,0,1,7,5.15,10.36,10.36,0,0,1,.64,7.32c-1.08,3.46-3.88,5.13-6.88,6.73a11.87,11.87,0,0,1-5.36.32,9.4,9.4,0,0,1-5.78-4.57,9.6,9.6,0,0,1-1.21-7.34C336.05,916.05,338.57,913.93,341.7,912.06Z"/><path class="cls-26" d="M569.61,904.2l.92.34a15.73,15.73,0,0,1,2.91,1.57c1.24-.32,2-1.4,2.91-2.26,3.5-3.18,8.32-5.21,12.76-6.67.39,1.27,1,4.42,2.08,5.13l.82.41c1.71.87,1.91,3.41,3.18,4a9.88,9.88,0,0,0,2.1.27c1,1.61,1.72,3.31,3.51,4.09s2.83,3.41,4.73,4.74a20.09,20.09,0,0,1,2.13,1.9c1.08,1.09,1.58,1.08,2.9,1.81,5.48,3,11.16,5.62,12,12.66a27.1,27.1,0,0,1,.07,4.68l-.17,1.91a6.77,6.77,0,0,1-3.25,1.09c-14.35,1-29.25,0-43.67.09l-28.53.37c-3.86,0-8.62.56-12.36-.19a5.86,5.86,0,0,1-1.89-.76l-.08-1.51a31,31,0,0,0-.08-6.39l1.16-.43c-.61-3.53-.41-7.21-.45-10.78L533,909.09c0-2.15.88-2.62,2.29-4.1a33.42,33.42,0,0,1,4.58-.27l.38-.06c8.63-1.19,18.48-.67,27.22-.6Z"/><path class="cls-30" d="M533,931l1.09-.41.57,5c1.54.61,4,.32,5.67.33L556,937h66.62l-.17,1.38a6.78,6.78,0,0,1-3.25,1.1c-14.35,1-43.67-.48-43.67-.48l-29,.35c-3.62,0-8.09.52-11.6-.18a5.72,5.72,0,0,1-1.78-.71l-.08-1.42A28,28,0,0,0,533,931Z"/><path class="cls-31" d="M567.42,903.63l2.19.14-.4.33c-3.88,3.44-6.3,15.29-12.27,14.9-5.32-.35-14.46-6-17.57-10.33-.69-.95-.53-1-.27-2.17l.72-2.21.38-.06C548.83,903,558.68,903.55,567.42,903.63Z"/><path class="cls-15" d="M492.62,903.77l4.19-1.93.72-.48,2-.73c1.94-.76,3.71-1.88,5.81-1.46,2,1.79,2.5,2.18,3,4.83l17.13,0c3.27,0,6.72-.29,9.9.54-1.43,1.49-2.35,2-2.33,4.15l.35,11.4a68.75,68.75,0,0,0,.45,10.93l-1.18.44a30.64,30.64,0,0,1,.08,6.49H439.18l.18-3.64a56.92,56.92,0,0,0,.21-8.06l.38-16.23.28-2.91,2.9.51a6.38,6.38,0,0,1,3,1.45l.56-5.32.27-.8,29.86-.18,4.25.95a4.08,4.08,0,0,1,.53,2c1.17,1.14,2.88.87,4.34,1.63l.41-.33a13.3,13.3,0,0,1,3.47-2.07A12,12,0,0,0,492.62,903.77Z"/><path class="cls-6" d="M492.62,903.74l4.32-2,.75-.49,2-.76c2-.77,3.83-1.93,6-1.5,2.08,1.85,2.58,2.25,3.09,5l-.06,1.94-1.06-.6-2.64.59L498.69,907l-1.25.23-1,.49c-.87.18-1.05-.11-2,.35l-.77.4c-1.95.87-2.6.82-4.5,0l-.27-1,1.19-1.52-.41-1A12.24,12.24,0,0,0,492.62,903.74Z"/><path class="cls-32" d="M476.3,902.82l4.38,1a4.29,4.29,0,0,1,.54,2l-.57,0a6.23,6.23,0,0,1-4.21-.85c-1.74,1.39-2.72,4.09-3.88,6a37.85,37.85,0,0,1-8.48,9.79A48.19,48.19,0,0,1,449.55,912a25,25,0,0,1-3.5-3l.56-5.25.25-.79Z"/><path class="cls-13" d="M508.78,904l16.71,0c3.22,0,6.63-.27,9.75.54-1.41,1.47-2.31,1.95-2.29,4.09l.34,11.23c0,3.57-.16,7.24.45,10.77l-1.16.43a14.19,14.19,0,0,0-1.14-2.87,13.38,13.38,0,0,0-8.25-6.22,10.82,10.82,0,0,1-5.12-2.59c-2.2-2.06-3.05-3.16-6.13-3.63a4.27,4.27,0,0,1-1.33-2.27l1-1.25c-1-1.36-1.31-.76-2.63-1.48-.67-.36-1.54-2.12-1.95-2.79a3.77,3.77,0,0,0,1.73-2.06Z"/><path class="cls-33" d="M252.44,665h49.39l1.34,2h22.74s9.57.06,14.18,0c2,0,4.18-.58,6.06,0l.61-1h161l49.95-.24.77.58c2.76,2,6,3.55,8.92,5.34,9.61,5.87,21.19,13.15,27.66,22.47l.51.72a39.91,39.91,0,0,1,6.73,30.28L575,873.85a9.24,9.24,0,0,1-2.83.69l-4.77,29.06c-8.72-.07-18.57-.6-27.19.6l-.38.06a31.77,31.77,0,0,0-4.57.27c-3.13-.81-6.53-.52-9.74-.53H508.78a13,13,0,0,0-3.09-5c-2.17-.43-4,.73-6,1.5l-2,.76-.75.49-4.32,2A12.24,12.24,0,0,1,489.7,905a13.68,13.68,0,0,0-3.58,2.13l-.43.34c-1.5-.78-3.26-.5-4.47-1.68a4.29,4.29,0,0,0-.54-2L476.3,903H446.86l-.25.74-.56,5.25a6.38,6.38,0,0,0-2.92-1.44l-2.86-.5-.14-.68c-3-.19-6.19.64-9.05-.22A49.58,49.58,0,0,0,422.9,905l-17.6,1H352.53l-1.31.76a22.33,22.33,0,0,0-13.5.59l-2,.74c-6.09-1.48-12.31-.58-18.53-.35L288,909.17,276,825.3l-3.8-26.76c-.84-5.71-2.2-11.77-2.31-17.54L253,669.86Z"/><path class="cls-34" d="M422,784h23.27l.32,1,13.16.22c-1.57,3-.61,27.36-.59,32.43l-7.66,42.23c-.53,2.62-3.14,11.53-2.08,13.4l4,.45-5.56,29.43-.26.79-.56,5.23a6.29,6.29,0,0,0-2.9-1.43l-2.86-.5-.14-.68c-3-.19-6.17.64-9-.22-2.49-.79-5.55-.36-8.16-.35H352.33l-1.31.76a22.4,22.4,0,0,0-13.57.6c-2.2-1.51-6.74.17-8.5-2-1.62-2-1.3-7.66-1.38-10.09-.1-3.48-.21-6.86,2.33-9.52a5.2,5.2,0,0,1,3.16-1.53c9-1.09,19.14-.23,28.25-.24L422,884Z"/><path class="cls-35" d="M446.61,903.74l-.56,5.25a6.38,6.38,0,0,0-2.92-1.44l-2.86-.5-.14-.68C441.84,905,444.48,904.38,446.61,903.74Z"/><path class="cls-13" d="M420.29,784l24.71.21L443.75,884,421,884Z"/><path class="cls-6" d="M325.63,667c4.54-.88,9.58-.47,14.2-.54,2,0,4.18-.58,6.07,0,1.29,5.35,2.53,10.36,5,15.33,5.34,10.64,16.35,20.36,26.41,26.51a137.79,137.79,0,0,0,31.07,14c11.1,3.39,22.59,5.45,33.88,8.12L474.71,733c-1.16,5.85-2,12.39-3.87,18H459v24.57s.79,6.85-.2,8.42H445.59l-.32,1H421c-.67-4.28,0-12.06,0-12.06L420.93,751l-54.38,0c-7.65,0-16,.64-23.53-.26a49,49,0,0,1-15.27-4.3,42.41,42.41,0,0,1-21.84-23.73l-.21-.62-.61-1.66a31.74,31.74,0,0,1-1.72-7.45c-1-11-.47-22.54-.53-33.59,0-3.27-.83-9.67.49-12.43Z"/><path class="cls-34" d="M421,751l23.9,1H459v23.58s.79,6.85-.2,8.42H445.59l-.32,1H421c-.67-4.28,0-12.06,0-12.06Z"/><path class="cls-30" d="M326,667.53c4.44-.88,9.48-.47,14.09-.54,2,0,4.18-.58,6.06,0,1.29,5.35,2.53,10.35,5,15.31,5.34,10.63,16.33,20.34,26.38,26.48a137.46,137.46,0,0,0,31,14c11.09,3.38,22.57,5.43,33.84,8.1a8,8,0,0,1-4.31.16l-62.75,1H356.6c-3.66-.58-7.64-.3-11.21-1.16s-7.26-3.68-9.91-6.26a32.82,32.82,0,0,1-8.73-14.32c-1.41-4.9-.79-11.11-.75-16.2Z"/><path class="cls-36" d="M347.82,666H485.88l-20.23.11c5.13,3,10.61,5.28,15.83,8.13a227.13,227.13,0,0,1,27.18,17.63c5.22,3.91,10.81,8.19,14.68,13.51,2.69,3.7,4.33,8,5.88,12.32a47.44,47.44,0,0,1,.59,14.46l-4.72,19.06L489.83,874.7a34.61,34.61,0,0,1-6.83-.77l-.39-.11-1.89,9.94L476.1,903l-29.44.18,5.58-29.53-4-.45c-1.05-1.88,1.56-10.82,2.09-13.44L458,817.38c0-5.09-1-29.55.59-32.53,1-2.24.41-6.52.4-9.09L458.92,751h11.69c1.87-5.58,2.68-12,3.83-17.82l-32-2.55c-11.15-2.64-22.5-4.66-33.46-8a136.2,136.2,0,0,1-30.69-13.82c-9.94-6.07-20.81-15.67-26.08-26.19-2.46-4.9-3.69-9.85-5-15.14Z"/><path class="cls-33" d="M458.92,751h11.83l-8.31,42.42L460,808c-.48,2.87-.8,6.1-2,8.75,0-5.09-1-29.54.59-32.52,1-2.23.41-6.51.4-9.09Z"/><path class="cls-24" d="M452.59,874l30,.17L480.73,884l-4.57,19-29.09.18Z"/><path class="cls-13" d="M485.88,666c2.2-.44,7.11-1,7.11-1l14.81,1,49.95-.24.77.58c2.76,2,6,3.55,8.92,5.34,9.61,5.87,21.19,13.15,27.66,22.47l.51.72a39.91,39.91,0,0,1,6.73,30.28L575,873.85a9.24,9.24,0,0,1-2.83.69l-4.77,29.06c-8.72-.07-18.57-.6-27.19.6l-.38.06a31.77,31.77,0,0,0-4.57.27c-3.13-.81-6.53-.52-9.74-.53l-16.75,0c-.51-2.73-1-3.14-3.09-5-2.17-.43-4,.72-6,1.5l-2,.75-.75.49-4.32,2a11.85,11.85,0,0,1-2.92,1.22,13.71,13.71,0,0,0-3.58,2.14l-.43.34c-1.5-.79-3.26-.51-4.47-1.69a4.17,4.17,0,0,0-.54-2l-4.38-1,4.61-19.23,1.9-9.93.38.11a34.61,34.61,0,0,0,6.83.77l35.24-123.41L530,732a47.36,47.36,0,0,0-.58-14.45c-1.55-4.27-3.2-8.61-5.88-12.32-3.86-5.31-9.46-9.59-14.67-13.5a226.86,226.86,0,0,0-27.17-17.61C476.46,671.28,471,669,465.86,666Z"/><path class="cls-30" d="M529.4,717.54l15.4,5.23-.89,8.82L530,732A47.42,47.42,0,0,0,529.4,717.54Z"/><path class="cls-6" d="M530,732l13.93-.41-1.76,19.9c-5.31-.53-11.83,1.09-16.89-.44Z"/><path class="cls-29" d="M541.7,874l30.49.19-4.77,29.08c-8.74-.07-18.59-.6-27.22.6Z"/><path class="cls-33" d="M482.8,873.58l.39.1a34.61,34.61,0,0,0,6.83.77L525.26,751c5.06,1.53,11.58-.09,16.89.44,0,14.65-1.68,29.68-2.83,44.3l-3.9,57.91-.88,13.53c-.16,2.21-.69,5-.27,7.16a47.27,47.27,0,0,1,7.43,0l-1.5,29.87-.38.06a31.9,31.9,0,0,0-4.58.27c-3.12-.81-6.53-.52-9.75-.53l-16.71,0c-.51-2.73-1-3.14-3.09-5-2.17-.43-4,.72-6,1.5l-2,.75-.75.49-4.32,2a11.47,11.47,0,0,1-2.92,1.22,13.71,13.71,0,0,0-3.58,2.14l-.43.34c-1.5-.79-3.26-.5-4.47-1.68a4.3,4.3,0,0,0-.54-2l-4.38-1,4.61-19.23Z"/><path class="cls-34" d="M480.91,883.54c3.29-.07,9.39-.94,11.92,1.21a7.11,7.11,0,0,1,2.4,5.32,32.35,32.35,0,0,1-2.61,13.67A12.24,12.24,0,0,1,489.7,905a13.68,13.68,0,0,0-3.58,2.13l-.43.34c-1.5-.78-3.26-.5-4.47-1.68a4.29,4.29,0,0,0-.54-2l-4.38-1Z"/><path class="cls-37" d="M309.83,406.26a28.05,28.05,0,0,0-2.81-4.21c-6.58-9.16-9-23.31-7-34.3,1.88-10.65,7-20.6,15.54-27.43,3-2.41,6.49-4.2,9.64-6.44a38.5,38.5,0,0,1-4.95-5.49c-6.74-9-8.47-22.13-6.92-33.06,1.74-12.29,6.3-22.11,13.4-32.16,1.28-1.81,4.18-4.75,4.79-6.68.25-.8-.3-3.19-.43-4.08l-1.22-11a195.49,195.49,0,0,1-.34-20.11c.71-22.62,7.71-46.17,23-63.27,5.05-5.62,10.53-10.57,17.38-13.94A46.14,46.14,0,0,1,384,139.82c.88-.12,5.44,0,5.86-.33,0,0,.42-1.61.46-1.78a37.94,37.94,0,0,1,2.83-7.26,48.67,48.67,0,0,1,11-14c16.43-15,44.4-20.11,65.85-18.88,36.69,2.11,71.26,19.63,95.41,47.3,22.8,26.13,36.59,64.52,37.89,99,.55,14.87-1.21,29.41-2.2,44.22l-5.27,44.93c11.52,12.63,18.79,26.56,21.81,43.46a44.47,44.47,0,0,1,0,13.77c-1.47,9.44-4.74,18.6-11.73,25.43-2.39,2.34-5.17,4.21-7.62,6.46-4.71,1.39-12.22,1.19-17.09.46l-.79-.13a48.1,48.1,0,0,1-11.48-3.19c-2.07,3.23-4,6.76-6.45,9.69-5.08,6-12.28,10.16-19.59,12.88l-13.57-23.68c-2.63-4.07-18.56-6.89-23.88-9.53-3-1.67-8.67-2.24-12.15-3.05L480,403.21,479.93,393c-12.07,2.29-21.55,2.35-33.52-.83a114.9,114.9,0,0,1,0,11.74l-12.83,2.22-12.68,2.25L402.52,413c-2.26.61-5.54,1.14-7.53,2.29a8.15,8.15,0,0,0-2.42,2.9L380.42,442c-7.66-5.39-14.18-11.78-16.89-21-12.95,3.15-24,2.51-36.56-1.82A50.77,50.77,0,0,1,309.83,406.26Z"/><path class="cls-29" d="M375.84,192.75a3.23,3.23,0,0,1,2.75.84c1.35,1.29,1.27,3.46,1.05,5.16a15,15,0,0,1-6.2,9.77l-1,.28c-1.11-.6-1.47-.72-2-1.94-1.14-2.67-.78-6.84.42-9.46A8.19,8.19,0,0,1,375.84,192.75Z"/><path class="cls-29" d="M484.24,187.75a10,10,0,0,1,6.23.16,18.57,18.57,0,0,1,9.64,9.49l.23.51a10.92,10.92,0,0,1,.94,5.84c-.24,2.76-1.8,4.39-3.84,6.07a10.13,10.13,0,0,1-2.8.13,18.85,18.85,0,0,1-11.71-7.56c-1.93-2.65-3.18-6.58-2.49-9.83C480.94,190.18,482.24,189,484.24,187.75Z"/><path class="cls-29" d="M514.19,177.07c1.64-.17,4-.45,5.56.08a15.19,15.19,0,0,1,8.12,7.12c2.31,4.08,4,11.42,2.35,16-.86,2.48-2.59,3.77-4.8,5a11.31,11.31,0,0,1-8-1.72c-4.24-3.1-7.47-9.39-8.3-14.48l-.13-.83a13.13,13.13,0,0,1,.15-5.75C509.87,179.84,511.94,178.4,514.19,177.07Z"/><path class="cls-29" d="M359.38,177a9.28,9.28,0,0,1,3.24.17,5.38,5.38,0,0,1,3.13,3.54c2.31,6.37-1.33,16.16-4.26,22-2.07,4.08-5.07,7.94-9.55,9.39a8.57,8.57,0,0,1-2.9-.13,5.63,5.63,0,0,1-3.23-2.85c-2.29-4.07-1.19-11.5.23-15.82C348.39,186.05,352.6,180.35,359.38,177Z"/><path class="cls-29" d="M544.32,157.53a26.37,26.37,0,0,1,6.93.27c6.86,1.58,14.21,6.7,17.82,12.85,3.86,6.56,5.77,17.18,3.64,24.63a18.67,18.67,0,0,1-9.59,11.85c-2.82.93-5.38,1.29-8.21.17l-.72-.31c-3.52-1.46-6.61-5-8.72-8.09-5.23-7.7-10.19-17.1-10.5-26.65-.12-3.84.35-8.16,3.18-11l.38-.37A17.12,17.12,0,0,1,544.32,157.53Z"/><path class="cls-38" d="M554.63,293.46c2.43-7.56,4-14.38,11.6-18.54,4.51-2.47,8.87-2,13.63-.64,6.34,3.57,10.68,7.64,12.75,14.76a25,25,0,0,1-1.93,19.37,23.94,23.94,0,0,1-14.31,10.89l-2.77.64c-7.05.25-11.85-.58-17.23-5.49a4.12,4.12,0,0,0-.56-1.17c-3.54-5.76-2.72-13-2.1-19.44l.12.06Z"/><path class="cls-29" d="M558.92,307a19.27,19.27,0,0,1-1.2-6c-.29-5.11,2-12.74,5.43-16.5,1.44-1.56,4.94-3.55,7.08-3.25l4.83,1.31a17.78,17.78,0,0,1,4.15,3.57c-4-.2-8.66-.23-11.77,2.83l-2.19,2.43-2,3.64c-1.76,3.12-2.65,7.25-3.27,10.73Z"/><path class="cls-39" d="M579.21,286.17a9,9,0,0,1,1,6.59c-1.75,5.75-7.92,15.8-13.46,18.37-1.55.72-3.07,1-4.62.12a8.37,8.37,0,0,1-3.21-4.25l1-1.2c.62-3.48,1.51-7.61,3.27-10.73l2-3.64,2.19-2.43C570.55,285.94,575.18,286,579.21,286.17Z"/><path class="cls-20" d="M408.29,198.54a3.69,3.69,0,0,1,.65-2.59c2.7.72,6.45,4.24,8.76,5.93l10.05,6.64c23.93,14.59,51.28,24.8,79.2,28.07,17.94,2.11,35.32,2.75,53.24,0l11.57-2.1c.15,0,1.81-.38,1.93-.33.31.14.42.55.63.82a27.65,27.65,0,0,0,.79,4.51A225,225,0,0,1,580,267.42c.25,1.95,1.14,4.83.46,6.65l-.57.21c-4.76-1.38-9.12-1.83-13.63.64-7.62,4.16-9.17,11-11.6,18.54l-.8.44-.12-.06c-.07-5.69-3.91-15.23-7.13-20-1.18-1.74-2.93-3-4.31-4.58-2.79-3.19-2.86-6-2.64-10l-1-1.13c-6.89-3.21-16-2.33-23.45-1.9-3.88.23-8.43.7-12-.93-.27-1.56-15.05-4.74-17.57-5.46-21.75-6.2-46-17.48-62.61-33.05-2.52-2.36-4.71-5.21-7-7.79a75.82,75.82,0,0,1-8-9.9Z"/><path class="cls-38" d="M538.61,258.12c2.06-.74,2.47-1.68,3.8-3.38a41.38,41.38,0,0,0-4.79-6.74l14.36-.47a183.56,183.56,0,0,1,3.11,26.76c.08,3.51.11,7.12-.13,10.62-.18,2.64-1.31,6.06-.33,8.55l-.8.44-.12-.06c-.07-5.69-3.91-15.23-7.13-20-1.18-1.74-2.93-3-4.31-4.58-2.79-3.19-2.86-6-2.64-10Z"/><path class="cls-38" d="M408.29,198.54c4.9,4.63,9.24,9.59,14.4,14,18.94,16.09,42.51,25.68,66.58,30.9,5.17,1.12,10.42,1.93,15.67,2.58,3.09.38,6.8.36,9.74,1.29-3.8,1.87-9.55,4.08-11.56,8-.27-1.56-15.05-4.74-17.57-5.46-21.75-6.2-46-17.48-62.61-33.05-2.52-2.36-4.71-5.21-7-7.79a75.82,75.82,0,0,1-8-9.9Z"/><path class="cls-20" d="M556.1,314.45c5.38,4.91,10.18,5.74,17.23,5.49a96.41,96.41,0,0,1,1.94,12.54c.37,3.17.08,6.36,2,9,9.38,12.89,14.56,26,11.61,42.16-1.35,7.41-5.31,15.17-11.76,19.37-7.41,4.83-15.19,4.43-23.49,3.22,4,5.7,8.67,10.45,15.28,13.11-2.07,3.23-4,6.76-6.45,9.69-5.08,6-12.28,10.16-19.59,12.88l-13.57-23.68c-2.63-4.07-18.56-6.89-23.88-9.53-3-1.67-8.67-2.24-12.15-3.05L480,403.21,479.93,393c14.28-3.51,28.09-9.56,39.75-18.64,14.91-11.6,28.55-28.6,34.05-46.88A78.24,78.24,0,0,0,556.1,314.45Z"/><path class="cls-24" d="M408,199.09a75.82,75.82,0,0,0,8,9.9c2.29,2.58,4.48,5.43,7,7.79,16.63,15.57,40.86,26.85,62.61,33.05,2.52.72,17.3,3.9,17.57,5.46,3.61,1.63,8.16,1.16,12,.93,7.43-.43,16.56-1.31,23.45,1.9l1,1.13c-.22,4-.15,6.82,2.64,10,1.38,1.57,3.13,2.84,4.31,4.58,3.22,4.77,7.06,14.31,7.13,20-.62,6.45-1.44,13.68,2.1,19.44a4.12,4.12,0,0,1,.56,1.17A78.26,78.26,0,0,1,554,327.52c-5.49,18.28-19.13,35.28-34,46.88-11.67,9.08-25.48,15.13-39.76,18.64-12.06,2.29-21.54,2.35-33.51-.83,0,3.84.33,7.93,0,11.74l-12.83,2.22-12.69,2.25L402.78,413c-2.25.61-5.53,1.14-7.52,2.29a8.15,8.15,0,0,0-2.42,2.9L380.68,442c-7.66-5.39-14.17-11.78-16.88-21a35.41,35.41,0,0,1-.27-11.11c.46-2.7,1.67-5.21,2.25-7.88-6.37-3.81-12.67-7.88-16.92-14.16-12.93-19.12,7.23-34.39,10.08-52.68.53-3.42-.58-6.44-2.13-9.42-1-1.93-2.55-3.37-2.09-5.56-4.32-2.79-7.72-4.69-10.78-9a29.52,29.52,0,0,1-4.51-21.29,22.88,22.88,0,0,1,9.73-15,14.83,14.83,0,0,1,11.58-2c8.61,2.24,10.56,13.87,14.26,20.59-1.15-11.86-.23-24.68.24-36.61l.74-12.66c.16-2.64.13-5.58.93-8.11,1.27-4,4.89-8,7.46-11.22A229.92,229.92,0,0,1,408,199.09Z"/><path class="cls-23" d="M499.44,280.48a11.83,11.83,0,0,1,3.28-5.28c4.86-5,10.57-6.62,17.33-6.78a10.22,10.22,0,0,1,.12,2.47,8.87,8.87,0,0,0-2.22.31c-6.64-.05-11,1.75-15.75,6.46Z"/><path class="cls-38" d="M462.72,360.75c3.77-.7,8.15-.4,12-.31a4.51,4.51,0,0,1,3.6,1.55c0,1.84-.94,2.33-2.14,3.66L473.38,367a10.66,10.66,0,0,1-8,0c-2.16-1.06-3.09-3.11-3.78-5.27Z"/><path class="cls-39" d="M365.61,284c2.62,3.09,6.32,10.75,5.95,14.72l-.12.58c-1.42-1.07-2.16-2.23-4-2-1.5,1.44-2.71,2.9-2.8,5.07l.07,2.65.08,1.86-.71-.27c-.81-3.29-2.94-5.34-4.25-8.36l-.28-.68c-.95-2.19-1.52-6.34-.5-8.6C360.28,286.2,362.89,284.83,365.61,284Z"/><path class="cls-8" d="M521.42,316h1.39c3.37,0,9.86,0,12.08,2.89,1,1.35.91,2.41.8,4a8.89,8.89,0,0,1-3.51,3.78c-3.45.61-8.65.49-11.67-1.53a5.78,5.78,0,0,1-2.83-4.25A39.4,39.4,0,0,1,521.42,316Z"/><path class="cls-8" d="M404.68,325.07a20.19,20.19,0,0,1,7.62.52c1.68.54,3.9,1.94,4.55,3.66.53,1.4.27,1.95-.22,3.25a12.91,12.91,0,0,1-5.83,3.34,23.92,23.92,0,0,1-7.05-.56,7,7,0,0,1-5.12-3.53,4.1,4.1,0,0,1,.14-2.38C400,327,402.36,326.05,404.68,325.07Z"/><path class="cls-23" d="M520.05,268.42a84.73,84.73,0,0,1,8.69,1.47c.77.18,3.08.95,3.81.69,1.56-.57,3.09-1.8,4.66-2.47-.62,2.14-1.75,4.12-.83,6.2,1.9.67,4.51-.56,6.44-1.13-1.76,5.92-4,10.21-8.47,14.56a27.8,27.8,0,0,0-4.14-9.24c-3.23-4.49-7-6.37-12.26-7.3a8.87,8.87,0,0,1,2.22-.31A10.22,10.22,0,0,0,520.05,268.42Z"/><path class="cls-23" d="M399.27,286.07l-.42-.34-1-.71a17.38,17.38,0,0,1-6.11-11.27,3.34,3.34,0,0,0,1.91.5,8.9,8.9,0,0,1,1.56-2.5l1.18.48a7,7,0,0,0,2.25,2.75c3.36-1.9,3.42-4.93,6.15-7.23l1.35.67a27.44,27.44,0,0,1,10.53-1.23c3.75.39,9,2.23,11.4,5.13-5.2-2.24-11-3.13-16.4-.85C405.29,274.18,401.87,279.9,399.27,286.07Z"/><path class="cls-29" d="M495.74,338.75l.65,0,.64.78a12.72,12.72,0,0,1-3.38,5.23A36,36,0,0,1,468.09,355c-10.36-.16-18.32-4.39-25.36-11.7-.72-1.22-1.51-2.22-1.29-3.7l1-.11,3.82,3.92c6.87,6.29,17,8.2,26,7.57A34.12,34.12,0,0,0,495.74,338.75Z"/><path class="cls-20" d="M417.41,238.2a24.55,24.55,0,0,1,6.28.76c2.34.74,5.53,2.32,6.38,4.84a7,7,0,0,1-.62,5.45c-2.69.93-5.59.5-8.4.35-5.29-.28-10.86-.8-16.05.5l-.6.17c-2.52.92-7.28,3.7-9.7,3.23l-.51-1.25a7.6,7.6,0,0,1,1.25-2.13C401.12,243.39,408.57,238.88,417.41,238.2Z"/><path class="cls-38" d="M364.79,306.88l.29.49a5.71,5.71,0,0,1-.64,4.53,15.54,15.54,0,0,1-6.22-2.31c-4.83-3-9.07-8.23-10.16-13.83-.68-3.5-.41-8.69,1.88-11.58a10.35,10.35,0,0,1,7.25-3.78c3.71-.2,5.79,1.16,8.42,3.59-2.72.84-5.33,2.21-6.56,5-1,2.26-.45,6.41.5,8.6l.28.68c1.31,3,3.44,5.07,4.25,8.36Z"/><path class="cls-38" d="M467.35,304.15c1.53-.12,3.73-.31,5.16.3,4.84,2.05,8.78,9.43,10.34,14.08.59,1.75,1.5,4.75.45,6.47-2.69,4.43-8.06,4.92-12.66,5.57a39.46,39.46,0,0,1-9.52-.82c-2.86-.7-6-2.07-7.49-4.81a8.09,8.09,0,0,1,0-6.08C456.28,311.94,460.61,307.14,467.35,304.15Z"/><path class="cls-24" d="M466.83,307.44a11.51,11.51,0,0,1,5.2.65,7.59,7.59,0,0,1,4.67,4.59c.8,2.05,1.09,5.42.09,7.4-1.54,3.05-3.86,3.67-7,4.53a19.85,19.85,0,0,1-4.68-.36,9.48,9.48,0,0,1-6.1-5,8.33,8.33,0,0,1,0-5.74C460.51,310.17,463.69,308.8,466.83,307.44Z"/><path class="cls-22" d="M518,271.2c5.27.93,9,2.81,12.26,7.3a27.8,27.8,0,0,1,4.14,9.24,27.54,27.54,0,0,0,0,4.81,25.45,25.45,0,0,1-2.72,11.95,20.35,20.35,0,0,1-12,10.25,21.17,21.17,0,0,1-15.32-1.59c-4.25-2.4-7.12-7.14-8.35-11.76a23.6,23.6,0,0,1,2.12-18,15.93,15.93,0,0,0,1.2-2.32l.2-.58,2.76-2.82C507,273,511.31,271.15,518,271.2Z"/><path class="cls-28" d="M506.72,286.42l.08.5c.29,1.87.34,2.92-.75,4.56-1.23,1.85-1.33,5.08-.93,7.23.35,1.93,2.1,3.43,3.7,4.41a8.23,8.23,0,0,0,6.42.53c2.36-.7,4.38-2.6,6.2-4.18l.71.28a8.2,8.2,0,0,0,.77,3.65,11,11,0,0,1-2.67,3.93c-1.72,1.7-4.56,3.23-7.06,3.12a13.85,13.85,0,0,1-9.32-4.78c-2.05-2.38-3.76-6.21-3.44-9.4C500.91,291.59,503.35,289.25,506.72,286.42Z"/><path class="cls-23" d="M506.72,286.42c2.94-1.59,5.59-2.72,9-1.57l1.91.9,0,.58-.45.12A6.16,6.16,0,0,0,513.6,289a5.18,5.18,0,0,0,.34,4.49,5.75,5.75,0,0,0,3.6,2.61c1.63.3,2.09-.11,3.46-.79a10.52,10.52,0,0,0,1.94-4,14.47,14.47,0,0,1,.22,11.59l-.24.54a8.2,8.2,0,0,1-.77-3.65l-.71-.28c-1.82,1.58-3.84,3.48-6.2,4.18a8.23,8.23,0,0,1-6.42-.53c-1.6-1-3.35-2.48-3.7-4.41-.4-2.15-.3-5.38.93-7.23,1.09-1.64,1-2.69.75-4.56Z"/><path class="cls-22" d="M399.27,286.07c2.6-6.17,6-11.89,12.45-14.6,5.41-2.28,11.2-1.39,16.4.85l.57.81,1.27,1.05a24.83,24.83,0,0,1,8.76,16.32,25.86,25.86,0,0,1-.46,7.5l-.16.79a23.73,23.73,0,0,1-10.34,14.91,20.91,20.91,0,0,1-15.49,2.61,19.35,19.35,0,0,1-11.55-8.56C396.15,300.08,397.46,294.18,399.27,286.07Z"/><path class="cls-28" d="M429.87,298.41c-.57,2.3-1.06,4.83-2.39,6.84a13.69,13.69,0,0,1-9.3,6c-2.57.45-5.75-.85-7.8-2.31a14.11,14.11,0,0,1-5.59-9.45,14.94,14.94,0,0,1,3-11.42c2.82-3.4,6.16-4.14,10.34-4.5-.57,1-.8,2-1.88,2.52-2.06,1-6.11,4-6.76,6.35a11.44,11.44,0,0,0,1.7,8.8,7.23,7.23,0,0,0,4.79,3.51,10.18,10.18,0,0,0,8.14-1.87,19,19,0,0,0,3.8-3.84Z"/><path class="cls-23" d="M418.15,283.58c4.3,1.43,8,3.38,10.12,7.69a18.17,18.17,0,0,1,1.6,7.14l-1.93.64a19,19,0,0,1-3.8,3.84,10.18,10.18,0,0,1-8.14,1.87,7.23,7.23,0,0,1-4.79-3.51,11.44,11.44,0,0,1-1.7-8.8c.65-2.32,4.7-5.3,6.76-6.35C417.35,285.55,417.58,284.62,418.15,283.58Z"/><path class="cls-22" d="M420.73,287.25a14.6,14.6,0,0,1,2.46-.36,5.48,5.48,0,0,1,3.12,2.61,4.54,4.54,0,0,1,.47,3.75c-.46,1.39-1.46,1.84-2.64,2.5a9.93,9.93,0,0,1-1.95.26,4.52,4.52,0,0,1-3.41-1.56,4.08,4.08,0,0,1-.92-3.15C418.07,289.23,419.23,288.42,420.73,287.25Z"/><path class="cls-20" d="M354.72,320.17c7.33,2.7,13.63,3.72,21.06.53,6.21,24,25.79,48.71,47,61.26,7,4.16,15.83,8.74,23.9,10.25,0,3.84.33,7.93,0,11.74l-12.83,2.22-12.69,2.25L402.78,413c-2.25.61-5.53,1.14-7.52,2.29a8.15,8.15,0,0,0-2.42,2.9L380.68,442c-7.66-5.39-14.17-11.78-16.88-21a35.41,35.41,0,0,1-.27-11.11c.46-2.7,1.67-5.21,2.25-7.88-6.37-3.81-12.67-7.88-16.92-14.16-12.93-19.12,7.23-34.39,10.08-52.68.53-3.42-.58-6.44-2.13-9.42C355.8,323.8,354.26,322.36,354.72,320.17Z"/><path class="cls-13" d="M446.68,392.21c12,3.18,33.32.83,33.32.83v10.17l13.56,2.46c3.48.81,9.2,1.38,12.15,3.05,5.33,2.64,21.26,5.46,23.89,9.53l13.57,23.68,5.77,11.95c3.16,6.9,6.26,14.17,10.34,20.57L565.15,492a55.77,55.77,0,0,1-9,4.17l3.18,6.47,6.81,16.14.4-.7c1.58-2.93,1.62-8.44,2.07-11.79L573,475.5c.9-6.39.8-14.64,3.55-20.51a11.22,11.22,0,0,1,6.89-6c3.1-1.05,7.2-.86,10.47-1l16.87,1L660,447l88,1,51,.22c3.11.11,6.21,0,9,1.46a12,12,0,0,1,5.79,7,11.66,11.66,0,0,1,0,5.09c-1.19,8.25-3.29,16.32-4.92,24.49L794,556l-8.18,38.53c-2,10.27-3.58,21.12-6.38,31.18a11.34,11.34,0,0,1-3.75,5.91l-4.58,3c-4.64.87-10,.39-14.8.41l-29.74,1-108.71-1L214,634.61c-1.08-1.64-.82-3.05-.86-4.94l-.22,0a5.71,5.71,0,0,0-.63-2.17c-.45-.83-1.2-.78-2.06-1l-.61-9.44.25-3.78a43.37,43.37,0,0,1-.35-14.2h44c1.4,3.73.56,10,.56,14l-.05.43,0,4.55h15v12c6.6,0,14,.79,20.24,0,3.26,1.22,8.61.51,12.21,1h16.37c3.07-.51,6.38-.22,9.38-.78a57.11,57.11,0,0,0,.39-7.63l.2-.68a29.4,29.4,0,0,0-.69-7.66,4.06,4.06,0,0,0-2.47-2.64l.43-.71c.67-2.08.19-7.1-1-8.74,1.18-3.49,3.15-7,4.74-10.3,0-1.83,1.62-5,2.26-6.77.77-3.54,1.62-7,2-10.59.36-3.16.27-6.59,1-9.66a3.2,3.2,0,0,0,.83-.47c.46-.51,1.05-3.36,1.28-4.12l4-12.25,10.9-30.43c3-8.44,5.77-17.31,9.6-25.41l-5.18-3.79L380.68,442l12.16-23.75a8.15,8.15,0,0,1,2.42-2.9c2-1.15,5.27-1.68,7.52-2.29l18.34-4.59,12.69-2.25L446.64,404C447,400.14,446.7,396.05,446.68,392.21Z"/><path class="cls-30" d="M370.48,622.42c2.63,3,4.62,5.09,8.78,5.38l8.88-.27.26,3.64c-8.86-1.53-18.57-1.1-27.53-1.12a4,4,0,0,1,.61-3c1.23-1.78,5-4.16,7.12-4.36a4.88,4.88,0,0,0,1.47-.18Z"/><path class="cls-9" d="M254.18,618,269,618l.15,12L254,629.93Z"/><path class="cls-40" d="M549.13,612.65c1.4,1.41,1.45,3.32,1.59,5.19-.82,1.7-1.39,3.07-3.3,3.77a16.66,16.66,0,0,1-4.75.39l-10.61,1H489l-20.73.19c-.28-2.93.21-6.38.33-9.35l4.16.16,31.88-1Z"/><path class="cls-22" d="M472.89,613l31.78-.1-.05.55c-.05.75-.09.46.19,1.11l-.65.44a15.39,15.39,0,0,0-3.22,3.82c-.42.58-1.7,2.82-2.13,3a17.56,17.56,0,0,1-2.08,0c-2.56,0-5.24-.09-7.79.14-2.65-.44-5.66,0-8.4-.34a28.23,28.23,0,0,0-2.32-6.65,25.32,25.32,0,0,1-5.3-.35,17.63,17.63,0,0,0-3.48-.35l-.05-.41A14.55,14.55,0,0,0,472.89,613Z"/><path class="cls-22" d="M468.21,622.73c-10,1.08-20.82.28-30.89.27l-52.53-.14c-3.47-.07-5.37-.28-7.8-3-1.66-1.86-1.93-3.45-1.81-5.88a5.22,5.22,0,0,1,1-.87c2.33-1.18,80.5-.17,92.37-.11C468.43,616.08,467.91,619.67,468.21,622.73Z"/><path class="cls-41" d="M209.49,600h44.2c1.35,3.18.54,9.22.54,13.15l-.23.42,1,4.4v12H213.09l-.22,0a5.67,5.67,0,0,0-.63-2.15c-.45-.82-1.19-.77-2-1l-.61-9.37.25-3.75A40.79,40.79,0,0,1,209.49,600Z"/><path class="cls-9" d="M208.8,614l45.2-.11,0,4.48c-4.36-.94-10-.34-14.48-.37l-31-.17Z"/><path class="cls-35" d="M209.47,600h44.24c1.36,3.62.54,9.66.54,13.59l-.05.42-44.38.11A43.1,43.1,0,0,1,209.47,600Z"/><path class="cls-26" d="M331.07,585c2.86,5.68,7.11,7.22,12.88,9.13,10.59,3.51,21.5,6.05,32.32,8.72,4.78,1.18,10.26,1.93,14.8,3.79a5.6,5.6,0,0,1-1.38,1.13c-1.17-.46-.79-.06-1.25-1.1a9.21,9.21,0,0,1-1.75,1.17c-3.76.85-15.54-1.32-16.91,3.32-1,3.38-.29,7.91.7,11.17l-.41.11a4.88,4.88,0,0,1-1.47.18c-2.11.21-5.89,2.58-7.12,4.36a4,4,0,0,0-.61,3H331.12l-3.92.17a57.11,57.11,0,0,0,.39-7.63l.2-.67a29.44,29.44,0,0,0-.69-7.67,4,4,0,0,0-2.47-2.63l.43-.71c.67-2.09.19-7.11-1-8.75,1.18-3.49,3.15-7,4.74-10.3C328.84,590,330.43,586.86,331.07,585Z"/><path class="cls-6" d="M329.34,607.23c1.15,7.35.74,15.34,1.34,22.82l-3.92.17a57.11,57.11,0,0,0,.39-7.63l.2-.68.56-.91c.47.74.14.45,1.09.76V620.5C329.66,616.19,329.24,611.64,329.34,607.23Z"/><path class="cls-6" d="M323.62,602.16a100.73,100.73,0,0,1,4.75-10.3c1.89,3.79.95,11.06,1,15.37s.33,9-.33,13.27v1.26c-.95-.31-.61,0-1.09-.76l-.55.91a29.84,29.84,0,0,0-.69-7.66,4.08,4.08,0,0,0-2.47-2.64l.43-.71C325.29,608.82,324.8,603.8,323.62,602.16Z"/><path class="cls-22" d="M581.6,458.46a6.6,6.6,0,0,1,3.56-4.35,43.39,43.39,0,0,1,5.2-2.11l21.33,1,38.13-1,115,1,28.71,0c3.49,0,9.34-.76,12.49.45a7.33,7.33,0,0,1,4,3.85,12.1,12.1,0,0,1,.63,3.68H582Z"/><path class="cls-42" d="M388.14,627l98.3,1,39.38-.09c6.8,0,13.85.31,20.63-.17a12,12,0,0,0,4.95-1.46c4.34-2.43,4.67-5.89,6-10.28l219.83.6c-1.09,4.45-1.73,10.18-6,12.77-2.54,1.54-8.26.84-11.17.82-6.52,0-13.71.51-20.17-.19H388.4Z"/><path class="cls-33" d="M526.86,509.64,556.18,496l3.18,6.48,6.81,16.13c.65,4.48-.42,9.13-1.14,13.55l-2.4,14.61-4.47,28.77-7.23,42.76c-.15-2-.21-4-1.67-5.45-.48-.72-.52-2.33-.66-3.23-1.51-.89-3.58-.56-5.34-.58l-12.76-.16-11.83-.56-5.62.22-.59-.34c-1.06-2.24.21-9.51.32-12.21l.76-2.17c.38-3,.07-6.47.14-9.54l.94-14.26,6.76-49.19c1.08-2.85,1.36-6.48,2.16-9.5C524.76,510,525.21,510.05,526.86,509.64Z"/><path class="cls-1" d="M513.54,594l.29.44c3.55,5.16,9.2,8.86,13.36,13.58-2.76.07-5.83-.13-8.52.48l-5.62.21-.59-.34c-1.06-2.24.21-9.5.32-12.21Z"/><path class="cls-38" d="M526.86,509.81l29.32-13.68,3.18,6.47,6.81,16.14c.65,4.47-.42,9.13-1.14,13.55l-2.4,14.61-4.47,28.77Z"/><path class="cls-8" d="M559.36,502.6l6.81,16.14c.65,4.47-.42,9.13-1.14,13.55l-2.4,14.61-.62-.18a3.59,3.59,0,0,1-.63-1.47c-.89-3.77.08-9.22-.18-13.25-.5-7.7-2.27-15.19-2.47-23C558.68,506.88,558.32,504.55,559.36,502.6Z"/><path class="cls-1" d="M384,505.2l6.4-16,2.24,14.38c2.16,10.42,12,20.6,20.63,26.11,16.68,10.63,34.1,12.56,53.39,12,7.2-.23,14.28-.61,21.31-2.32A71.84,71.84,0,0,0,509.57,530c4.15-2.74,7.85-6,11.81-9l-6.76,49.19-.94,14.25c-.07,3.08.24,6.52-.14,9.55l-.76,2.16c-.11,2.71-1.38,10-.32,12.21l.59.34a77.07,77.07,0,0,1-23.8-.66l-9.68,1h-4.45a54.71,54.71,0,0,1-7.89-.35c-2.17-.53-5-.22-7.3-.24-7.52,0-16.65.87-23.93-.93-6.71,1.11-13.24,1-20,1-8.36,0-16.69-.22-24.92-1.77-4.54-1.86-10-2.61-14.8-3.79-10.82-2.68-21.73-5.22-32.32-8.72-5.77-1.92-10-3.45-12.88-9.13.77-3.54,1.62-7,2-10.59.36-3.16.27-6.59,1-9.66a3.2,3.2,0,0,0,.83-.47c.46-.51,1.05-3.36,1.28-4.12l4-12.25,10.9-30.43c3-8.44,5.77-17.31,9.6-25.41l10.1,7.32C374.46,501.82,379.61,504.91,384,505.2Z"/><path class="cls-2" d="M483.44,590.9c7,.79,14.12.71,21.17.81,1.87,0,6-.38,7.59.29.34.14.53.5.8.75l0,3.36c-.11,2.71-1.38,10-.31,12.21l.59.34c-7.24,1.1-16.48.71-23.81.23.06-1.7-.73-3.62-1.23-5.25C486.93,599.28,485.2,595.11,483.44,590.9Z"/><path class="cls-24" d="M360.68,492.16l10.1,7.32c3.68,2.34,8.83,5.43,13.25,5.72l3.66.36.53,1.47c.91,3.13.55,6.94.6,10.19l.36,17.56,1.53,45.09,37.45,13.46c10.49-5.93,22.3-14.39,34.08-17.1,8.11,2.82,16.21,7.25,20.94,14.67,1.76,4.21,3.48,8.38,4.83,12.74.51,1.63,1.3,3.55,1.24,4.36l-9.68,1h-4.45a54.71,54.71,0,0,1-7.89-.35c-2.17-.53-5-.22-7.3-.24-7.52,0-16.65.87-23.93-.93-6.71,1.11-13.24,1-20,1-8.36,0-16.69-.22-24.92-1.77-4.54-1.86-10-2.61-14.8-3.79-10.82-2.68-21.73-5.22-32.32-8.72-5.77-1.92-10-3.45-12.88-9.13.77-3.54,1.62-7,2-10.59.36-3.16.27-6.59,1-9.66a3.2,3.2,0,0,0,.83-.47c.46-.51,1.05-3.36,1.28-4.12l4-12.25,10.9-30.43C354.07,509.13,356.85,500.26,360.68,492.16Z"/><path class="cls-43" d="M475.12,609l0-.77c.1-6.91-2.92-11.06-6.77-16.45,3.63,1.9,7.27,3.51,8.6,7.74l.26.83,2.34,8.68Z"/><path class="cls-2" d="M436,607.48l14.89-5c2.89-1.09,6.13-2.86,9.14-3.4a61.92,61.92,0,0,1,7.2,9.61c-2.17-.53-5-.22-7.3-.24C452.41,608.36,443.28,609.28,436,607.48Z"/><path class="cls-26" d="M388.22,507c.91,3.13.55,6.94.6,10.19l.36,17.56,1.53,45.09-17-5.67c-2.1-.67-5.72-1.22-7.34-2.61Z"/><path class="cls-1" d="M446.48,392.21c12,3.18,21.46,3.12,33.52.83l.07,10.17,13.3,2.46c3.48.81,9.2,1.38,12.15,3.05,5.32,2.64,21.25,5.46,23.88,9.53L543,441.93l5.76,11.95c3.16,6.9,6.26,14.17,10.34,20.57L565,492a55.48,55.48,0,0,1-9,4.17l-29.32,13.68c-1.64.4-2.09.4-3.31,1.64-.8,3-1.08,6.65-2.17,9.51-4,3-7.66,6.26-11.81,9a71.73,71.73,0,0,1-21.57,9.33c-7,1.71-14.11,2.09-21.31,2.32-19.29.61-36.7-1.32-53.39-12-8.65-5.51-18.47-15.69-20.62-26.11l-2.25-14.38-6.4,16c-4.41-.29-9.56-3.38-13.24-5.72l-10.1-7.32-5.18-3.79L380.49,442l12.15-23.75a8.25,8.25,0,0,1,2.42-2.9c2-1.15,5.27-1.68,7.53-2.29l18.34-4.59,12.68-2.25L446.45,404C446.82,400.14,446.5,396.05,446.48,392.21Z"/><path class="cls-22" d="M446.48,392.21c12,3.18,21.46,3.12,33.52.83l.07,10.17,13.3,2.46c3.48.81,9.2,1.38,12.15,3.05l.21,2.12c.63,9.4-4.48,20.25-10.61,27.18-7.55,8.54-18.19,13.06-29.47,13.66-10.33.55-21.7-2.11-29.5-9.26-10-9.2-14.55-20.59-15.22-34l12.68-2.25L446.45,404C446.82,400.14,446.5,396.05,446.48,392.21Z"/><path class="cls-38" d="M446.48,392.21c12,3.18,21.46,3.12,33.52.83l.07,10.17,13.3,2.46c-1.7,1.67-1.77,5.66-2.57,8-4,12-14.47,21-27.56,20.65-7.43-.18-15.18-3.22-20.31-8.69a30.29,30.29,0,0,1-5.85-8.92c-1-2.47-1.7-8.76-3.22-10.31l-.25-.27L446.45,404C446.82,400.14,446.5,396.05,446.48,392.21Z"/><path class="cls-39" d="M446.48,392.21c12,3.18,21.46,3.12,33.52.83l.07,10.17c-.34,3.31-.76,4.13-3.42,6.29a21.42,21.42,0,0,1-15.77,4.68c-4.18-.52-11.45-3-14-6.53-.94-1.28-.56-2.26-.4-3.7C446.82,400.14,446.5,396.05,446.48,392.21Z"/><path class="cls-2" d="M529.6,418.25l13.57,23.68,5.77,11.95c3.16,6.9,6.26,14.17,10.34,20.57L565.15,492a55.77,55.77,0,0,1-9,4.17l-29.32,13.68c-1.65.4-2.1.4-3.32,1.64-.8,3-1.08,6.65-2.16,9.51-4,3-7.66,6.26-11.81,9A71.84,71.84,0,0,1,488,539.29c-7,1.71-14.11,2.09-21.31,2.32-19.29.61-36.71-1.32-53.39-12-8.65-5.51-18.47-15.69-20.63-26.11l-2.24-14.38-6.4,16c-4.42-.29-9.57-3.38-13.25-5.72,2.27-4.67,5.47-9,7.85-13.63l12.57-27.21c1.66,2.93,2.19,7.56,3,10.86,2.72,11.31,6.15,21.51,13.12,31l1.87,2.53a63.66,63.66,0,0,0,42.52,22.64c14.06,1.49,29.86.43,42.32-6.74,13.24-7.6,24.58-20.28,28.65-35.21l.19-.71c3.22-11.83-.25-23.56.38-35.49C523.74,438,527.11,427.45,529.6,418.25Z"/><path class="cls-31" d="M557.8,615.37c-.13-3.41.73-7.26,1.23-10.67l3-19.09,11.07-70.06L579,475.62l1.9-12a33.46,33.46,0,0,1,.78-5.09l.36,1.5,228.26.59L777.89,616Z"/><path class="cls-22" d="M688.59,515.68a21.31,21.31,0,0,1,9.11,2.05,19.53,19.53,0,0,1,9.49,10.43l.19.59.44,1.3c1.4,5.1-.11,11.08-2.92,15.41-4,6.15-10.37,9.58-17.38,11.09-3.38,0-6.45.13-9.61-1.31a19,19,0,0,1-10.11-10.56l-.24-.68a14.38,14.38,0,0,1-.77-2.75,21.6,21.6,0,0,1,4.45-16.19A25.65,25.65,0,0,1,688.59,515.68Z"/></svg>