<svg id="Layer_1" data-name="Layer 1" xmlns="http://www.w3.org/2000/svg" xmlns:xlink="http://www.w3.org/1999/xlink" viewBox="0 0 1024 1024"><defs><style>.cls-1{fill:#171826;}.cls-2{fill:#1f0d0f;}.cls-3{fill:#7b4749;}.cls-4{fill:#335475;}.cls-5{fill:#644354;}.cls-6{fill:#aed5e4;}.cls-7{fill:#090808;}.cls-8{fill:#68b9ce;}.cls-9{fill:#ac78ad;}.cls-10{fill:#f4b457;}.cls-11{fill:#202032;}.cls-12{fill:#9e653a;}.cls-13{fill:#243852;}.cls-14{fill:#a0dee1;}.cls-15{fill:url(#linear-gradient);}.cls-16{fill:#f4f1f2;}.cls-17{fill:#f34b1e;}.cls-18{fill:#f49131;}.cls-19{fill:#8a5e6b;}.cls-20{fill:#825e91;}.cls-21{fill:#e26f6a;}.cls-22{fill:#66926e;}.cls-23{fill:#626c48;}.cls-24{fill:#fdc9aa;}.cls-25{fill:#fea2a1;}.cls-26{fill:#654072;}.cls-27{fill:#2c2d3e;}.cls-28{fill:#9eba89;}.cls-29{fill:#503358;}.cls-30{fill:#9e9aa5;}.cls-31{fill:#6d9092;}.cls-32{fill:#6a381e;}.cls-33{fill:#9b643b;}.cls-34{fill:#4a8070;}.cls-35{fill:url(#linear-gradient-2);}.cls-36{fill:#4ba48c;}.cls-37{fill:url(#linear-gradient-3);}.cls-38{fill:#62280c;}.cls-39{fill:#e58f7e;}.cls-40{fill:#3f130a;}.cls-41{fill:url(#linear-gradient-4);}.cls-42{fill:#126346;}.cls-43{fill:url(#linear-gradient-5);}.cls-44{fill:url(#linear-gradient-6);}.cls-45{fill:#437da1;}.cls-46{fill:#37505b;}.cls-47{fill:#f7476d;}.cls-48{fill:#26bd93;}.cls-49{fill:#d12453;}.cls-50{fill:#aa1a4b;}.cls-51{fill:#0f4b37;}.cls-52{fill:#5d5d79;}.cls-53{fill:url(#linear-gradient-7);}.cls-54{fill:#a87476;}.cls-55{fill:url(#linear-gradient-8);}</style><linearGradient id="linear-gradient" x1="74.41" y1="1572.6" x2="56.05" y2="1577.1" gradientTransform="matrix(1, 0, 0, -1, 206, 2164)" gradientUnits="userSpaceOnUse"><stop offset="0" stop-color="#daf0f4"/><stop offset="1" stop-color="#fff"/></linearGradient><linearGradient id="linear-gradient-2" x1="189.16" y1="1334.13" x2="189.2" y2="1325.53" gradientTransform="matrix(1, 0, 0, -1, 206, 2164)" gradientUnits="userSpaceOnUse"><stop offset="0" stop-color="#497d6d"/><stop offset="1" stop-color="#53a9af"/></linearGradient><linearGradient id="linear-gradient-3" x1="340.18" y1="1284.23" x2="326.15" y2="1335.58" gradientTransform="matrix(1, 0, 0, -1, 206, 2164)" gradientUnits="userSpaceOnUse"><stop offset="0" stop-color="#3a1600"/><stop offset="1" stop-color="#714320"/></linearGradient><linearGradient id="linear-gradient-4" x1="106.9" y1="1876.82" x2="125.13" y2="1875.36" gradientTransform="matrix(1, 0, 0, -1, 206, 2164)" gradientUnits="userSpaceOnUse"><stop offset="0" stop-color="#efa831"/><stop offset="1" stop-color="#f39045"/></linearGradient><linearGradient id="linear-gradient-5" x1="175.47" y1="1847.24" x2="228.34" y2="1822.96" gradientTransform="matrix(1, 0, 0, -1, 206, 2164)" gradientUnits="userSpaceOnUse"><stop offset="0" stop-color="#f99f6d"/><stop offset="1" stop-color="#ffd4ae"/></linearGradient><linearGradient id="linear-gradient-6" x1="201.32" y1="1852.69" x2="223.42" y2="1838.35" gradientTransform="matrix(1, 0, 0, -1, 206, 2164)" gradientUnits="userSpaceOnUse"><stop offset="0" stop-color="#214d49"/><stop offset="1" stop-color="#267361"/></linearGradient><linearGradient id="linear-gradient-7" x1="393.29" y1="1538.93" x2="400.02" y2="1592.21" gradientTransform="matrix(1, 0, 0, -1, 206, 2164)" gradientUnits="userSpaceOnUse"><stop offset="0" stop-color="#7c7590"/><stop offset="1" stop-color="#8f8d9b"/></linearGradient><linearGradient id="linear-gradient-8" x1="109.55" y1="1504.71" x2="17.31" y2="1336.49" gradientTransform="matrix(1, 0, 0, -1, 206, 2164)" gradientUnits="userSpaceOnUse"><stop offset="0" stop-color="#4e3546"/><stop offset="1" stop-color="#8a5c68"/></linearGradient></defs><path class="cls-1" d="M804.24,200.15l-.14-5c3.07-.86,5.55-2.66,8.08-4.54-2.1,3.3-5.29,6-8.07,8.77,5-2.12,7-5.08,9.84-9.58l-.54,2.1a18.47,18.47,0,0,1-2.9,5.18l0,.71,1.54.4v.6Z"/><path class="cls-2" d="M794,193.74l.26-.47c2.08-3.84,2.79-7.24,3.8-11.42l.59.65-.44,4.75.6.47a17.35,17.35,0,0,0,1.25-2.28l.6.31a32.39,32.39,0,0,1-3,9.25l-4.44,0Z"/><path class="cls-3" d="M785.43,195.09c.66-.12,1.61-.11,2.11-.57a113.27,113.27,0,0,0-1.34-22.08l-.08-.48a31.68,31.68,0,0,1,2.83,6.86c.64,3.36,1.23,6.68.59,10.09-.36,1.91-1.12,3.91-1.13,5.85l4.76.24,4.44,0c1.75,0,4.68-.44,6.08.54C797.75,195.36,791.29,195.93,785.43,195.09Z"/><path class="cls-4" d="M248.17,559.11c3.18-.33,6.6-.13,9.79-.16,5.24-.06,10.51-.26,15.74.08v.58l-1.67.72-.64.16c-6.86,1.75-16,1.43-23.11,1.28C247.66,560.61,247.89,560.41,248.17,559.11Z"/><path class="cls-1" d="M789,178.72l.62-1.61c1.1-.63,1.18-.81,2.46-.41a8.28,8.28,0,0,1,2.3,1.41c.42,1.33,0,2.4,0,3.75-.05,2.35.35,4.17-.19,6.5a11,11,0,0,0-.18,5.24l-.81,1.3-4.76-.24c0-1.94.77-3.94,1.13-5.85C790.18,185.4,789.59,182.08,789,178.72Z"/><path class="cls-5" d="M778.23,187.89c-1.42-6.27-5.13-11.61-5.9-18.19-1-8.9,3.29-21,8.86-28l.54.69c-4.29,8.77-9.92,20.9-6.35,30.76l4.09,9.19C779.3,184.27,779.34,186.19,778.23,187.89Z"/><path class="cls-6" d="M262.36,595l-2-3.74c-2.12-4.58-2.51-12.84-2.55-17.94a12.2,12.2,0,0,1,.31-4.35l18,.06a23.68,23.68,0,0,1,5.94,1.23l2.51.44.65,1.18-7.07.17c-5.8-.05-12.29.41-18-.55-.08,6.6-.45,13.75,2.43,19.85Z"/><path class="cls-2" d="M781.73,142.27c.78,2-2.39,16.38-2.78,19.57a51.68,51.68,0,0,0-.27,7c.06,5,2.6,9.76,4.28,14.41a34.15,34.15,0,0,1,1.94,11.54l-2.42.17-3.58,0-.67-7.15c1.11-1.7,1.07-3.62,1.24-5.59L775.38,173C771.81,163.17,777.44,151,781.73,142.27Z"/><path class="cls-5" d="M779.47,182.22a52.5,52.5,0,0,1,3,12.78l-3.58,0-.67-7.15C779.34,186.11,779.3,184.19,779.47,182.22Z"/><path class="cls-7" d="M294.45,557.48l2.39.07c1.11,2.42.2,10.52-.32,13.39-1,12.19-1.61,24.06-5.51,35.75l-2.2,4.12a10.84,10.84,0,0,1-2.76,2.19H268s-3.49.7-4.42.37-2.4-2-3.16-2.67L259,608.39c-.6-1-1.29-1.6-1-2.78a38.71,38.71,0,0,0,5.25,6.5c1,0,.82.08,1.5.75.73-.73,2.78-.89,4-1.75-.42-.42-.93-.39-1.5-.5l-1.25-.25a10.22,10.22,0,0,0-2.13-.53l-1-.1.75-1.25-1.37-1.12-2.75-2.25.5-.84c2,2.09,2.89,2.82,5.75,2.91.87.75,2.35.43,3.5.43l.62.5c1-.79,2.13-.5,3.38-.5,1.75,1.17,7.88.5,10.25.5l.5-.5a9.8,9.8,0,0,0,2.75-.25l2.25-6.5c.35-1.06.14-1.28,1.12-1.88l.13,2.63-.38.87a26.54,26.54,0,0,1-1.57,5.28l-.43.72,1.25.13.63-1.25a4.23,4.23,0,0,0,.9-2.37l0-.63.38-.75.12-.75c.3-.91.5-.54.5-1.5l-.12-.75c.88-.71.59-.24.75-1.5a11.19,11.19,0,0,1-.38-6.63,10.06,10.06,0,0,0,.82-2.54,13.21,13.21,0,0,1,.31-2.08l1.12-.63.13-2.62c.42-1.5.43-.25.33-1.67a4.2,4.2,0,0,1,0-1.45l.07-.63.13-1.75c.37-2.06,0-4.62.5-6.5.45-1.66.29-3.08.62-4.72l.13-.53.12-1a53.64,53.64,0,0,0,.13-7.36h-11.5a6.62,6.62,0,0,1-3.43,2l-.57.1-.88,1.37a11.19,11.19,0,0,1-.38,3.92l-.24.46,1.12,1.37,3.13.13a25.9,25.9,0,0,0,6.12.62l.13,3.13a13.59,13.59,0,0,0-.38,5.25,5.29,5.29,0,0,1-.12,2.5c-.72,1.74-.15,3.19-.69,5-.27.91-.16.15-.26,1.16a6.17,6.17,0,0,1-.18,1.27l-.12.61c-.18,1.14,0,.69-.29,1.47l-.75,2v.75l-2,2.75v2.25l-2,1.25v.75L279.66,602H279l-.76,1h-.85a6.82,6.82,0,0,1-5.57,1.27,4.9,4.9,0,0,1,2.25-.5,21.46,21.46,0,0,0,8.32-6.51l0-.83c.06-1.3.3-1.21,1.13-2l-.13-1.2a6.8,6.8,0,0,1-3.15,3l-.4.18,2.93-4.16a25.65,25.65,0,0,0,2.9-9.51c.23-2.71,1.14-9.27-.46-11.2l-.67-1.2-2.54-.44a24.33,24.33,0,0,0-6-1.25l3-.15a16.67,16.67,0,0,1,.84-8.57,14.49,14.49,0,0,0,1.93-1.3C283.34,557.32,291.69,557.73,294.45,557.48Z"/><path class="cls-8" d="M279,569l9.89.16c-.49,8.54.06,21.77-6.47,28.22l0-.82c.06-1.28.29-1.19,1.11-2l-.13-1.17a6.7,6.7,0,0,1-3.11,3l-.39.19,2.89-4.11a25.37,25.37,0,0,0,2.86-9.39c.23-2.66,1.13-9.13-.46-11l-.65-1.18-2.51-.44a23.68,23.68,0,0,0-5.94-1.23Z"/><path class="cls-9" d="M318.15,359.14l1.92,3.61a101.27,101.27,0,0,0-14.47,5.73c-6.27,3.28-11.76,7.7-17.18,12.19a69.07,69.07,0,0,0-11.61,12.19,92.3,92.3,0,0,0-11,19.81c-.93,2.32-3.19,10.72-4.62,11.58.78-12.21,6.08-25.37,13.11-35.31C284.73,374.17,299.94,362.21,318.15,359.14Z"/><path class="cls-10" d="M203.64,561.32c-.08-1-.78-.87-1-1.59-.3-1,0-3.45,0-4.55a13.55,13.55,0,0,0,3.87.9l.46,0a19,19,0,0,1,9.61,10.5l.37,1.24.16.54c1.18,4.5,0,10.28-2.33,14.19-3,5-7.77,7.68-12.78,10.35l-.13-9.13a80.35,80.35,0,0,1-.11-9.57,107,107,0,0,1,.28-12.79Z"/><path class="cls-11" d="M202.27,583.81a80.35,80.35,0,0,1-.12-9.57,111.3,111.3,0,0,1,.28-12.79l1.6-.13,2.87,2.53a11.1,11.1,0,0,1,3.86,7.76,12.9,12.9,0,0,1-3,8.7A14.84,14.84,0,0,1,202.27,583.81Z"/><path class="cls-12" d="M464.59,158.71c26.78,4.87,51.83,22.36,67.25,44.62,5.6,8.08,11.31,17,14.81,26.21l-5.12-2-.28-.65c-1.9-4.15-5.81-8.32-8.53-12-17.66-24-40.28-43.73-68.18-54.7.66-.43.4-.15.76-.83Z"/><path class="cls-13" d="M262.57,591.78c-2.88-6.1-2.51-13.25-2.43-19.85,5.7,1,12.19.51,18,.55l7.07-.17c1.59,1.91.69,8.38.46,11.05a25.49,25.49,0,0,1-2.86,9.39l-2.89,4.1.39-.18a6.72,6.72,0,0,0,3.11-3l.13,1.18c-.82.82-1.05.73-1.11,2l0,.82a21.1,21.1,0,0,1-8.2,6.42l-.46-.08c-5.06-1.11-8.69-4.34-11.44-8.6Z"/><path class="cls-14" d="M262.57,591.78c2.86,4.42,6,6.7,10.57,9.11l6.77-4,.39-.18a6.72,6.72,0,0,0,3.11-3l.13,1.18c-.82.82-1.05.73-1.11,2l0,.82a21.1,21.1,0,0,1-8.2,6.42l-.46-.08c-5.06-1.11-8.69-4.34-11.44-8.6Z"/><path class="cls-15" d="M276.75,594.8a10.63,10.63,0,0,1-2.62.93,7.27,7.27,0,0,1-5.8-1.4,12.91,12.91,0,0,1-5-8.72c-.25-2.22-.22-3,1.22-4.63l3.52,6.42c.94,2,2.77,3.27,4.43,4.58a15.84,15.84,0,0,0,4.91-4c1.42,1.54,1.82,1.23,3.84,1.33l0,1A19.25,19.25,0,0,1,276.75,594.8Z"/><path class="cls-1" d="M285.2,572.31c1.59,1.91.69,8.38.46,11.05a25.49,25.49,0,0,1-2.86,9.39l-1.56-2.42,0-1c-2-.1-2.42.21-3.84-1.33a15.84,15.84,0,0,1-4.91,4c-1.66-1.31-3.49-2.63-4.43-4.58L264.57,581c.59-1.2.41-3.49.46-4.88,2.77,0,10.47.86,12.5-.49l-2-1.5a23.84,23.84,0,0,1-6.75.13c-1.52-.14-2.71.21-4.25-.13l-.12-.79a3.59,3.59,0,0,1,1.12-.22c2.8.21,5.77,1,8.61.3a11,11,0,0,1,2.86-.3c.8,0,.38.12,1.12-.62Z"/><path class="cls-16" d="M277.43,588c.73-2.17,1.45-5.85,3.36-7.12l1.25.3c.9,1.75.41,4.94-.18,6.8l-.59,1.35C279.25,589.2,278.85,589.51,277.43,588Z"/><path class="cls-10" d="M177.12,540.59l.31,0c3.7.59,7.72.3,11.48.28,4.38,0,9.05-.41,13.38.14a50.46,50.46,0,0,1,.08,10.78l.15,1.19-25.88,1H135.86l.14-2,.06-11,19-.15c4.79,0,9.79-.31,14.55.21,2,.67,4.4.3,6.46.21Z"/><path class="cls-17" d="M135.75,552h52.7s9.47-.23,13.68.71l.15.29-25.64,1-40.78-.08Z"/><path class="cls-18" d="M188.66,541.26c4.38,0,9.05-.43,13.38.14a56.26,56.26,0,0,1,.09,11.31c-4.21-.94-9.3-.18-13.68-.69l1.32-.66A38.69,38.69,0,0,0,188.66,541.26Z"/><path class="cls-8" d="M231.85,485.64l4,8.36-58.85.37-.05,49-.31,0-1.1.75c-2.09.1-4.55.5-6.54-.24l-.09-49.81c-6.48-.68-13.5-.1-20-.1H106.59l4.28-9h56.3l39.22,1,15.3.07C225.08,486.1,228.51,486.36,231.85,485.64Z"/><path class="cls-16" d="M168.91,494H177v47l-1.15.71c-2.18.1-4.76.48-6.84-.22Z"/><path class="cls-14" d="M111.69,485.84,147.32,410l17.41.05,4,.34.11.33-.49.62c-1.25,1.73-1.45,4.45-1.88,6.54l-3.38,18.47L154.72,485l-7.44,1Z"/><path class="cls-19" d="M141.84,610l51.5,1L240,611l.17,19L112,630V611Z"/><path class="cls-19" d="M207.21,658.66l20.07,3.94.58,1.32-2.72,14.44-13.27,56.06L184.3,854.47,179,878l-8.59,0,4-22.58,23.39-140,7.27-44Z"/><path class="cls-10" d="M176.64,554h25.64a16.45,16.45,0,0,1,5.08,2.12l-.46,0a13.55,13.55,0,0,1-3.87-.9c0,1.1-.3,3.59,0,4.55.23.72.93.62,1,1.59l-1.6.13a111.3,111.3,0,0,0-.28,12.79c0,3.11-.15,9.57-.15,9.57l.13,9c-1.23,6.66-2.24,13.43-8.26,17.57l-1,.6-52.49.12a21.71,21.71,0,0,1-3-7.69L134.31,553Z"/><path class="cls-18" d="M175.43,554H202a19.05,19.05,0,0,1,5.27,2.18l-.47,0a14.84,14.84,0,0,1-4-.9c0,1.09-.31,3.59,0,4.56.23.72,1,.62,1,1.6l-1.66.12c-.53,4.2-.28,8.6-.29,12.83A78.76,78.76,0,0,0,202,584l.13,9.16c-1.25,6.55-2.27,13.22-8.4,17.29l-1,.59-53.39.12a20.87,20.87,0,0,1-3-7.57c6.45-.21,46.64.34,49.64-1.54,1.6-1,2.26-3.89,2.6-5.56l.18-.88c1.24-6,1.2-12.06,1.27-18.13l0-23Z"/><path class="cls-11" d="M287,186.27l.35-51.27L306,135l-.14,125L157,260.06l.07-10.06H286Z"/><path class="cls-6" d="M164.76,410l30.1-.24,36.28,74.82c-3.27.7-6.63.45-9.95.42l-14.8,1H147.28l7.35-.12,8.52-49.25,3.42-18.7c.43-2.12.64-4.87,1.9-6.63l.49-.62-.1-.34Z"/><path class="cls-5" d="M785,647.72c2.69-2.05,25.33-1.41,30.14-1.48l15.27,78.18L856,856.73l4.24,21.38a45.92,45.92,0,0,1-7.34.63L846,854.46,813.43,744.23Z"/><path class="cls-20" d="M320.07,362.75l2.14,4.08,2.8,5.34c-2.91,1.89-6.08,3.49-8.78,5.66-11.15,9-17.66,22.27-20.6,36-2.75,12.88-1.51,25.18.32,38.07l5.86,34.62,7.82,46.3c2.06,11.74,4.74,24,4.82,36a7.62,7.62,0,0,0,2.48.9l-3.68.42a30.89,30.89,0,0,0-16.88,1.59c.51-2.83,1.4-10.82.3-13.21l-2.35-.07c-6.38-.64-13.37-.07-19.83-.06L269.32,514l-4.64-41.81L261.87,448c-.88-7.35-2.5-16.52-.7-23.78,1.43-.86,3.69-9.26,4.62-11.58a92.3,92.3,0,0,1,11-19.81,69.07,69.07,0,0,1,11.61-12.19c5.42-4.49,10.91-8.91,17.18-12.19A101.27,101.27,0,0,1,320.07,362.75Z"/><path class="cls-4" d="M156.8,251l-9.8.06L146.94,121,286,120.9l1,65.37V250Z"/><path class="cls-16" d="M240.36,180.61a7.66,7.66,0,0,1,4.34-.24,6.11,6.11,0,0,1,3.26,2.7,6,6,0,0,1,.51,4.93c-.54,1.94-1.73,2.88-3.43,3.81a9.12,9.12,0,0,1-2,.35,5.81,5.81,0,0,1-4.8-2,6.34,6.34,0,0,1-1.31-5C237.46,182.83,238.46,181.82,240.36,180.61Z"/><path class="cls-21" d="M176.33,211.61a9.63,9.63,0,0,1,3.21-.3,5.34,5.34,0,0,1,3.57,2.22,6.9,6.9,0,0,1-3,9.58,10.67,10.67,0,0,1-2.32.28,6.16,6.16,0,0,1-4.55-2.74,6.28,6.28,0,0,1-.85-5.23C173,213.36,174.5,212.49,176.33,211.61Z"/><path class="cls-16" d="M205.15,178.11a6.7,6.7,0,0,1,2.78-.14,6,6,0,0,1,3.93,2.91,6.73,6.73,0,0,1,.51,5.44c-.73,2-2.22,2.69-4,3.6a18.17,18.17,0,0,1-3.13-.09,5.21,5.21,0,0,1-3.53-2.06,6.58,6.58,0,0,1-.69-5.27A7.22,7.22,0,0,1,205.15,178.11Z"/><path class="cls-16" d="M174.4,144.61a9.22,9.22,0,0,1,1.82,0,5.77,5.77,0,0,1,4.46,2.3,6.58,6.58,0,0,1,1,5.25c-.7,2.27-2.06,3.13-4.1,4.14a13.86,13.86,0,0,1-3.75,0,6.18,6.18,0,0,1-3.54-2.95,6.67,6.67,0,0,1-.18-5.41C171,146.08,172.55,145.24,174.4,144.61Z"/><path class="cls-10" d="M246.48,144.61a8,8,0,0,1,3.44-.07,6.16,6.16,0,0,1,3.53,2.89,6.45,6.45,0,0,1,.25,4.81,7,7,0,0,1-4.16,4.3,7.22,7.22,0,0,1-3.1.11,6.66,6.66,0,0,1-4-3.47,6.3,6.3,0,0,1-.26-5C243,146.26,244.71,145.34,246.48,144.61Z"/><path class="cls-10" d="M253,211.11a6.4,6.4,0,0,1,3.1.72,6.18,6.18,0,0,1,2.94,3.95,7.8,7.8,0,0,1-.86,5.52,6,6,0,0,1-4.12,2.59,6.9,6.9,0,0,1-2.86-.25,6.1,6.1,0,0,1-3.57-3.79,7,7,0,0,1,.27-5.32C249,212.5,250.83,211.64,253,211.11Z"/><path class="cls-22" d="M325,372.17a112.47,112.47,0,0,0,17,21.73c2.58,2.58,5.16,5.36,8.27,7.29a101.68,101.68,0,0,0,19.56,14.37c3,1.7,6.21,3,9.15,4.72l17.19-5.55c5.37-1.44,15.82-1.85,15.82-1.85l1-7.51V393.59a108.92,108.92,0,0,0,29.9,5.24l.25,13.74.18.18A41.34,41.34,0,0,1,464.57,420c.68.35,1.94.78,2.36,1.39a60.82,60.82,0,0,1,13.65,13.29l5.51,7.57,23.73,41.5a38.46,38.46,0,0,1-10.34,11l-.16.57-13.91,6.87c-2.24,4.5-4.32,9-7.3,13-4.86,8.67-6.12,21.17-7.21,30.93a104.19,104.19,0,0,0-1.1,13.63c8.56,3.65,19.27,12.33,24.41,20.09,1,1.56,2.29,3.1,2.59,5-.82,1.56-1.43,1.71-3.08,2.22L487.59,589a8.71,8.71,0,0,1-3.8.32l-3.43-2.75,1.45,2.55c-1.37,1.14-5.9,1-7.77.89l-.75-.1c-1.7-.23-3.78-.18-5.17.9l-2.95.07c-5.41-.19-10.39-.26-15.7.88-1,2.35-1.58,6.49-.6,8.87a5.55,5.55,0,0,0,1.95,2.47,43.67,43.67,0,0,0,3.54,4l.81.89h-38l-.3,2.41-.44,0c-2.24.47-7.35-.45-7.35-.45l-13.34,1-53.64-1L311,611H288.76l2.17-4c3.85-11.53,4.46-23.23,5.44-35.26a30.89,30.89,0,0,1,16.88-1.59l3.68-.42a7.62,7.62,0,0,1-2.48-.9c-.08-11.94-2.76-24.22-4.82-36l-7.82-46.3L296,451.94c-1.83-12.89-3.07-25.19-.32-38.07,2.94-13.77,9.45-27.06,20.6-36C318.93,375.66,322.1,374.06,325,372.17Z"/><path class="cls-23" d="M383.54,477l.91,1.82c1.19,3.7.75,8,.65,11.88-.57,22.33-5.42,45.37-11.08,67l-17.46-2.94.14-.43c.86-3.09.79-6.61,1-9.8l1.41-16.15,1.33-11.24c.26-1.85.9-4.17.77-6a3.74,3.74,0,0,0-.63-1.71l.49-1.48c.59-.41,1.91-4.26,2.31-5.15a28.57,28.57,0,0,1,7.18,2.09l.72.37c2.47-1.38,8.11-18.28,9.27-21.61C381.2,481.8,382,478.12,383.54,477Z"/><path class="cls-24" d="M340.68,492.29a9.64,9.64,0,0,1,3.42,2l19.29,8.5c-.4.89-1.72,4.74-2.31,5.15l-.49,1.48a3.74,3.74,0,0,1,.63,1.71c.13,1.85-.51,4.17-.77,6l-1.33,11.24-1.41,16.15c-.22,3.19-.15,6.71-1,9.8l-.14.43L374,557.69l60.66,9.1c2.09.26,7.1,1.6,9.05,1.19.83-.17,3-1.92,3.83-2.49,6.64-4.55,14.05-7.52,22.24-5.72,8.56,3.65,19.27,12.33,24.41,20.09,1,1.56,2.29,3.1,2.59,5-.82,1.56-1.43,1.71-3.08,2.22L487.59,589a8.71,8.71,0,0,1-3.8.32l-3.43-2.75,1.45,2.55c-1.37,1.14-5.9,1-7.77.89l-.75-.1c-1.7-.23-3.78-.18-5.17.9l-2.95.07c-5.41-.19-10.39-.26-15.7.88-1,2.35-1.58,6.49-.6,8.87a5.55,5.55,0,0,0,1.95,2.47,43.67,43.67,0,0,0,3.54,4l.81.89h-38l-.3,2.41-.44,0c-2.24.47-7.35-.45-7.35-.45l-13.34,1H342.11l10-36.85-20.95-4.24c-3.28-1-6.5-2.94-8-6.16-1.41-3-.73-6.82-.39-10C324.92,532.61,333.2,512.06,340.68,492.29Z"/><path class="cls-25" d="M344.1,494.27l19.29,8.5c-.4.89-1.72,4.74-2.31,5.15C355.81,505.57,347.07,499.2,344.1,494.27Z"/><path class="cls-26" d="M360.59,509.4a3.74,3.74,0,0,1,.63,1.71c.13,1.85-.51,4.17-.77,6l-1.33,11.24-1.41,16.15c-.22,3.19-.15,6.71-1,9.8l-.14.43L347,553.34c1.62-4.47,2.52-9.38,3.73-14C353.32,529.43,356.33,518.77,360.59,509.4Z"/><path class="cls-23" d="M352.08,574.15l25.28,4.11,37.91,3.14L434.35,583a88,88,0,0,1,8.92.83,15.32,15.32,0,0,1,4.1,2.06c5.12,2.94,8.14,4.79,14.17,4.45a2.1,2.1,0,0,0-.13-2c1.35.3,2.66,1.64,3.76,2.5-5.41-.19-10.39-.26-15.7.88-1,2.35-1.58,6.49-.6,8.87a5.55,5.55,0,0,0,1.95,2.47,43.67,43.67,0,0,0,3.54,4l.81.89h-38l-.3,2.41-.44,0c-2.24.47-7.35-.45-7.35-.45l-13.34,1H342.11Z"/><path class="cls-1" d="M415.2,597.27c1.55,2.47,1.8,4.36,2.12,7.23l-.14,3.74-.3,1.72-.44,0-7.74,0,.29-5a44.85,44.85,0,0,0,2.87-7.08l.28-.17C413.17,597.5,414.13,597.57,415.2,597.27Z"/><path class="cls-1" d="M415.2,597.72c1.55,2.47,1.8,4.36,2.12,7.23a25.35,25.35,0,0,0-8.33.46,44.85,44.85,0,0,0,2.87-7.08l.28-.17C413.17,598,414.13,598,415.2,597.72Z"/><path class="cls-7" d="M361.88,596c1.65-.91,3.74-2.38,5.57-2.79,4.2-.94,10-.17,14.42-.17l18.73,0c2.69,0,6.34-.39,8.92.28s4.49,2.64,6.07,4.69c-1.08.3-2.06.24-3.11.44l-.28.18c-4.75.2-10-.51-14.8-.57l-21.2-.21c-3.56,0-7.6.22-11.11-.34A6.6,6.6,0,0,1,361.88,596Z"/><path class="cls-27" d="M409,610l-33.17,0c-5.54,0-11.61.49-17.08-.23a15.41,15.41,0,0,1-.3-9.95c.71-2.08,1.6-3.65,3.57-4.67a6.6,6.6,0,0,0,3.2,1.48c3.5.56,7.53.3,11.08.34l21.14.21c4.83,0,10,.76,14.76.57a45.33,45.33,0,0,1-2.91,7.16Z"/><path class="cls-28" d="M413,393.59a108.92,108.92,0,0,0,29.9,5.24l.25,13.74.18.18A41.34,41.34,0,0,1,464.57,420c.68.35,1.94.78,2.36,1.39a60.82,60.82,0,0,1,13.65,13.29l5.51,7.57,23.73,41.5a38.46,38.46,0,0,1-10.34,11l-.16.57-13.91,6.87c1.17-6,2-10.8,1.58-17l-10.87,3.31c-23.68,5.83-53.9,7.88-77.06-1.4-5.27-2.11-9.79-5.31-14.61-8.22l-.91-1.82.25-.35c.9-1.59,1-4.7,1.36-6.56,2.59-13,4.55-26.48.93-39.51l-.21-.75a7.49,7.49,0,0,0-1.53-3.29c-2.72-3.17-7.36-3.05-11.2-3.47l5.85-2.82,17.19-5.55A56.76,56.76,0,0,1,412,412.88l1-7.51Z"/><path class="cls-16" d="M409.86,414.36a7.3,7.3,0,0,1,5.13,1.75,27.49,27.49,0,0,0,20.19,4.8c4.11-.71,6.32-3.38,8.9-6.37l.32.4c1.57,2.15,1.86,5.61,1.37,8.17s-3.29,4.93-5.56,6.1c-5.11,2.64-13.64,2.26-18.92.28-4.79-1.8-9.86-5.28-11.79-10.22C408.72,417.27,409,416.2,409.86,414.36Z"/><path class="cls-24" d="M413,393.59a108.92,108.92,0,0,0,29.9,5.24l.25,13.74.18.18.75,1.79c-2.58,3-4.79,5.66-8.9,6.37a27.49,27.49,0,0,1-20.19-4.8,7.3,7.3,0,0,0-5.13-1.75,4,4,0,0,1,2.14-1.48l1-7.51Z"/><path class="cls-21" d="M413,393.59a111,111,0,0,0,30,5.24l.26,13.74c-.76-1.6-.53-3.84-.58-5.61L413,405.37Z"/><path class="cls-28" d="M464.57,420c.68.35,1.94.78,2.36,1.39a60.82,60.82,0,0,1,13.65,13.29l5.51,7.57,23.73,41.5a38.46,38.46,0,0,1-10.34,11l-.16.57-13.91,6.87c1.17-6,2-10.8,1.58-17l-2.41-11A330.67,330.67,0,0,0,473,439.75C470.39,433,468,426.38,464.57,420Z"/><path class="cls-23" d="M464.57,420c.68.35,1.94.78,2.36,1.39.4,4.16,4.75,10.23,6.63,14.09l15.08,33,7.66,17.18c1.18,2.79,2.78,6.09,3.18,9.1l-.16.57-13.91,6.87c1.17-6,2-10.8,1.58-17l-2.41-11A330.67,330.67,0,0,0,473,439.75C470.39,433,468,426.38,464.57,420Z"/><path class="cls-26" d="M325,372.17a112.47,112.47,0,0,0,17,21.73c2.58,2.58,5.16,5.36,8.27,7.29a101.68,101.68,0,0,0,19.56,14.37c3,1.7,6.21,3,9.15,4.72l-5.85,2.82c3.84.42,8.48.3,11.2,3.47a7.49,7.49,0,0,1,1.53,3.29l.21.75c3.62,13,1.66,26.51-.93,39.51-.37,1.86-.46,5-1.36,6.56l-.25.35c-1.55,1.09-2.34,4.77-3,6.59-1.16,3.33-6.8,20.23-9.27,21.61l-.72-.37a28.57,28.57,0,0,0-7.18-2.09l-19.29-8.5a9.64,9.64,0,0,0-3.42-2c-7.48,19.77-15.76,40.32-18,61.48-.34,3.16-1,7,.39,10,1.54,3.22,4.76,5.13,8,6.16l20.95,4.24-10,35.85L311,611H288.76l2.17-4c3.85-11.53,4.46-23.23,5.44-35.26a30.89,30.89,0,0,1,16.88-1.59l3.68-.42a7.62,7.62,0,0,1-2.48-.9c-.08-11.94-2.76-24.22-4.82-36l-7.82-46.3L296,451.94c-1.83-12.89-3.07-25.19-.32-38.07,2.94-13.77,9.45-27.06,20.6-36C318.93,375.66,322.1,374.06,325,372.17Z"/><path class="cls-29" d="M290.93,607.26c2.83,1,7.2.48,10.26.45,3.53,1.58,6.64.06,10,.87l4.45.32c-4.39.81-8.86-.26-13.15,1,1,.17.45.15,1.27.07,2-.2,4.06.18,6,0a10.61,10.61,0,0,1,2.39.1c1.43.23,2.84-.67,4,.33A17.8,17.8,0,0,0,311,611l-22.23.33Z"/><path class="cls-30" d="M316.93,569.72a18,18,0,0,1,12.77,7.39,17.72,17.72,0,0,1,3,13.72,21.87,21.87,0,0,1-9.12,14.41c-3.64,2.38-8.11,2.69-12.32,3.07-3.4-.81-6.51.71-10-.87l8.35-1.12a15.21,15.21,0,0,0,9.82-6.86c3.22-5,4.57-13.94,3.06-19.64-1.28-4.81-5.16-7.32-9.17-9.68Z"/><path class="cls-28" d="M296.37,571.73a30.89,30.89,0,0,1,16.88-1.59c4,2.36,7.89,4.87,9.17,9.68,1.51,5.7.16,14.67-3.06,19.64a15.21,15.21,0,0,1-9.82,6.86l-8.35,1.12c-3.06,0-7.43.59-10.26-.45C294.78,595.46,295.39,583.76,296.37,571.73Z"/><path class="cls-22" d="M340.68,492.29c-4-1.59-7.34-4.59-10.34-7.56,3.47-8.9,7.82-17.36,12.13-25.88,4-8,8-16.58,14-23.32a47.38,47.38,0,0,1,16.68-12.43c3.84.42,8.48.3,11.2,3.47a7.49,7.49,0,0,1,1.53,3.29l.21.75c3.62,13,1.66,26.51-.93,39.51-.37,1.86-.46,5-1.36,6.56l-.25.35c-1.55,1.09-2.34,4.77-3,6.59-1.16,3.33-6.8,20.23-9.27,21.61l-.72-.37a28.57,28.57,0,0,0-7.18-2.09l-19.29-8.5A9.64,9.64,0,0,0,340.68,492.29Z"/><path class="cls-1" d="M513.33,820.14c2-1.27,18.76-.95,22-.6L531.16,834c10.53-1.85,22.28-3,32,2.48l.56.31a35.72,35.72,0,0,1,6.34,4.6l148.28,5-3.88,21.52c-.52,2.94-1.51,6.19-1.53,9.17l5.88.39,8.57-30.74,15,.55,103.4,6.59,6.9,24.45a43.81,43.81,0,0,0,7.34-.63l-4.24-21.54c3.49-1.74,56.74,5.9,63.32,7,7.61,1.32,15.29,2.78,22.57,5.45,2.1.78,4.37,1.61,5.57,3.67a3.54,3.54,0,0,1,.48,3.23c-5.35,4.48-13.37,6.07-20,7.63-22.66,5.29-46.23,7.32-69.34,9.55L692,902.31,497.06,906l-193.52-3.89-126-8.42c-21.63-2.15-43.22-4.18-64.63-8-8-1.44-27.27-4.2-32.8-9.74a4,4,0,0,1-.14-3.25c9.49-9.52,52.28-13,66-14.47l28.21-2.93-4,22.75,8.59,0,5.29-23.7,116.77-7.63c2.08,8,3.92,17.17,7,24.82.32,1.7.76,4.41,1.87,5.72,1.6,0,2.86.33,4.27-.51l-5.11-30.74c4.61-.25,9.66-.24,14.16-1,3.77-.64,9.31.41,12.76-1l-.26.54-.38.07a9,9,0,0,0-4.68,3.49,10.36,10.36,0,0,0,2.81-.95,21.72,21.72,0,0,1,6.47-1.92,14.27,14.27,0,0,1,1.92-4.71l1-1.21c6.18-6.48,33-7.48,42.23-7.83l.64-1.82c0-1.41-.23-2.21.51-3.43l1.82-.17,8.39,1h17.87c3.28-.19,9.86-.11,9.86-.11l0,2.53-.25,2.08c1,.73,1.12.57,2.3.6,7.1,2.07,14.93.62,22.15,3.2l-.69,3.3c7.39.15,16.27,1.11,23.14-2a29.69,29.69,0,0,0,6-.15c6.84-.62,13,1.1,19,4.35l1.3-.66c3-3.34,7.91-4.63,12.13-5.55A87.16,87.16,0,0,1,513.33,820.14Z"/><path class="cls-31" d="M388.71,856.94c1.78-4.65,3.87-7.89,8.71-9.87a16.53,16.53,0,0,1,11,.13,14.18,14.18,0,0,1,7.43,7.66l.65,1.34.2,1.49c.34,4.47-.12,8.35-3.24,11.86a14.2,14.2,0,0,1-20.54.86C389,866.45,388.65,862.23,388.71,856.94Z"/><path class="cls-31" d="M340,845.83a32.89,32.89,0,0,1,9.38,3.17l.42.33a15.25,15.25,0,0,1,5,10.09,13.44,13.44,0,0,1-3.48,10.68,14.12,14.12,0,0,1-9.79,4.45,13.19,13.19,0,0,1-10.44-3.93,13.75,13.75,0,0,1-4.7-10.51c0-4.8.88-8,4.32-11.43a10.91,10.91,0,0,0,2.82-.95A21.26,21.26,0,0,1,340,845.83Z"/><path class="cls-32" d="M474.13,865h31.61c.11,2,.26,5.61.26,5.61l-.06,4.39L438,875l-.39-10Z"/><path class="cls-12" d="M470.93,837a30.44,30.44,0,0,0,6-.14,8.25,8.25,0,0,0,5.29,2.53l.32.08c-5.68-.43-12.42,2.86-17.9,4.47l-.34.34a103.67,103.67,0,0,1,7.06,14,43.29,43.29,0,0,1,2.81,6.78l-36.31.26A38.82,38.82,0,0,1,442,846.68c2.06-2.45,4.35-4.84,5.8-7.72C455.18,839.11,464.06,840.07,470.93,837Z"/><path class="cls-33" d="M476.89,837c6.85-.62,13,1.1,19,4.32,3.23,3.16,5,6.42,7.06,10.33.64,1.2,1.6,2.65,1.67,4l-.22,2.49,1.37,6.82-31.61.18a42.9,42.9,0,0,0-2.81-6.78,103.08,103.08,0,0,0-7.06-13.95l.34-.35c5.48-1.6,12.22-4.89,17.9-4.46l-.32-.09A8.15,8.15,0,0,1,476.89,837Z"/><path class="cls-32" d="M476.89,837.19c6.85-.62,13,1.09,19,4.32,3.23,3.15,5,6.41,7.06,10.33.64,1.2,1.6,2.64,1.67,4l-.22,2.5a37.69,37.69,0,0,0-3.45-6.79c-4.43-6.84-10.65-10-18.42-11.76l-.32-.08A8.2,8.2,0,0,1,476.89,837.19Z"/><path class="cls-34" d="M408.8,827h5.34c3.28-.19,9.86-.11,9.86-.11v3.3l0,2.06c1,.73,1.11.57,2.29.6,7.11,2,14.94.62,22.16,3.18l-.7,3.28c-1.45,2.87-3.74,5.26-5.8,7.69H415.47c.58,3,2.17,6.63,1.07,9.2l-.65-1.34a14.18,14.18,0,0,0-7.43-7.66,16.53,16.53,0,0,0-11-.13c-4.84,2-6.93,5.22-8.71,9.87a7.17,7.17,0,0,1-.75-1.6l-.3-.93a27.11,27.11,0,0,1-.9-6.41l-18.1-1-16.45.15a15.64,15.64,0,0,0-1.33,1.86l-1.91-.18a34.12,34.12,0,0,0-9.64-3.27,14.55,14.55,0,0,1,2-4.81l1-1.23c6.36-6.61,33.92-7.64,43.41-8l.66-1.86c0-1.43-.23-2.25.52-3.5l1.87-.17,7.48,1Z"/><path class="cls-5" d="M368.66,848h17.83l.2-1.65c.55-1.61,1.33-4.06,2.93-5,1.37-.8,6.07-1.35,6.07-1.35l13.46,0c1.66.08,3.66-.06,5.18.57a41.58,41.58,0,0,0,2.11,6.42c.62,3,2.32,6.87,1.15,9.63l-.7-1.44c-1.72-3.7-4.12-6.59-8-8.21a17.69,17.69,0,0,0-11.84-.15c-5.19,2.13-7.43,5.6-9.35,10.6a7.47,7.47,0,0,1-.79-1.72l-.33-1a24.3,24.3,0,0,1-1-7.68Z"/><path class="cls-35" d="M408.8,827h5.34c3.28-.19,9.86-.11,9.86-.11v3.3l0,2.06c1,.73,1.11.57,2.29.6,7.11,2,14.94.62,22.16,3.18l-.7,3.28c-13.86-3.25-27.29-3.43-41.44-3.71s-28-.38-42.06,1.08A79.18,79.18,0,0,0,343,841.35c-.69.27-.32.28-1.06-.2l1-1.2c6.19-6.44,33-7.43,42.23-7.78l.64-1.8c0-1.4-.22-2.2.51-3.41l1.82-1,8.15,1Z"/><path class="cls-36" d="M408.8,827h5.34c3.28-.19,9.86-.11,9.86-.11v3.3s-7.57-.14-11.46,0c-8.68.24-18.13.93-26.75.22,0-1.4-.22-2.2.51-3.41l1.82-1,8.15,1Z"/><path class="cls-37" d="M513.58,821c2-1.27,18.75-1,21.95-.6l-4.12,14.39c10.52-1.83,22.27-3,32,2.47l.56.3a36.07,36.07,0,0,1,6.34,4.57,47.9,47.9,0,0,1,6.36,7.5c4.19,6.73,4.68,14.74,4.92,21.39l-40.78,1-11.65,0a28,28,0,0,1-4.68-.05c-3.26,0-12.33-.9-14.73.85-.48,1.06-.6,2-1.91,2.24H506v-4.4s-.15-3.64-.26-5.45l-1.37-6.81.22-2.5c-.07-1.37-1-2.81-1.67-4-2.08-3.92-3.83-7.18-7.06-10.33l1.3-.66c3-3.32,7.91-4.6,12.14-5.51A84.37,84.37,0,0,1,513.58,821Z"/><path class="cls-38" d="M495.86,841.76l1.3-.66a5.29,5.29,0,0,0,2.24,2.13,25.66,25.66,0,0,1,10.12,13.36c.34,1,1.37,5.63,2,6.2.06.07,15.48,0,16.25-.12l.68-.13c4.61-.06,9.47-.27,14,.46l-31.93-.08-1.5,2.16-2.51.28c-.28,1.83-.09,3.67-.31,5.5a41.33,41.33,0,0,1-.48-5.45l-1.37-6.81.22-2.5c-.07-1.37-1-2.81-1.67-4C500.84,848.17,499.09,844.91,495.86,841.76Z"/><path class="cls-39" d="M513.58,821c2-1.27,18.75-1,21.95-.6l-4.12,14.39c-5.34.91-11.28.47-16.7.49-1.44,0-4.1-.36-5.41.08A84.37,84.37,0,0,1,513.58,821Z"/><path class="cls-32" d="M528.44,862.29c2.74-1.39,9.81-.45,13.1-.43a16.24,16.24,0,0,0-.5-2c-.22-.89-.22-1.59-.5-2.5l-.25-1.33-.43-1.68-.15-.63c-1.51-5.8-4.59-10.64-6.35-16.21,4.28-1.18,8.46-2.21,12.93-1.8a37.46,37.46,0,0,1,6.5,1,25.83,25.83,0,0,1,10.09,5l.6.46c6.36,5,9.62,13,11.45,19.77H557.52c-2.18.75-5.36.33-7.43,1h-7.62C537.91,862,533.05,862.24,528.44,862.29Z"/><path class="cls-32" d="M389.75,184.39c1.62-2.36,2.87-4.89,4.62-7.17a49.19,49.19,0,0,1,18.88-14.73c11.85-5.37,24.44-6.92,37.35-6.12,4.57.28,9.7.72,14,2.34l.71.64c-.36.68-.1.4-.76.83,27.9,11,50.52,30.72,68.18,54.7,2.72,3.69,6.63,7.86,8.53,12l.28.65,5.12,2c4.63,8.54,7.05,18.91,8.37,28.45,1.08,7.84,0,13.37-4.55,19.84a23.05,23.05,0,0,1-5.78.95,3.21,3.21,0,0,0-2.19-.2c-2,.24-4.59,0-6.41.57-4.77.27-11.09,1.14-15.77.44,2.42,6.3,4,12.73,7.43,18.6l6.93,3.23a4.94,4.94,0,0,0,1.36.72c1.55.3,4.4-1.39,5.06.85a14.22,14.22,0,0,1-.76,7.87,2.26,2.26,0,0,1-.63.81,160.45,160.45,0,0,1,.2,17.68c-2.19,29.92-14.67,61.82-35.08,84a170.11,170.11,0,0,1-14.51,13.77,67.21,67.21,0,0,1-9.74,7.51,60.82,60.82,0,0,0-13.65-13.29c-.42-.61-1.68-1-2.36-1.39a41.34,41.34,0,0,0-21.24-7.23l-.18-.18-.25-13.74a123.27,123.27,0,0,1-30.9-5.24l1,11.78v7.51a59.58,59.58,0,0,0-16.82,1.85L379,420.28c-2.94-1.74-6.17-3-9.15-4.72a101.68,101.68,0,0,1-19.56-14.37c-3.11-1.93-5.69-4.71-8.27-7.29a112.47,112.47,0,0,1-17-21.73l-2.8-5.34-2.14-4.08-1.92-3.61c-3.35-9.06-4.78-18.42-5.87-28a196.47,196.47,0,0,1,.87-48.7c3.56-26.12,11.38-51.09,28-71.92a14,14,0,0,1,2.35-3.3,73.12,73.12,0,0,1,9.74-9.93c7.16-6,15.6-11.64,25.06-12.94a40.47,40.47,0,0,1,9.07.16A3.24,3.24,0,0,0,389.75,184.39Z"/><path class="cls-33" d="M411,205.62c4.83,5.51,8.88,11.64,13.94,17,15.13,16,33.12,29.18,50.5,42.59l-14.6-6.87C439.67,247.11,418.24,229.19,411,205.62Z"/><path class="cls-40" d="M366.19,339.39l.19.44c1.55,3.72,2.47,7.64,4.1,11.35,7.92,18,20.85,33.48,39.31,41.21l2.21,1.2,1,11.78v7.51a59.58,59.58,0,0,0-16.82,1.85c-6.51-6.35-12.79-12.43-18.28-19.75-11.46-15.26-17.42-34.21-21.29-52.7C360.33,342.42,363.07,341.31,366.19,339.39Z"/><path class="cls-24" d="M360.17,297.65c1.7-1.87,4.16-2.78,6-4.55,3.46-3.29,6.16-7.5,9.82-10.49l.52,2.06L375.3,298.6l12.24-.28,3,.2-.41.07c-4.85.72-10.2.31-15.11.31-.94,1.29-.7,2.69-.66,4.21,2,.44,4.48-.12,6.34.66L375,304c-1.22,5.62.88,12.88-1.53,18.15l-.91,4.63c-.72,5-3,8.88-6.32,12.58-3.12,1.92-5.86,3-9.58,2.89C350,340.76,345.1,337.7,341.38,332s-5.52-13.24-4.08-19.89c1.14-5.28,3.88-10.38,8.64-13.24C350.5,296.14,355.19,296.28,360.17,297.65Z"/><path class="cls-38" d="M360.17,297.65c1.7-1.87,4.16-2.78,6-4.55,3.46-3.29,6.16-7.5,9.82-10.49l.52,2.06L375.3,298.6l12.24-.28,3,.2-.41.07c-4.85.72-10.2.31-15.11.31-.94,1.29-.7,2.69-.66,4.21,2,.44,4.48-.12,6.34.66L375,304c-1.22,5.62.88,12.88-1.53,18.15A37.7,37.7,0,0,0,372.31,312,24.74,24.74,0,0,0,360.17,297.65Z"/><path class="cls-39" d="M348.05,307.09c2.79-1.44,5-2.27,8.19-1.39s5.55,3.86,7.08,6.66a17.43,17.43,0,0,1,1.62,12.7l-.22.93a13.93,13.93,0,0,1-4.06,4.76,10,10,0,0,1-8,1.22,12.21,12.21,0,0,1-6.89-5.88l-.27-.56a16,16,0,0,1-1.62-6.63A15.07,15.07,0,0,1,348.05,307.09Z"/><path class="cls-21" d="M348.05,307.09c2.79-1.44,5-2.27,8.19-1.39s5.55,3.86,7.08,6.66a17.43,17.43,0,0,1,1.62,12.7l-.22.93-3.68.35a14.91,14.91,0,0,1-1-2.48c-.63-2.05-1.28-4.36-3-5.78-1.44-1.19-3.85-.95-5.6-.83-1,.06-.43.17-1.46-.49l.81-1.15c2.67-1.24,6-1,8.93-1.09a26.33,26.33,0,0,0-4.6-4.83l-.55-.38C352.39,307.81,350.56,307.49,348.05,307.09Z"/><path class="cls-39" d="M376.52,284.67a8,8,0,0,1,.51-3.28c1.55-2.85,4.59-5.64,6.59-8.28a141.25,141.25,0,0,0,11.63-18c5.47-10.12,8.4-21.64,11.37-32.69,4.79,6.4,9.54,12.72,15.28,18.31,13.86,13.52,30.45,22.41,48.36,29.3,6.46,2.48,13.41,4,19.71,6.79l13.79,2.78c1.47.35,5.16.68,6.52.09,2.54-.33,7.75-1,10-.11,2.42,6.3,4,12.73,7.43,18.6-4-1.59-7.92-3.23-12-4.52-2.23-.71-4.64-.91-6.8-1.77l-.75-.28a6.9,6.9,0,0,1-1.44-.64,5.64,5.64,0,0,0-1.7-.5l-.3-.73c-2.19-.35-4.45-.42-6.6-.91-6.23-1.4-12.51-3.58-18.71-5.25-20.16-5.44-40.51-12.17-56.93-25.52-5.09-4.14-9.81-9.34-14.26-14.17,0,3.09.1,6-.86,9a97.78,97.78,0,0,1-8.13,17.75c-3.86,6.82-7.47,13.07-10,20.5a22.07,22.07,0,0,0-1.73,7.21l-12.24.28Z"/><path class="cls-38" d="M490,276.83l13.79,2.78c1.47.35,5.16.68,6.52.09,1.81.72,3.67,1.5,4.76,3.22a4.8,4.8,0,0,1,.39,4c-2.1.94-23.49-6.13-27.35-7.34l-.37-.75Z"/><path class="cls-33" d="M341.16,210.55a14,14,0,0,1,2.35-3.3,73.12,73.12,0,0,1,9.74-9.93c7.16-6,15.6-11.64,25.06-12.94a40.47,40.47,0,0,1,9.07.16,37.94,37.94,0,0,0-11.69,2.67c-14.72,5.94-26.24,19.32-32.45,33.68a71.67,71.67,0,0,0-5.52,26.34c8.78-16.42,20.1-35.09,38-42.47a54.4,54.4,0,0,0-7.76,9.24c-8,12.25-11.74,26.91-14.05,41.18,3.37-3.94,6.19-8.58,9.13-12.86l13.86-19.39c1.8-2.41,4.11-6.18,6.55-7.91-4.12,27.53-16.07,50.25-34.11,71.25-.36-7.8-.73-15.45.08-23.25l-12.06,18.89L335,255c-4.31,7.63-6,14.85-7.85,23.33-5.17,23.89-6.07,52.83.55,76.57,4.68,16.81,12.52,32.07,22.54,46.26-3.11-1.93-5.69-4.71-8.27-7.29a112.47,112.47,0,0,1-17-21.73l-2.8-5.34-2.14-4.08-1.92-3.61c-3.35-9.06-4.78-18.42-5.87-28a196.47,196.47,0,0,1,.87-48.7C316.71,256.35,324.53,231.38,341.16,210.55Z"/><path class="cls-41" d="M341.16,210.55l.38,1.07-.34.45c-3.4,4.91-5.36,11.24-7.4,16.79-2.89,7.89-5.76,15.77-7.89,23.9-4.49,17.15-6.82,35.18-8.15,52.85-.57,7.62-1.24,15.36-.8,23a234.07,234.07,0,0,0,3.14,25c.71,4.21,2,8.63,2.09,12.9l0,.31-2.14-4.08-1.92-3.61c-3.35-9.06-4.78-18.42-5.87-28a196.47,196.47,0,0,1,.87-48.7C316.71,256.35,324.53,231.38,341.16,210.55Z"/><path class="cls-33" d="M389.75,184.39c1.62-2.36,2.87-4.89,4.62-7.17a49.19,49.19,0,0,1,18.88-14.73c11.85-5.37,24.44-6.92,37.35-6.12,4.57.28,9.7.72,14,2.34l.71.64c-.36.68-.1.4-.76.83,27.9,11,50.52,30.72,68.18,54.7,2.72,3.69,6.63,7.86,8.53,12l.28.65c-7.83-2.29-16.61-4.15-24.77-4.33,6,2.92,11.34,5.74,16.12,10.49-7,1-14,.62-21,0a155.32,155.32,0,0,1-36.55-7.32c-7.85-2.71-15.29-6.38-22.84-9.79,3.31,3.71,6.4,7.66,10,11.12,6.38,6.16,14,11.64,21.32,16.63,10.26,7,20.57,13.21,32.1,17.93a87,87,0,0,0,12.35,3.84c2.57.62,5.47.76,7.84,2a6.4,6.4,0,0,1-2.18.16c-13.77-.85-28.51-3.7-41.32-8.9-31.39-12.75-56.67-38-78.91-62.81,13.72,2.64,27.54,6.19,41.4,7.88,4.51.55,10.63,1.29,15.08.17,1.19-.31.94-.29,1.53-1.21a10.4,10.4,0,0,0-1.29-2.66c-8.09-11.64-30-16.77-43.12-19.16a133.29,133.29,0,0,1,25.95-5c8.31-.66,16.77-.18,25.08.34l-2.84-2.44c-13.12-9.65-29.57-15-45.88-12.51-14.73,2.3-30,10.12-38.92,22.32Z"/><path class="cls-24" d="M387.54,298.32a22.07,22.07,0,0,1,1.73-7.21c2.56-7.43,6.17-13.68,10-20.5a97.78,97.78,0,0,0,8.13-17.75c1-3,.85-5.87.86-9,4.45,4.83,9.17,10,14.26,14.17,16.42,13.35,36.77,20.08,56.93,25.52,6.2,1.67,12.48,3.85,18.71,5.25,2.15.49,4.41.56,6.6.91l.3.73a5.64,5.64,0,0,1,1.7.5,6.9,6.9,0,0,0,1.44.64l.75.28c2.16.86,4.57,1.06,6.8,1.77,4.05,1.29,8,2.93,12,4.52l6.93,3.23a4.94,4.94,0,0,0,1.36.72c1.55.3,4.4-1.39,5.06.85a14.22,14.22,0,0,1-.76,7.87,2.26,2.26,0,0,1-.63.81,160.45,160.45,0,0,1,.2,17.68c-2.19,29.92-14.67,61.82-35.08,84a170.11,170.11,0,0,1-14.51,13.77,67.21,67.21,0,0,1-9.74,7.51,60.82,60.82,0,0,0-13.65-13.29c-.42-.61-1.68-1-2.36-1.39a41.34,41.34,0,0,0-21.24-7.23l-.18-.18-.25-13.74a111,111,0,0,1-30-5.24l-3.06-1.2c-18.46-7.73-31.39-23.17-39.31-41.21-1.63-3.71-2.55-7.63-4.1-11.35l-.19-.44c3.33-3.7,5.6-7.59,6.32-12.58l.91-4.63c2.41-5.27.31-12.53,1.53-18.15l5.77-.26c-1.86-.78-4.31-.22-6.34-.66,0-1.52-.28-2.92.66-4.21,4.91,0,10.26.41,15.11-.31l.41-.07Z"/><path class="cls-39" d="M445.84,361.93c5.55,3,12.12,6.46,18.62,4.64l.58-.18a48.62,48.62,0,0,0,7.5-3l.74.75-.79,1.87-.63.66a14.56,14.56,0,0,1-10.29,4.12C454.49,370.53,450.35,366.86,445.84,361.93Z"/><path class="cls-39" d="M466.84,332.61l1.45-.31a14.64,14.64,0,0,1,5.27,5.58,7.74,7.74,0,0,1,.73,6,8.92,8.92,0,0,1-4.87,5.67,11.43,11.43,0,0,1-8.71,0c-1.17-.91-1.89-1.26-2.47-2.65l.57-.75c2.13-.63,4.36.69,6.57.77,1.81.06,3.89-.32,5.14-1.77a4.79,4.79,0,0,0,1.21-4.09c-.41-3.16-2.88-5.16-5.25-7l-.44-.33Z"/><path class="cls-38" d="M411.64,272c7-.69,11.86.39,17.8,4.3-8.11,1.32-15.83,2-23.79,4.32L392,286.47C397.45,278.44,402.26,274.8,411.64,272Z"/><path class="cls-7" d="M390.56,298.52c10.39-6,23.11-9.68,35.12-6.51,6.37,1.68,12.54,5.67,15.93,11.44a25.42,25.42,0,0,1,2.21,19.05c-.63,2.33-1.95,5.66-3.79,7.28,2.23-6.24,3.08-12.54.9-19a20.87,20.87,0,0,0-11.25-12.58c-6.17-3-13-2.68-19.64-2-2.3.24-4.45.14-6.65.94-6.47,2.33-8.94,4.16-13.08,9.56-1.34-.31-2.3-.87-3.53,0s-1.49,2.47-1.52,3.94c-.1,4.14,2.27,8.91,1.8,12.75l-3.52-18.32-1.18-.85-1.64-.52c-1.86-.78-4.31-.22-6.34-.66,0-1.52-.28-2.92.66-4.21,4.91,0,10.26.41,15.11-.31Z"/><path class="cls-7" d="M477.82,320.48a7.94,7.94,0,0,1-.77-4.46c.09-6.15,2.12-13.06,6.65-17.41,7.12-6.82,16.27-6.9,25.47-6.71,2.16.86,4.57,1.06,6.8,1.77,4,1.29,8,2.93,12,4.52l6.94,3.23a5,5,0,0,0,1.35.72c1.56.3,4.4-1.39,5.06.85a14.22,14.22,0,0,1-.76,7.87,2.16,2.16,0,0,1-.63.81l-1.17,4.57-.25-.88h-.35l-.43.74-.7-2.54,0,4.19c-3.84,2.83-5.39,7.71-9.73,10l-.64-.16a11.57,11.57,0,0,0-2.69-.19,26.28,26.28,0,0,1-5.66,7.81l-.78.6-.4-.19a30.83,30.83,0,0,0,4.49-5.51c4-6.62,5-15.62,3-23.07a11.34,11.34,0,0,0-5.53-7.21c-6-3.28-14.74-5-21.34-3-6.21.82-11.62,3.57-15.37,8.66C479.26,309.66,477.92,315.39,477.82,320.48Z"/><path class="cls-39" d="M523.9,327.39a26.83,26.83,0,0,0,2.28-8.72c.34-4-.41-7.15,2-10.56l-.35-1.5.78-1.07a14,14,0,0,1,5.33.67c2.4,1.75,2.56,4.64,3,7.36l0,4.19c-3.84,2.83-5.39,7.71-9.73,10l-.64-.16A11.57,11.57,0,0,0,523.9,327.39Z"/><path class="cls-16" d="M477.63,320.48c.1-5.09,1.44-10.82,4.5-15,3.75-5.09,9.16-7.84,15.37-8.66l.49.11c6.35,1.35,11.83.53,16.13,6.66a13.09,13.09,0,0,1,1.75,4.75l.13.55a23.22,23.22,0,0,1-.55,11l-.2.67A22.65,22.65,0,0,1,504,333.52a29,29,0,0,1-5.18,1.92l-.81.24c-3.57,1-9.5,1.23-12.85-.6-2.22-1.22-6.68-6.54-7-9.17l.07-1.5A8.5,8.5,0,0,0,477.63,320.48Z"/><path class="cls-42" d="M490.66,305.46a16.93,16.93,0,0,1,9.55.91,12,12,0,0,1,6.05,6.24,16.06,16.06,0,0,1-.36,12.29c-1.72,3.73-4.31,5.55-8.08,7a12.07,12.07,0,0,1-5.79-.26,15.26,15.26,0,0,1-9.25-7.7,12.86,12.86,0,0,1-.26-9.93C484.08,309.71,486.66,307.34,490.66,305.46Z"/><path class="cls-16" d="M494.19,315.41l.21-1.2a4.93,4.93,0,0,1,2.89-2.21c2.16.62,2.59,1.43,4.08,3.08-1.17,1.51-1.55,2.25-3.33,3-1.7-.4-2.61-.53-3.59-2.13Z"/><path class="cls-7" d="M501.37,315.08l1.79.4a6.13,6.13,0,0,1,.12,5,7.11,7.11,0,0,1-3,3.85l-.85.57c-1.17.68-5.25.73-6.45.09s-3.32-1.91-3.68-3.11c-.58-1.95.3-3.84,1.44-5.46.86-1.22,1.46-1,2.83-1.24l.61.25.26.57c1,1.6,1.89,1.73,3.59,2.13C499.82,317.33,500.2,316.59,501.37,315.08Z"/><path class="cls-39" d="M380.94,303.77l1.64.52-1.83.72a161.24,161.24,0,0,0,1.38,25.33c2.14,17.91,12.86,39,27.19,50.17l1.47,1.1a73.22,73.22,0,0,0,38.32,14.49c1.41.1.55-.06,1.71.47,2.08,1,5.83.42,8.18.46v.33l-1.59-.22c-1.16-.11-1.86.38-2.91.59-1.54.33-3.23-.11-4.88.25l1.21.53-7.72.32a110.91,110.91,0,0,1-30-5.24l-3.07-1.2c-18.45-7.73-31.39-23.17-39.3-41.21-1.63-3.71-2.56-7.63-4.11-11.35l-.19-.44c3.33-3.7,5.6-7.59,6.32-12.58l.92-4.63c2.4-5.27.31-12.53,1.53-18.15Z"/><path class="cls-16" d="M390.31,306.73c4.14-5.4,6.61-7.23,13.08-9.56,2.2-.8,4.35-.7,6.65-.94,6.62-.7,13.47-1,19.64,2a20.87,20.87,0,0,1,11.25,12.58c2.18,6.45,1.33,12.75-.9,19a4.2,4.2,0,0,0-1.18,1.56l.15,1.27a7.11,7.11,0,0,0-2.22,2.75l-2.12,1.73a17.49,17.49,0,0,0-1.41,1.31c-1.24,1.23-.13.31-1.47,1l-1,.74a15.62,15.62,0,0,1-4.51,2.25l-.76.26c-.68.23-1.31.31-2,.49l-.76.24c-2.91.89-7.62.28-10.74.26l-.75-.5c-1.2,0-1.48.19-2.5-.5a2.62,2.62,0,0,1-2-.5l-1-.24a15.49,15.49,0,0,1-3-1.26l-.77-.37a19.75,19.75,0,0,1-3.26-2.07l-.1-.32-1.45-.69c-1.89-.84-4.87-3.93-5.92-5.79-.82-1.45.25-.2-.57-1.16a10.34,10.34,0,0,1-1.59-2.11,25.89,25.89,0,0,1-2.07-4.63c.47-3.84-1.9-8.61-1.8-12.75,0-1.47.24-3,1.52-3.94S389,306.42,390.31,306.73Z"/><path class="cls-43" d="M387.06,323.46c.47-3.84-1.9-8.61-1.8-12.75,0-1.47.24-3,1.52-3.94s2.19-.35,3.53,0a20.49,20.49,0,0,0-.2,14.57c1.46,3.72,3.8,6.46,6.48,9.34,7.13,5.13,15.26,7.94,24.15,6.63a31.91,31.91,0,0,0,9.41-2.84c1.28-.62,6.24-4.17,7.39-3.94.51.1.87.56,1.31.85l.15,1.27a7.11,7.11,0,0,0-2.22,2.75l-2.12,1.73a17.49,17.49,0,0,0-1.41,1.31c-1.24,1.23-.13.31-1.47,1l-1,.74a15.62,15.62,0,0,1-4.51,2.25l-.76.26c-.68.23-1.31.31-2,.49l-.76.24c-2.91.89-7.62.28-10.74.26l-.75-.5c-1.2,0-1.48.19-2.5-.5a2.62,2.62,0,0,1-2-.5l-1-.24a15.49,15.49,0,0,1-3-1.26l-.77-.37a19.75,19.75,0,0,1-3.26-2.07l-.1-.32-1.45-.69c-1.89-.84-4.87-3.93-5.92-5.79-.82-1.45.25-.2-.57-1.16a10.34,10.34,0,0,1-1.59-2.11A25.89,25.89,0,0,1,387.06,323.46Z"/><path class="cls-44" d="M415.59,304.93c2.91-.15,5.57-.31,8.37.61a12.65,12.65,0,0,1,7.66,6.82,14.8,14.8,0,0,1,.55,10.81c-2.1,5.24-5.49,7.55-10.5,9.6-3,.29-5.81.38-8.58-.86a14.19,14.19,0,0,1-7.78-8,15.55,15.55,0,0,1,.76-11.71C408,308.08,411.53,306.32,415.59,304.93Z"/><path class="cls-16" d="M416.49,317.92l-1.06-1.65c-.06-2.11.08-2.09,1.31-3.66,1.79-.49,2.76-.1,4.46.53-.29,2.12-.27,2.79-1.58,4.54A9.42,9.42,0,0,1,416.49,317.92Z"/><path class="cls-1" d="M421.2,313.14a4.51,4.51,0,0,1,3.19,1.47,8.81,8.81,0,0,1,2.12,6.5,4.21,4.21,0,0,1-1.73,3.16,10.38,10.38,0,0,1-8.24,2c-1.71-.34-2.84-1.63-3.89-2.91-.23-1.72.62-2.95,1.39-4.42.74-.41,1.6-1.13,2.45-1a9.42,9.42,0,0,0,3.13-.24C420.93,315.93,420.91,315.26,421.2,313.14Z"/><path class="cls-40" d="M537,313.57l.7,2.54.43-.74h.35l.25.88,1.17-4.57a163,163,0,0,1,.21,17.68c-2.2,29.92-14.68,61.82-35.09,84a171.48,171.48,0,0,1-14.5,13.77,67.85,67.85,0,0,1-9.75,7.51,60.82,60.82,0,0,0-13.65-13.29c-.41-.61-1.68-1-2.36-1.39a41.34,41.34,0,0,0-21.23-7.23l-.18-.18-.26-13.74,7.72-.32c18.56-.47,36.14-7,49.88-19.67a60.81,60.81,0,0,0,18.06-29.08,37,37,0,0,0,1.76-8.37c-.4-2.1,0-4.18-.28-6.28l-2,.09a26.42,26.42,0,0,0,5.65-7.81,11.57,11.57,0,0,1,2.69.19l.64.16c4.34-2.27,5.89-7.15,9.73-10Z"/><path class="cls-24" d="M523.71,327.39a11.57,11.57,0,0,1,2.69.19l.64.16c4.34-2.27,5.89-7.15,9.73-10,0,5.55-.38,10.83-4.51,15-2.26,2.29-5.7,4.37-9,4.23a8,8,0,0,1-2.24-.4c-.42,1.6-.34,3.18-.65,4.78-.4-2.1,0-4.18-.28-6.28l-2,.09A26.45,26.45,0,0,0,523.71,327.39Z"/><path class="cls-13" d="M601,252l-.21-130,148.56-.08a12.38,12.38,0,0,0,1.22,3.79,102.42,102.42,0,0,0,7.22,9.17c.76.93,2.57,2.78,3,3.83a9.67,9.67,0,0,1,0,2.68c-.11,3-1.09,8.78,0,11.42a17.65,17.65,0,0,1,3.89.7c1.19,4.3.4,10.64.38,15.2v29.08l7-.2.18,1.85.36.07A13.17,13.17,0,0,1,773,194l5.86,1h3.58l2.42-.09.53.08c5.86.85,12.32.28,18.26.41l.31,9.12a20,20,0,0,0,.57-4.37l7.43-1.4v-1l-1.54-.4.06-.71.44.18c1.6.49,3.92.18,5.64.16l19.27-.17c1.59,0,4.89-.31,6.32.41a7.76,7.76,0,0,1,1.39,1.18c1.47,4.51.45,10.85.23,15.58l13.19-.15-.42,157.64.57,5.51H600.23l.77-26.18,1-60.25v-24.4s-.33-8.92-.84-13.22Z"/><path class="cls-27" d="M748.23,196.93,747.5,198h-5.21s3.79.33,5.25.36l1-.11.36.21c1.71.75,4.56.64,6.45.54H734l1,54.24V353.67c0,1.28.32,4.1-.1,5.16-.13.32-.45.52-.68.78L733,359V218.73a90,90,0,0,1-.63-17.72,5.13,5.13,0,0,1,1.48-3.3C738.39,197.13,744,198.37,748.23,196.93Z"/><path class="cls-1" d="M601,252V122l148.16-.07a12.64,12.64,0,0,0,1.23,3.77,103.16,103.16,0,0,0,7.31,9.15c.78.93,2.6,2.77,3,3.81a9.66,9.66,0,0,1,0,2.68c-.11,3-1.11,8.76,0,11.39a18.69,18.69,0,0,1,3.94.69c1.2,4.3.4,10.62.38,15.16l.15,29.11,6.83-.2.18,1.84c-5.52.45-11.5-.09-17.06-.18-1.91-.16-4.8-.05-6.52-.8l-.37-.2-1,.1a25.23,25.23,0,0,1-5.31-.25l5.27-.07.74-1.1.1-.48L747.92,127,605,127l-.66,241h239.5s.12-8.06-.84-11.57l1-23v-93l-.33-31.18c-.06-2.81.48-7.62-.51-10.17L821,198.84c-2.28,0-5.88.5-8,0v-1.08l-1.54-.4.06-.71.44.18c1.6.49,3.92.18,5.64.16l19.27-.17c1.59,0,4.89-.31,6.32.41a7.76,7.76,0,0,1,1.39,1.18c1.47,4.51.45,10.85.23,15.58l12.19-.15-.42,157.64.57,5.51H600.23l.77-26.18,1-60.25v-24.4s-.33-8.92-.84-13.22Z"/><path class="cls-11" d="M765,153.42c1,4.3.16,10.64-1,15.2v29.17l8-.2.18,1.85c-5.45.45-11.37-.09-16.87-.18-1.89-.16-4.74,0-6.45-.8l-.36-.21-1,.11c-1.46,0-3.9.14-5.25-.36h5.21l.73-1.07.1-.48a26.48,26.48,0,0,0,6.17.28L765,197Z"/><path class="cls-45" d="M784.9,194.91l.53.08c5.86.85,12.32.28,18.26.41l.31,9.12-.07,4.48H829l1,30.68V267s.07,3.15-.73,4.35l.73,7.59-1,11.95V357l-88-.57L741.37,209H772v-9.5a27.18,27.18,0,0,1,1-5.51l5.86,1h3.58Z"/><path class="cls-16" d="M751,307l15,0,.17,11.32L751,318Z"/><path class="cls-16" d="M829,291l-54.33-.14c0-3.41-.76-8.7.25-11.86l54.06-.32Z"/><path class="cls-18" d="M784.9,194.91l.53.08c5.86.85,12.32.28,18.26.41l-.69,9.12,1,4.66V219H772l1-9.93v-9.56a12,12,0,0,1,0-5.51l5.86,1h3.58Z"/><path class="cls-16" d="M830,252l-82-.11V240l82-.13Z"/><path class="cls-16" d="M747,259l82-.06L828.88,271l-81.88.05Z"/><path class="cls-46" d="M733,359c-1.66-.63-5.09-.27-6.71-1l-20.55,1-89.74.11L616,135H734l1,45.4v12a23.84,23.84,0,0,1-.88,4.69l-.27.59a5.13,5.13,0,0,0-1.48,3.3c-.45,5.8-.37,17.72-.37,17.72l1,35.34Z"/><path class="cls-14" d="M707.38,269.91a13.34,13.34,0,0,1,5.27.31,10,10,0,0,1,5.58,5.52,10.73,10.73,0,0,1,0,7.37c-1.27,3.06-3.49,4.52-6.41,5.81a21.66,21.66,0,0,1-4.41-.06,9.33,9.33,0,0,1-5.89-4.23,9.23,9.23,0,0,1-1.09-7.07C701.63,273.5,703.81,271.82,707.38,269.91Z"/><path class="cls-34" d="M701.93,147c5.13-.32,12.72,0,17.11,2.86a7,7,0,0,1,3.23,4.68,4.55,4.55,0,0,1-1,3.56c-2.77,3.56-8.2,4.09-12.36,4.69-5.75.27-13.7.18-18.65-3.34a4.49,4.49,0,0,1-2-3,6.62,6.62,0,0,1,1.64-4.86C692.92,148.09,697.63,147.56,701.93,147Z"/><path class="cls-34" d="M623,237h46l-.15,10L623,246.9Z"/><path class="cls-34" d="M623,254l46-.11L668.94,265,623,265Z"/><path class="cls-18" d="M648.66,143.61a3.1,3.1,0,0,1,1.36-.12c1.79.29,4,1.76,5.58,2.61,3.16,1.7,9.46,4,11.4,6.8,1.14,1.67.6,3.59.13,5.36-3.15,3.85-12.33,8.24-17.09,9.92l-1,.07c-3.73,0-15.69-7.27-18.23-10.14a7.6,7.6,0,0,1,.46-4.25c1.64-3,6.14-4.52,9-6.05S645.62,144.59,648.66,143.61Z"/><path class="cls-34" d="M623,326h97c.88,2.61.2,7.17.16,10L623,336Z"/><path class="cls-34" d="M625,202l96-.15L720.9,213l-96.9.42.07-10.64Z"/><path class="cls-34" d="M623,219l98-.08L721,230l-98,0Z"/><path class="cls-34" d="M697.3,309H720v11l-73.34,1H623V308Z"/><path class="cls-34" d="M623.86,183l97.14-.09.09,13.09L624,195.89Z"/><path class="cls-11" d="M601,252l.13,1c.51,4.3-.16,13.22-.16,13.22l1,24.4v60.25L600.23,378H857.39l-.58-6.06c4.3,1.75,8.27,5.74,11.71,8.84,16.81,15.15,30.55,33.31,39.22,54.32A180,180,0,0,1,920.43,486c3.05,33.83-4,71.19-17.29,102.28C899.93,595.75,891.7,611,891.7,611H875.3l.92-8H858.68l-12.19,1-27.23-.08,1.22,7.08H472.13l0-1.09c-1.75-.38-3.06.06-4.73-.1-.71-.07-1.37,0-2.07-.07-1.47-.08-2.94.2-4.36.06a29.43,29.43,0,0,0-5.14-.06c-2.74.24-5.54.13-8.29.12,3-1.38,7.1-.87,10.35-1,1.93,0,3.73-.5,5.69-.46,2.21,0,5.15.63,7.23-.21l.86-.23H455.17l-.81-.89a43.67,43.67,0,0,1-3.54-4,5.55,5.55,0,0,1-1.95-2.47c-1-2.38-.39-6.52.6-8.87,5.31-1.14,10.29-1.07,15.7-.88l2.95-.07c1.39-1.08,3.47-1.13,5.17-.9l.75.1c1.87.13,6.4.25,7.77-.89l-1.45-2.55,3.43,2.75a8.71,8.71,0,0,0,3.8-.32l6.13-1.91c1.65-.51,2.26-.66,3.08-2.22-.3-1.9-1.55-3.44-2.59-5-5.14-7.76-15.85-16.44-24.41-20.09a104.19,104.19,0,0,1,1.1-13.63c1.09-9.76,2.35-22.26,7.21-30.93,3-4.07,5.06-8.54,7.3-13l13.91-6.87.16-.57a38.46,38.46,0,0,0,10.34-11l-23.73-41.5-5.51-7.57a67.21,67.21,0,0,0,9.74-7.51,170.11,170.11,0,0,0,14.51-13.77c20.41-22.21,32.89-54.11,35.08-84a160.45,160.45,0,0,0-.2-17.68,2.26,2.26,0,0,0,.63-.81,14.22,14.22,0,0,0,.76-7.87c-.66-2.24-3.51-.55-5.06-.85a4.94,4.94,0,0,1-1.36-.72l-6.93-3.23c-3.4-5.87-5-12.3-7.43-18.6,4.68.7,11-.17,15.77-.44,1.82-.55,4.46-.33,6.41-.57a3.21,3.21,0,0,1,2.19.2,23.05,23.05,0,0,0,5.78-.95c5-1.62,10.09-5.06,14.82-7.48Z"/><path class="cls-47" d="M864.31,525l15.54,0c2.57,0,5.75-.38,8.16.52.84,2.68,1.22,8.37.11,11l-.31.5-24.13.41-.27-.07C865,534.41,864.3,528.42,864.31,525Z"/><path class="cls-48" d="M810.68,476.62l.94.16,1.23,3,5.7,11.19c1,3,3.1,5.93,4.71,8.67,4.68,8,9.43,15.74,16.12,22.19l2.25,3.13h-9.11C820,513,812.81,493.61,810.68,476.62Z"/><path class="cls-42" d="M812.23,440.88c2.67,3.27,5.66,6.63,7.64,10.37A121,121,0,0,0,817.72,478c.18,4.37,1.37,9.06.83,13.4l-5.7-11.19-1.23-3.05-.94-.15-.24-.22c-1.49-7.52-1.1-15.34-.5-22.94C810.28,449.6,810.66,444.83,812.23,440.88Z"/><path class="cls-25" d="M841.63,525l4.26,1,17.77-.13.61.17c0,3.32.68,9.12-.86,12l-55.47-.34-1.73-.55c-1.94-2.54-.65-9-.3-12.11h35.72Z"/><path class="cls-49" d="M808,538h55.66l24.19-.41-3.1.65a29,29,0,0,0-.79,6.44L876.21,604H858.67L863,544.1l-.72-1.1-50.44,0-.35-4.39A17.52,17.52,0,0,0,808,538Z"/><path class="cls-50" d="M863.65,538l24.18-.41-3.09.65a28.22,28.22,0,0,0-.79,6.43l-13-.41c-2.45-.08-5.27.13-7.6-.68A26.07,26.07,0,0,1,863.65,538Z"/><path class="cls-38" d="M536.09,279.15c1.82-.55,4.46-.33,6.41-.57a3.21,3.21,0,0,1,2.19.2c1.74,15.15,4.49,30,5,45.27,1,32.72-9.49,67.17-29.82,92.89a83.12,83.12,0,0,1-33.76,25.29l-5.51-7.57a67.21,67.21,0,0,0,9.74-7.51,170.11,170.11,0,0,0,14.51-13.77c20.41-22.21,32.89-54.11,35.08-84a160.45,160.45,0,0,0-.2-17.68,2.26,2.26,0,0,0,.63-.81,14.22,14.22,0,0,0,.76-7.87c-.66-2.24-3.51-.55-5.06-.85a4.94,4.94,0,0,1-1.36-.72l-6.93-3.23c-3.4-5.87-5-12.3-7.43-18.6C525,280.29,531.32,279.42,536.09,279.15Z"/><path class="cls-40" d="M520.32,279.59c4.68.7,11-.17,15.77-.44-.46,7.07.77,15.54-1.41,22.27l-6.93-3.23C524.35,292.32,522.74,285.89,520.32,279.59Z"/><path class="cls-22" d="M829,458.23c3-14.43,8.41-31.12,18.91-41.89,5.74,7.73,11.15,16.74,13.9,26a58.28,58.28,0,0,1,2.38,19.35,11.21,11.21,0,0,1-3.06,2.72,103.86,103.86,0,0,0-13,14.59l-1,2a9.49,9.49,0,0,0-1.31,2.6l-.55.79-1.15,2c-5,11.36-7.55,23.48-4.75,35.78-6.69-6.45-11.44-14.23-16.12-22.19-1.61-2.74-3.71-5.65-4.71-8.67.54-4.34-.65-9-.83-13.4a121,121,0,0,1,2.15-26.72c-2-3.74-5-7.1-7.64-10.37l.67-.75c4.32,4.21,8.19,8.73,12.11,13.31C826.24,454.88,828.16,456.59,829,458.23Z"/><path class="cls-36" d="M829.16,459.86c1-.25.89-.46,1.74.25l.86,1.25c1.5,2.22,3.72,5.74,5.91,7.22l.59-.21c4.07,2.25,7,8.62,8.88,12.67a9.49,9.49,0,0,0-1.31,2.6l-.55.79a5.15,5.15,0,0,1-.93-.41c-1.09-.73-2.9-5.27-3.7-6.64Z"/><path class="cls-48" d="M838.26,468.37a128,128,0,0,1,6.4-38.91c.62-1.95,1-4.41,1.94-6.22L848.18,479l-1,2C845.24,477,842.33,470.62,838.26,468.37Z"/><path class="cls-51" d="M885.69,444.42l1.1-1c1.4,1.22,1.34,3.89,1.47,5.72a124.87,124.87,0,0,1-1.7,30.22l-.11.11c-2,13.12-6.28,27.1-14.66,37.58-2.37,3-6,5.25-8.15,8l-17.75,1h-4.26l-2.25-3.77c-2.8-12.3-.22-24.42,4.75-35.78l1.15-2,.55-.79a9.49,9.49,0,0,1,1.31-2.6l1-2a103.86,103.86,0,0,1,13-14.59,11.21,11.21,0,0,0,3.06-2.72l.48,1.24C870.63,455.83,878.3,449.94,885.69,444.42Z"/><path class="cls-42" d="M885.69,444.42a3,3,0,0,1-.3,1.52,22.48,22.48,0,0,1-3,3.73l-7.23,8.6L864.71,472.8l-.1,0-.07-.79c-.21-1.44-.72-2.82-.38-4.29s.24-3.2.52-4.79C870.63,455.83,878.3,449.94,885.69,444.42Z"/><path class="cls-34" d="M864.2,461.71l.48,1.24c-.28,1.59-.16,3.25-.52,4.79s.17,2.85.38,4.29l.07.79-11.2,23.37c-1.84,4.76.59,12.26.91,17.32.15,2.41-.43,5.86.23,8.09,11.45-11.2,21.65-23.61,28.93-38,.67-1.32,1.55-4,3-4.19-2,13.12-6.28,27.1-14.66,37.58-2.37,3-6,5.25-8.15,8l-17.75,1h-4.26l-2.25-3.77c-2.8-12.3-.22-24.42,4.75-35.78l1.15-2,.55-.79a9.49,9.49,0,0,1,1.31-2.6l1-2a103.86,103.86,0,0,1,13-14.59A11.21,11.21,0,0,0,864.2,461.71Z"/><path class="cls-42" d="M861.14,464.43c1,2.35-.14,6.71-1.1,9-2.9,6.85-8,12.88-9.71,20.23l-.49,2.16-4-12.19a9.49,9.49,0,0,1,1.31-2.6l1-2A103.86,103.86,0,0,1,861.14,464.43Z"/><path class="cls-42" d="M844.13,486.07c.87,1.86.92,4.09,1.28,6.1a114.76,114.76,0,0,1,1.47,23.27c-.07,3,.11,6.31-.84,9.15l-.15.41-4.26,0-2.25-3.13C836.58,509.55,839.16,497.43,844.13,486.07Z"/><path class="cls-47" d="M812,543l50.24,0,.72,1.09-4.33,59.75c-3.71.65-8.36.14-12.18.13l-27.22-.08Z"/><path class="cls-30" d="M567.31,566l14.63-71.83,5.3-26.82c.79-4,1.17-8.34,2.43-12.19a11.61,11.61,0,0,1,3.36-4.95,11.18,11.18,0,0,1,6-2.85c6.88-.89,14.45-.35,21.42-.37l39.36,1h66.71l35,.1c3.66.16,6.39,2.8,8.69,5.36a6,6,0,0,1,1.16,4.65c-.44,5.6-1.9,11.4-3,16.92l-5.89,29.35-15.52,79-.57,2.35.33,1.37c2.71,1.41,6.19,0,8,3,.47,2-.69,3.6-1.51,5.48-1.68,3.87-3.39,7.73-5.38,11.45L530,607.38c-8.11,0-54.58-.52-57.29.62l-18,.23-.82-1a42.84,42.84,0,0,1-3.56-4,5.65,5.65,0,0,1-2-2.48c-1-2.4-.39-6.57.6-8.94,5.34-1.14,10.36-1.07,15.8-.88l3-.07c1.4-1.09,3.49-1.14,5.2-.91l.75.11c1.89.13,6.45.25,7.82-.9L480,586.58l3.45,2.77a8.68,8.68,0,0,0,3.83-.32l6.17-1.93c1.66-.5,2.27-.66,3.1-2.23-.31-1.91-1.57-3.45-2.61-5C488.79,572,478,563.3,469.4,559.63a103.43,103.43,0,0,1,1.11-13.71c1.09-9.83,2.36-22.41,7.25-31.13,3-4.1,5.1-8.6,7.35-13.13l14-6.9,18.78,60.59c1.12.24,3.81.48,4.67,1Z"/><path class="cls-52" d="M677.4,498.53a16.19,16.19,0,0,1,10,2.53c4.16,2.76,7,7.94,7.79,12.81a26.09,26.09,0,0,1-4.46,19.23,26.77,26.77,0,0,1-18.07,11.23c-3.82-.32-7-.77-10.32-3a19.39,19.39,0,0,1-7.93-12.91,26,26,0,0,1,5.13-19.87A24.89,24.89,0,0,1,677.4,498.53Z"/><path class="cls-30" d="M675.69,505.46a13.38,13.38,0,0,1,7.85,2,14.46,14.46,0,0,1,5.49,8.66c.92,4.74-.6,9.34-3.17,13.31a16.89,16.89,0,0,1-11.52,7.85c-3.12-.12-6-.56-8.55-2.41a12.46,12.46,0,0,1-4.95-8.18,18.64,18.64,0,0,1,3.64-13.8l.4-.51C667.86,508.48,671,506.68,675.69,505.46Z"/><path class="cls-6" d="M566.88,566.41l14.68-72.07,5.32-26.91c.79-4,1.17-8.37,2.44-12.23a11.67,11.67,0,0,1,3.36-5,11.21,11.21,0,0,1,6-2.86c6.91-.89,14.5-.35,21.5-.37l39.61,1H761.54s6.39,2.65,8.7,5.2l-.92.15c-4,.59-12.66-.35-12.66-.35l-26.87,1-89.74-1-21.83,0c-3.78,0-8.12-.33-11.82.37a13.07,13.07,0,0,0-8,5.13c-1.45,2.15-1.89,5.75-2.46,8.31L592,485.09l-16.12,77.32-4.77,23.64c-.22.35-.63,1.23-1,1.44l-.25,2.45,2.4.2c0,3.85-1.06,8.27-3.9,11.06a6.32,6.32,0,0,1-3.88,1.68c-4.81.43-9.87.12-14.71.12l-26.87,1-72.71-.11a5.92,5.92,0,0,1-2.06-2.59c-1-2.51-.41-6.88.63-9.36,5.6-1.2,10.85-1.13,16.55-.92l3.11-.08a95.26,95.26,0,0,0,10.69.06h21.37l60.29.12a17.84,17.84,0,0,1,1.35-4.11l.4-.72-.06-1.75Z"/><path class="cls-53" d="M746.32,585.16l.34,1.4c2.77,1.45,6.33,0,8.21,3.09.48,2.07-.71,3.69-1.54,5.62-1.72,4-3.48,7.92-5.52,11.73L530,607.38c-8.11,0-54.58-.52-57.29.62l-17.38.24-.85-1a44,44,0,0,1-3.72-4.23l72.16,1,26.21,0c5.28,0,10.8.35,16-.16a6.21,6.21,0,0,0,3.64-1.65c3.1-3,4.26-7.72,4.26-11.86l-2.56-.22.27-2.61c.38-.21.81-1.15,1-1.53l173.88.42Z"/><path class="cls-52" d="M746.42,585.49l.33,1.37c2.71,1.41,8,2.14,8,2.14L618,590h-31.8s-9.81-.56-13.92.39l-2.4-.2.26-2.45a6.36,6.36,0,0,0,1-1.74H745.76Z"/><path class="cls-39" d="M485.41,502.17l13.91-6.87L518,555.52c1.11.24,3.78.47,4.64,1l44.47,9.55-4.4,18,0,1.73-.4.71A15.7,15.7,0,0,0,561,591H478.26c-3.33-.12-6.85.15-10.14-.2,1.39-1.08,3.47-1.13,5.17-.9l.75.1c1.87.13,6.4.25,7.77-.89l-1.45-2.55,3.43,2.75a8.71,8.71,0,0,0,3.8-.32l6.13-1.91c1.65-.51,2.26-.66,3.08-2.22-.3-1.9-1.55-3.44-2.59-5-5.14-7.76-15.85-16.44-24.41-20.09a104.19,104.19,0,0,1,1.1-13.63c1.09-9.76,2.35-22.26,7.21-30.93C481.09,511.14,483.17,506.67,485.41,502.17Z"/><path class="cls-24" d="M562.21,583.38a4.76,4.76,0,0,0-.78-1.26c-1.3-1.1-5-1.85-6.7-2.39l-21.59-6.68a50.75,50.75,0,0,1-7.49-3.44c-1.87-3.82-2.82-8.36-3.92-12.48l.9-.57,44.47,9.55-4.4,18Z"/><path class="cls-11" d="M478.11,515.21l9.24,34.09c1.7,6.06,3.26,13.4,6.19,19a11.47,11.47,0,0,0,4.34,4.43c3.88,2.24,9.48,2.8,13.84,3.59l28.69,4.47c7,1,14.73,2.83,21.8,2.62l.49.7,0,1.73-.4.71A15.7,15.7,0,0,0,561,591H478.26c-3.33-.12-6.85.15-10.14-.2,1.39-1.08,3.47-1.13,5.17-.9l.75.1c1.87.13,6.4.25,7.77-.89l-1.45-2.55,3.43,2.75a8.71,8.71,0,0,0,3.8-.32l6.13-1.91c1.65-.51,2.26-.66,3.08-2.22-.3-1.9-1.55-3.44-2.59-5-5.14-7.76-15.85-16.44-24.41-20.09a104.19,104.19,0,0,1,1.1-13.63C472,536.38,473.25,523.88,478.11,515.21Z"/><path class="cls-11" d="M858.68,604h17.51l-.86,7,16.37,1H911v11.89c.25,1.86.52,4.25-.09,6s-.72,2.38-2.12,3.13H898.18c-2.06,5.87-4.83,10.92-7.47,16.11a230.09,230.09,0,0,1-33.47,49.35c-8.28,9.16-17.78,17.64-26.86,26l-15.27-78.18c-4.81.07-27.45-.57-30.14,1.48l28.46,96.51L846,854.46l-103.39-6.54-15-.55-8.56,30.52-5.89-.39c0-3,1-6.18,1.53-9.11L718.57,847l-148.28-4.92a36.07,36.07,0,0,0-6.34-4.57l-.56-.3c-9.71-5.49-21.46-4.3-32-2.47l4.12-14.39c-3.2-.35-20-.67-21.95.6a84.37,84.37,0,0,0-4.28,14.36c-4.23.91-9.1,2.19-12.14,5.51l-1.3.66c-6-3.23-12.12-4.94-19-4.32a29.69,29.69,0,0,1-6,.15c-6.87,3.07-15.75,2.11-23.14,2l.7-3.28c-7.22-2.56-15.05-1.13-22.16-3.18-1.18,0-1.29.13-2.29-.6l0-2.06v-3.3a59.85,59.85,0,0,1-9.86-.89l-5.34,1H388.54l-1.82.17c-.74,1.21-.53,2-.51,3.41l-.65,1.81c-9.24.34-36.11,1.34-42.3,7.79l-1,1.2a14.25,14.25,0,0,0-1.92,4.69,21.58,21.58,0,0,0-6.48,1.9,10.54,10.54,0,0,1-2.82.95,9.07,9.07,0,0,1,4.68-3.47l.39-.07.26-.53c-3.46,1.41-9,.36-12.78,1-4.51.76-9.58.74-14.2,1l5.12,30.58c-1.4.83-2.67.53-4.28.5-1.11-1.3-1.55-4-1.87-5.68-3.12-7.61-5-16.7-7.05-24.69l-117,7.59,27.63-120.3,13.29-56.17L228,664.18l-.58-1.33-20.11-3.94-2.1,12.78-7.29,44.13c-5.81-4.53-11.3-11.43-16-17.1-12.41-15-23.75-30.31-32.49-47.82-2.73-5.46-5.65-11.27-7.36-17.14l-.15-.51c-1.66-.61-4.54-.25-6.36-.25l-16.81,0c-2.09,0-4.56.43-6.39-.56l-.15-1.84c2.9-1.62,113.1.12,127.77-.5l.05-.43V611h20.44c.76.36,2.27,2,3.16,2.37A33.13,33.13,0,0,0,268,614h18l2.72-4L311,611l31.12-1,53.64,1,13.57,0a36.49,36.49,0,0,0,6.94-.31l.42,0L417,609l38.21-1,15.28-.2-.78.34c-1.87.76-4.51.23-6.51.19-1.75,0-3.38.37-5.12.42-2.92.08-6.6-.38-9.3.86,2.47,0,5,.11,7.45-.11a26.47,26.47,0,0,1,4.71.07c1.25.11,2.55-.13,3.84-.07.64,0,1.23,0,1.87.07,1.5.14,2.68-.25,4.25.08l0,.35,349.64.81L819.2,603h27.29Z"/><path class="cls-29" d="M396.15,702.37c4.87-.9,10.61-.35,15.61-.37l32.84-.31a11.18,11.18,0,0,1,4.26,1.73Z"/><path class="cls-5" d="M393,737.3a6.39,6.39,0,0,0,3,.41V827h-7.88l3.92-.5c.2-.22.51-.37.62-.64.32-.81,0-3.81.34-4.79V737.3Z"/><path class="cls-27" d="M752.87,633.6c2-1.35,9.77-.61,12.48-.6l48.38.55.5,7.45H782.82l.74-3-31.5-.11A26.16,26.16,0,0,1,752.87,633.6Z"/><path class="cls-29" d="M751.72,633h33.4l-1,5-33.36-.12A28.77,28.77,0,0,1,751.72,633Z"/><path class="cls-27" d="M323.65,738.06c-.52.22-.19.12-1.08.15-5.3.17-13.57,1.17-17.61-2.93a14.49,14.49,0,0,1-4-10c0-3.06.55-6.78,3-8.92,3.36-2.91,15-1.65,19.39-1.48l.48,1.52.23.66a22.26,22.26,0,0,1,.23,5.36Z"/><path class="cls-20" d="M301.09,671.42a21.78,21.78,0,0,1-7.29-4.56c-8.64-8.46-8.95-21.54-9.05-32.86h30.81c2.6,12.52,4.69,25.19,9.8,37Z"/><path class="cls-29" d="M323.37,714,420,715l28.51-.07c3.78,0,8.21.46,11.92-.07a4.75,4.75,0,0,0,1.62-.61l-3.63,24.67-.37-.21c-2.36-1.56-38.25-.59-44.27-.71h-4.58s-8.8-1.06-13-.29a11.08,11.08,0,0,1-3.64-.71l-69,.77.68-16a22.91,22.91,0,0,0-.23-5.5l-.24-.66Z"/><path class="cls-5" d="M751.42,638h32.14l-.74,3h31.41a43,43,0,0,1,.88,5.24c-4.81.07-27.45-.57-30.14,1.48l-2.22-6.34-55.14,206-8.56,30.52-5.89-.39c0-3,1-6.18,1.53-9.11L718.57,847Z"/><path class="cls-11" d="M409,738l5,0c5.9.11,41.09-.84,43.41.68l.36.21-12.84,84.24a55.84,55.84,0,0,0,6.21-.09l-2.94,13.1c-7.22-2.54-15-1.11-22.14-3.16-1.18,0-1.29.13-2.3-.59l.25-2v-3.49a59.85,59.85,0,0,1-9.86-.89l-5.34,1H396l0-88.61C400.16,737.64,404.74,738,409,738Z"/><path class="cls-46" d="M424,826.89l1.87.14a8,8,0,0,1,.22,5.82c-1.18,0-1.29.13-2.3-.6l.25-2.06Z"/><path class="cls-5" d="M409.39,737l4.61,0-.11,90L409,827Z"/><path class="cls-19" d="M396,737.92c4.16-.77,8.75-.41,13-.41L408.57,827H396Z"/><path class="cls-20" d="M315.64,635h30.24c-.71,9.13-.33,21.66,5.69,29a18,18,0,0,0,12.8,6.75c11.52.9,23.47.29,35.05.29l66.12-.28c1.33,0,1.24-.28,2.27.64l-.48,3.76-4.26,29.27c-1.46-.62-3.38-.38-4.93-.39h-9.28l-4.26-2H411.76l-15.61,1H350.38l-9.12,1-16.81.25c-10.09.27-21.34,1.94-31.34.89a8.54,8.54,0,0,1-5.91-3.59c-2.93-4.07-2.91-13.76-2-18.42l.13-.61a10.9,10.9,0,0,1,1.81-4.59c2.07-2.78,6-6,9.75-5.88,1.26,0,2.22.41,3.5.14L301,672l24.31-.41C320.28,659.9,318.21,647.38,315.64,635Z"/><path class="cls-26" d="M445.14,675a15.84,15.84,0,0,0,4.07-.23,14.16,14.16,0,0,1,4.16-.24c3.5.26,8.11-.55,11.67.58l2.25.28-4.22,29c-1.44-.62-3.35-.38-4.89-.39l-9.32,0a11.2,11.2,0,0,0-4.26-1.74c2.86-.22,5.3-.18,7.74-1.91a12,12,0,0,0,4.69-8.38c.59-4,.53-8.8-2.06-12.09S449.06,675.56,445.14,675Z"/><path class="cls-29" d="M315.64,635h30.24c-.71,9.13-.33,21.66,5.69,29a18,18,0,0,0,12.8,6.75c11.52.9,23.47.29,35.05.29l66.85-.3c1.43,0,1.34-.3,2.44.69l-.51,4-2.45-.31c-3.27-1-7.34-.57-10.81-.57-1.95,0-4.33-.27-6.22.18a17.14,17.14,0,0,1-4.52.27l-96.52,1L313,675.86c-5.16,0-10.68-.45-15.81,0a8.8,8.8,0,0,0-5.52,2.57c-3.1,3-3.59,7.42-3.47,11.51a12.52,12.52,0,0,0,3.68,9,8.18,8.18,0,0,0,3.14,1.92l.52.21c3.4,1.25,8.59.91,12.2,1h29.08s9.2.39,13.56.92a63.16,63.16,0,0,1-9.12.08l-17.43.25c-9.79.26-20.68,1.87-30.37.85a8.17,8.17,0,0,1-5.72-3.48c-2.84-3.94-2.82-13.32-1.94-17.84l.12-.59a10.57,10.57,0,0,1,1.76-4.45c2-2.69,5.85-5.78,9.44-5.69a13.28,13.28,0,0,0,3.39.13l.62-.18,24.2-.41C320.28,659.9,318.21,647.38,315.64,635Z"/><path class="cls-45" d="M492.94,634l53.42,1,13.31.13a40.08,40.08,0,0,1,6.93.29c3.69.71,7.57,3.37,10.32,5.89a27.78,27.78,0,0,1,7.72,12.32l.25.78a26,26,0,0,1,.5,12.48c-1.59,7.22-4.5,14.73-6.79,21.79L568,722l-30.17,97.75a7.89,7.89,0,0,1-2.23.28c-3.19-.35-19.91-.67-21.87.59a8.27,8.27,0,0,1-3.05-.35L531.5,671l-10.58,0c.25-2,1-3.93,1.23-6,.41-3.78-1.48-8.38-3.19-11.72l-.36-.69c-3.54-6.82-11.63-11.78-18.37-15.06-2.14-1-4.56-1.73-6.55-3Z"/><path class="cls-11" d="M782.75,641.38l2.22,6.34,28.46,96.51L846,854.46l-103.39-6.54-15-.55Z"/><path class="cls-27" d="M813.43,744.23,846,854.46l-103.39-6.54c1.81-3,4.21-5.86,6.21-8.82l12.34-19.36C777,793.25,789.9,765.26,813.43,744.23Z"/><path class="cls-54" d="M858.68,604h17.51l-.86,7,16.37,1H911v11.89s.52,4.25-.09,5.11l-458.74,1-148.78,1H260.06c-6.51-.84-13.81-1.45-20.23-.65l.17-.42V611h20.44c.76.36,2.27,2,3.16,2.37A33.13,33.13,0,0,0,268,614h18l2.72-4L311,611l31.12-1,53.64,1,13.57,0a36.49,36.49,0,0,0,6.94-.31l.42,0L417,609l38.21-1,15.28-.2-.78.34c-1.87.76-4.51.23-6.51.19-1.75,0-3.38.37-5.12.42-2.92.08-6.6-.38-9.3.86,2.47,0,5,.11,7.45-.11a26.47,26.47,0,0,1,4.71.07c1.25.11,2.55-.13,3.84-.07.64,0,1.23,0,1.87.07,1.5.14,2.68-.25,4.25.08l0,.35,349.64.81L819.2,603h27.29Z"/><path class="cls-7" d="M455.17,608h16.46l-.86.23c-2.08.84-5,.26-7.23.21-2,0-3.76.41-5.69.46-3.25.09-7.34-.42-10.35,1,2.75,0,5.55.12,8.29-.12a29.43,29.43,0,0,1,5.14.06c1.42.14,2.89-.14,4.36-.06.7,0,1.36,0,2.07.07,1.67.16,3-.28,4.73.1l0,.38c-4.74.75-15.66.71-15.66.71H416.88l.3-2Z"/><path class="cls-50" d="M859.17,604h16.49l-.86,7-16.65.08A43.3,43.3,0,0,1,859.17,604Z"/><path class="cls-49" d="M820.52,604l25.48.08c3.58,0,7.93.48,11.4-.13a42.92,42.92,0,0,0-1,7l-34.71-.27Z"/><path class="cls-8" d="M345.68,635l147.83.43.71.49c1.91,1.24,4.24,1.91,6.3,2.91,6.48,3.15,14.26,7.92,17.66,14.48l.36.67c1.63,3.21,3.45,7.64,3.06,11.28-.21,2-.94,3.79-1.18,5.74h11L510.52,820.63a8.3,8.3,0,0,0,3.06.35,84.37,84.37,0,0,0-4.28,14.36c-4.23.91-9.1,2.19-12.14,5.51l-1.3.66c-6-3.23-12.12-4.94-19-4.32a29.69,29.69,0,0,1-6,.15c-6.87,3.07-15.75,2.11-23.14,2l.7-3.28,2.94-13.18a55.88,55.88,0,0,1-6.21.09l12.84-84.7L461.62,714l1.45-9.7,4.22-29,.47-3.73a2.64,2.64,0,0,0-2.24-.61l-65.89.27c-11.67,0-23.71.62-35.32-.29a18.16,18.16,0,0,1-12.91-6.81C345.34,656.83,345,644.2,345.68,635Z"/><path class="cls-24" d="M451.43,822.85c3.88.06,21.63.43,23.52,2.12l-4,12.37c-6.87,3.07-15.75,2.11-23.14,2l.7-3.28Z"/><path class="cls-11" d="M520.58,671l10.85,0L510.52,820.86a8.3,8.3,0,0,0,3.06.35,84.37,84.37,0,0,0-4.28,14.36c-4.23.92-9.1,2.19-12.14,5.51l-1.3.66c-6-3.23-12.12-4.94-19-4.32a29.69,29.69,0,0,1-6,.15l4-12.37.49.24a6.3,6.3,0,0,0,4.47.26c1.64-3.44,2.35-7.8,3.3-11.51L488.78,793Z"/><path class="cls-55" d="M207.21,658.72,211.49,634l60.86,0a4.78,4.78,0,0,1,.52,2c1.59,13.56,4.68,27.16,6.84,40.67l16.43,96.81,8.38,44.41c.91,5.08,2.74,11.38,2.63,16.46l2,11.89,5.11,30.52c-1.4.83-2.66.53-4.27.5-1.11-1.3-1.55-4-1.87-5.67-3.11-7.6-4.94-16.67-7-24.64L184.3,854.53l27.57-120,13.27-56.06L227.86,664l-.58-1.33Z"/><path class="cls-19" d="M308.09,871.93l.8-.18c0,1.89.85,1,1.75,2.25a16.6,16.6,0,0,1,1.27,2.73,37,37,0,0,1,.88-5.12,16.76,16.76,0,0,1-.5-2.5c-.51-2.07-.24.13-.43-1.69l-.19-1.46-.38-1.85-.25-1.25-.38-.5.13-1.75c-.13-.79-.29-2.24-.5-3-.37-1.32-.32-.47-.4-1.42l-.1-1.58a7.36,7.36,0,0,1-.47-2.3l0-1.2c-.25-1-.25-2.07-.5-3s-.24-2-.5-3-.24-2-.5-3c-.48-1.74-.29-.07-.41-1.91l-.09-1.09a8.16,8.16,0,0,1-.14-4.41l2,11.89,5.11,30.52c-1.4.83-2.66.52-4.27.5C308.85,876.31,308.41,873.62,308.09,871.93Z"/><path class="cls-11" d="M227.86,664.27l.68-1.27,19.87,0L284,789.43c-4.51-1.48-8.7-4.61-12.73-7.13a287.22,287.22,0,0,1-34.75-25.38l-24.67-22.15,13.27-56.06Z"/><path class="cls-27" d="M184.3,854.87l27.57-120.06L236.54,757a288.22,288.22,0,0,0,34.75,25.37c4,2.52,8.22,5.65,12.73,7.13l17,57.83Z"/></svg>