<?xml version="1.0" encoding="utf-8"?>
<!-- Generator: Adobe Illustrator 24.3.0, SVG Export Plug-In . SVG Version: 6.00 Build 0)  -->
<svg version="1.1" id="Layer_1" xmlns="http://www.w3.org/2000/svg" xmlns:xlink="http://www.w3.org/1999/xlink" x="0px" y="0px"
	 viewBox="0 0 400 150" style="enable-background:new 0 0 400 150;" xml:space="preserve">
<style type="text/css">
	.st0{fill:#10B981;}
</style>
<g>
	<path class="st0" d="M87.2,108.8c-0.1,0.7-0.1,1.3,0,2l3.1,0.4c4.4,1,8,4.2,9.6,8.4c0.1,0.3,0.2,0.7,0.4,1l-41.5,0.1
		c0.2-0.4,0.4-0.9,0.5-1.3c1.8-4.5,5.8-7.7,10.5-8.4c0.7-0.1,1.4-0.1,2.1-0.2c0-0.2,0-0.4,0-0.5v-6.8H34.2c-1.2,0.1-2.4,0-3.6-0.3
		c-2.6-0.9-4.5-3.2-4.9-5.9c0-0.7,0-1.5,0-2.2v-58c-0.1-0.7,0-1.5,0.2-2.2c0.9-2.8,3-5,6-5.3c0.8,0,1.6,0,2.4,0c0.5,0,1.1,0,1.6,0
		H122c1.7,0,3.5-0.1,5.2,0c3,0.4,5.5,2.6,6.2,5.6c0.1,0.8,0.1,1.5,0.1,2.3v59c0,3.9-3.1,7-7,7c-0.1,0-0.1,0-0.2,0H87.2L87.2,108.8z
		 M79.3,41.4l-23,10.6c-1.2,0.5-2.4,1-3.5,1.7c-1.7,1-2.4,3.5-0.8,4.5c0.8,0.5,0.9,0.1,1,1.1v1.7c0,1.2-0.1,11.4,0,11.7
		c0.2,0.3,0.5,0.5,0.8,0.6l23,15.2c0.8,0.7,1.8,1.2,2.8,1.5c0.9-0.3,1.8-0.8,2.6-1.3l20.4-12.6c1.3-0.7,1.9-0.5,1.9-1.8V60.7
		c0-0.5,0-1.1,0.1-1.6h0.1c1.2-0.1,2.3-0.7,3-1.7c0.8-1.2,0.4-2.8-0.8-3.5c-0.1,0-0.1-0.1-0.2-0.1c-0.8-0.5-1.8-0.8-2.6-1.2
		L81.4,42.2C80.9,42,79.9,41.3,79.3,41.4L79.3,41.4z"/>
	<path class="st0" d="M79.6,64.6c-0.7,0-4.9-2.2-5.9-2.7l-11.4-5.6l17.4-7.9c1.2,0.5,2.5,1.1,3.7,1.7l9.8,4.5c1.3,0.4,2.5,1,3.7,1.7
		c-1.2,0.7-2.4,1.4-3.6,1.9l-11.2,5.3C81.3,63.9,80.4,64.3,79.6,64.6z"/>
	<path class="st0" d="M96.2,71.9l-14.8,9.3c-2.7,1.8-1.7,1.6-4.2-0.2l-16-10.6c-2.3-1.4-1.8-0.8-1.8-3.6V62l19.7,9.8l17.7-8.6
		c0.3-0.1,0.7-0.2,1-0.4l0.1,8.2c-0.1,0.2-0.4,0.2-0.6,0.3L96.2,71.9z"/>
	<polygon class="st0" points="148,53.1 157.9,53.1 157.9,104 165.8,104 165.8,53.1 175.1,53.1 175.1,46.5 148,46.5 	"/>
	<path class="st0" d="M251.1,63.9c-2.1-1.1-4.5-1.6-6.9-1.4c-3.3,0-5.8,0.6-7.5,1.9c-1.8,1.4-3,3.3-3.5,5.5c-0.7,2.8-1,5.7-0.9,8.7
		v9.2c0,2.8,0.3,5.7,0.9,8.4c0.5,2.2,1.7,4.2,3.5,5.6c1.7,1.3,4.3,2,7.6,2c2.4,0.1,4.7-0.4,6.8-1.5c1.6-1,2.8-2.6,3.4-4.5
		c0.7-2.3,1-4.6,1-7v-2.7h-6.6v3.3c0,1.2-0.1,2.4-0.2,3.6c-0.1,0.9-0.5,1.8-1.1,2.5c-0.8,0.6-1.8,1-2.8,0.9
		c-1.4,0.1-2.8-0.5-3.5-1.7c-0.7-1.2-1-3.5-1-6.9V77.1c0-1.8,0.1-3.6,0.3-5.4c0.1-1.1,0.5-2.1,1.3-2.8c0.8-0.6,1.8-0.9,2.8-0.8
		c0.9-0.1,1.8,0.2,2.6,0.7c0.7,0.6,1.2,1.3,1.3,2.2c0.3,1.4,0.4,2.8,0.3,4.2v2.4h6.6v-2.3c0.1-2.4-0.2-4.7-0.9-7
		C254,66.4,252.8,64.9,251.1,63.9z"/>
	<path class="st0" d="M284.1,64.1c-1-0.9-2.4-1.3-3.8-1.3c-2,0-4,0.5-5.7,1.4c-1.7,0.9-3.3,2-4.6,3.4V47.2h-7.3V104h7.3V71.3
		c0.8-0.7,1.7-1.4,2.7-1.9c0.8-0.5,1.8-0.8,2.7-0.8c1-0.1,2,0.3,2.6,1.2c0.5,1.1,0.7,2.2,0.6,3.4V104h7.9V71.2
		c0-1.3-0.2-2.6-0.5-3.9C285.6,66.1,285,65,284.1,64.1z"/>
	<polygon class="st0" points="334.2,47.2 324.1,93.3 313.9,47.2 306.1,47.2 305,104 311.5,104 312.2,62.7 321.8,104 326.3,104 
		336,62.7 336.6,104 343.1,104 342,47.2 	"/>
	<path class="st0" d="M193.9,64.6c-1.6-1.4-4.2-2.1-7.6-2.1c-2.6-0.1-5.1,0.5-7.4,1.8c-1.8,1.3-3.2,3.2-3.7,5.4
		c-0.8,2.9-1.1,6-1.1,9v9.2c-0.1,3,0.3,6,1,8.9c0.5,2.2,1.8,4.1,3.7,5.5c1.8,1.2,4.2,1.9,7.5,1.9c4.2,0,7.2-1.2,9-3.5
		s2.6-5.6,2.6-9.7v-1.6H190v2.4c0,1.2-0.1,2.3-0.3,3.5c-0.1,0.9-0.6,1.7-1.2,2.3c-0.7,0.6-1.6,0.9-2.6,0.8c-0.9,0-1.8-0.2-2.6-0.7
		c-0.7-0.6-1.2-1.4-1.5-2.2c-0.3-1.3-0.5-2.6-0.5-3.9v-8h16.5v-3.3c0-3.2-0.2-6.4-0.8-9.6C196.8,68.3,195.7,66.2,193.9,64.6z
		 M190,79.6h-8.6v-2.2c0-1.8,0.1-3.7,0.4-5.5c0.1-1.1,0.6-2.1,1.3-2.8c0.8-0.6,1.8-0.9,2.8-0.8c1-0.1,2,0.2,2.8,0.9
		c0.7,0.7,1.1,1.6,1.2,2.6c0.2,1.4,0.3,2.9,0.3,4.3L190,79.6z"/>
	<path class="st0" d="M225.8,97.9c-0.1-1.2-0.1-2.4-0.1-3.7V75.6c0-4.2-0.8-7.4-2.5-9.6s-4.5-3.3-8.6-3.3s-7.2,1.1-9.1,3.2
		c-2,2.1-3,5.5-3.1,10l7.4,0.3v-2c0-1,0.1-2.1,0.4-3.1c0.2-0.8,0.7-1.5,1.4-2c0.8-0.5,1.7-0.8,2.6-0.7c1-0.1,1.9,0.2,2.7,0.8
		c0.7,0.7,1.1,1.5,1.2,2.4c0.2,1.4,0.3,2.7,0.3,4.1v2.9c-2.2,0.8-4.3,1.7-6.3,2.6c-1.9,0.8-3.7,1.9-5.3,3.1
		c-1.5,1.2-2.7,2.7-3.6,4.4c-0.9,2-1.4,4.3-1.3,6.5c0,1.1,0.2,2.3,0.6,3.3c0.7,1.8,1.9,3.5,3.4,4.6c1.3,0.9,2.8,1.4,4.3,1.4
		c2.1,0.1,4.1-0.6,5.7-2.1c1.3-1.2,2.2-2.8,2.8-4.5c0.1,0.9,0.2,2,0.5,3.1s0.4,2.1,0.5,2.8h6.6c-0.1-0.9-0.2-1.8-0.3-2.8
		S225.8,99.1,225.8,97.9z M218.4,94.5c-0.3,0.5-0.7,0.9-1.1,1.3c-0.5,0.6-1.1,1-1.8,1.4c-0.6,0.4-1.4,0.6-2.1,0.6
		c-1.1,0-2.1-0.5-2.7-1.4c-1.1-2.2-1.2-4.7-0.2-7c0.5-0.9,1.1-1.8,1.8-2.5c0.8-0.8,1.7-1.5,2.7-2.1c1-0.7,2.1-1.3,3.3-2V94.5z"/>
	<path class="st0" d="M374.3,83.5v-3.3c0-3.2-0.2-6.4-0.8-9.6c-0.4-2.3-1.5-4.5-3.2-6.1c-1.6-1.4-4.2-2.1-7.6-2.1
		c-2.6-0.1-5.1,0.5-7.4,1.8c-1.8,1.3-3.2,3.2-3.7,5.4c-0.8,2.9-1.1,6-1.1,9v9.2c-0.1,3,0.3,6,1,8.9c0.5,2.2,1.8,4.1,3.7,5.5
		c1.8,1.2,4.2,1.9,7.5,1.9c4.2,0,7.2-1.2,9-3.5s2.6-5.6,2.6-9.7v-1.6H367v2.4c0,1.2-0.1,2.3-0.3,3.5c-0.1,0.9-0.6,1.7-1.2,2.3
		c-0.7,0.6-1.6,0.9-2.5,0.8c-0.9,0-1.8-0.2-2.6-0.7c-0.7-0.6-1.2-1.4-1.5-2.2c-0.3-1.3-0.5-2.6-0.5-3.9v-8L374.3,83.5z M358.5,77.4
		c0-1.8,0.1-3.7,0.4-5.5c0.1-1.1,0.6-2.1,1.3-2.8c0.8-0.6,1.8-0.9,2.8-0.8c1-0.1,2,0.2,2.8,0.9c0.6,0.7,1,1.6,1.1,2.6
		c0.2,1.4,0.3,2.8,0.3,4.3v3.7h-8.6L358.5,77.4z"/>
</g>
</svg>
