<svg id="Layer_1" data-name="Layer 1" xmlns="http://www.w3.org/2000/svg" viewBox="0 0 400 150"><defs><style>.cls-1{fill:#059669;}.cls-2{fill:#047857;}</style></defs><path class="cls-1" d="M66.48,108.83a12.25,12.25,0,0,0,0,2l3.1.4a13.38,13.38,0,0,1,9.61,8.4,4.93,4.93,0,0,0,.37,1l-41.47.08a7.65,7.65,0,0,0,.49-1.32A13.46,13.46,0,0,1,49.12,111c.7-.12,1.42-.14,2.13-.22a1.39,1.39,0,0,0,0-.54V103.4l-37.76,0a12,12,0,0,1-3.64-.28A7.07,7.07,0,0,1,5,97.2c0-.73,0-1.49,0-2.23V37a7.82,7.82,0,0,1,.16-2.22c.92-2.75,2.95-5,6-5.34a22,22,0,0,1,2.44,0c.52,0,1.09,0,1.62,0h86.05c1.72,0,3.51-.1,5.21,0A7.33,7.33,0,0,1,112.67,35a12.83,12.83,0,0,1,.09,2.32v59a7,7,0,0,1-7.2,7H66.49ZM58.57,41.42,35.55,52A30.84,30.84,0,0,0,32,53.65c-1.67,1-2.42,3.46-.83,4.51.78.52.95.08,1,1.1V61c0,1.25-.12,11.37,0,11.67a2.78,2.78,0,0,0,.79.64l23,15.15A7.18,7.18,0,0,0,58.78,90a10.05,10.05,0,0,0,2.58-1.34L81.74,76.11c1.34-.74,1.92-.51,1.93-1.84l0-13.56a8,8,0,0,1,.07-1.62h.06a4.48,4.48,0,0,0,3-1.69,2.55,2.55,0,0,0-1-3.63C85,53.3,84,53,83.15,52.61L60.69,42.25c-.53-.24-1.51-.93-2.09-.83Z"/><path class="cls-1" d="M58.88,64.68c-.67,0-4.91-2.22-5.89-2.7L41.58,56.33,59,48.45c1.25.5,2.47,1.14,3.7,1.71l9.79,4.48a20.11,20.11,0,0,1,3.7,1.72,23.15,23.15,0,0,1-3.63,1.89L61.39,63.54A20.16,20.16,0,0,1,58.88,64.68Z"/><path class="cls-1" d="M75.55,72l-14.8,9.27c-2.7,1.84-1.72,1.62-4.25-.15l-16-10.57c-2.33-1.43-1.82-.75-1.82-3.56V62.09l19.7,9.83,17.65-8.63a5.33,5.33,0,0,0,1-.41l.06,8.21c-.1.16-.39.24-.56.33Z"/><polygon class="cls-2" points="127.3 53.17 137.21 53.17 137.21 104.06 145.15 104.06 145.15 53.17 154.4 53.17 154.4 46.56 127.3 46.56 127.3 53.17"/><path class="cls-2" d="M181.09,64.2a5.26,5.26,0,0,0-3.76-1.26,11.82,11.82,0,0,0-5.72,1.4A22.12,22.12,0,0,0,167,67.71V47.22h-7.27v56.84H167V71.39a13.55,13.55,0,0,1,2.67-1.9,5.66,5.66,0,0,1,2.73-.78,2.62,2.62,0,0,1,2.57,1.2,7.55,7.55,0,0,1,.62,3.38v30.77h7.93V71.22a14.38,14.38,0,0,0-.53-3.86A6.9,6.9,0,0,0,181.09,64.2Z"/><path class="cls-2" d="M267.11,64a13.75,13.75,0,0,0-6.89-1.42c-3.3,0-5.82.63-7.54,1.91a9.52,9.52,0,0,0-3.5,5.5,35.4,35.4,0,0,0-.92,8.66v9.25a35.69,35.69,0,0,0,.88,8.42,9.7,9.7,0,0,0,3.47,5.6c1.72,1.32,4.26,2,7.61,2A12.81,12.81,0,0,0,267,102.4a8,8,0,0,0,3.4-4.46,22.43,22.43,0,0,0,.95-7V88.2h-6.61v3.27a24.58,24.58,0,0,1-.24,3.62,4.28,4.28,0,0,1-1.12,2.47,3.78,3.78,0,0,1-2.76.87,3.66,3.66,0,0,1-3.49-1.74q-1-1.74-1-6.89V77.14a36,36,0,0,1,.32-5.39,4.52,4.52,0,0,1,1.29-2.82,4.15,4.15,0,0,1,2.79-.84,4.22,4.22,0,0,1,2.59.7A3.76,3.76,0,0,1,264.44,71a19.88,19.88,0,0,1,.34,4.17v2.44h6.61V75.26a22.93,22.93,0,0,0-.91-7A7.42,7.42,0,0,0,267.11,64Z"/><path class="cls-2" d="M300.07,64.2a5.26,5.26,0,0,0-3.76-1.26,11.79,11.79,0,0,0-5.72,1.4,22.12,22.12,0,0,0-4.65,3.37V47.22h-7.27v56.84h7.27V71.39a13.79,13.79,0,0,1,2.66-1.9,5.7,5.7,0,0,1,2.74-.78,2.62,2.62,0,0,1,2.57,1.2,7.55,7.55,0,0,1,.62,3.38v30.77h7.93V71.22a14.38,14.38,0,0,0-.53-3.86A6.9,6.9,0,0,0,300.07,64.2Z"/><polygon class="cls-2" points="354.92 47.22 344.74 93.33 334.63 47.22 326.79 47.22 325.73 104.06 332.23 104.06 332.87 62.8 342.48 104.06 347 104.06 356.69 62.8 357.32 104.06 363.75 104.06 362.69 47.22 354.92 47.22"/><path class="cls-2" d="M209.88,64.63c-1.64-1.41-4.18-2.11-7.64-2.11a12.8,12.8,0,0,0-7.35,1.83,9.62,9.62,0,0,0-3.73,5.42,32.28,32.28,0,0,0-1.07,9V88a32.92,32.92,0,0,0,1,8.91,9.68,9.68,0,0,0,3.67,5.49c1.75,1.25,4.25,1.87,7.48,1.87,4.22,0,7.22-1.17,9-3.52s2.64-5.56,2.64-9.65V89.52H206v2.42a17,17,0,0,1-.32,3.5,4.1,4.1,0,0,1-1.19,2.28,3.66,3.66,0,0,1-2.55.79,4.38,4.38,0,0,1-2.61-.72,4.09,4.09,0,0,1-1.47-2.25,13.81,13.81,0,0,1-.46-3.94v-8h16.53v-3.3a50.49,50.49,0,0,0-.78-9.55A10.4,10.4,0,0,0,209.88,64.63Zm-3.92,15h-8.6V77.43a34.23,34.23,0,0,1,.35-5.53,4.87,4.87,0,0,1,1.3-2.85,4,4,0,0,1,2.76-.85,3.72,3.72,0,0,1,2.75.88,4.66,4.66,0,0,1,1.16,2.61A28.05,28.05,0,0,1,206,76Z"/><path class="cls-2" d="M241.75,97.94c-.07-1.18-.1-2.4-.1-3.66V75.68c0-4.17-.84-7.37-2.53-9.57s-4.54-3.31-8.56-3.31-7.16,1.07-9.13,3.2-3,5.46-3.08,10l7.44.28v-2a9.72,9.72,0,0,1,.43-3.07,3.86,3.86,0,0,1,1.41-2,4.26,4.26,0,0,1,2.56-.71,4,4,0,0,1,2.71.81,4.12,4.12,0,0,1,1.19,2.43,24.18,24.18,0,0,1,.29,4.09v2.88c-2.22.85-4.32,1.72-6.32,2.61a24.55,24.55,0,0,0-5.27,3.13,13,13,0,0,0-3.58,4.4,14.56,14.56,0,0,0-1.3,6.53,9.65,9.65,0,0,0,.6,3.32,10,10,0,0,0,3.45,4.62,7.1,7.1,0,0,0,4.33,1.38,7.6,7.6,0,0,0,5.67-2.08,10.8,10.8,0,0,0,2.78-4.47c.1.94.25,2,.47,3.13s.4,2.1.54,2.85h6.6c-.09-.89-.2-1.84-.31-2.85S241.83,99.11,241.75,97.94Zm-7.37-3.37a7.44,7.44,0,0,1-1.06,1.3,9.65,9.65,0,0,1-1.76,1.45,3.83,3.83,0,0,1-2.11.63,3,3,0,0,1-2.68-1.41,8.21,8.21,0,0,1-.24-7,8.31,8.31,0,0,1,1.83-2.46A18.21,18.21,0,0,1,231.07,85c1-.66,2.14-1.31,3.31-2Z"/><path class="cls-2" d="M395,83.57v-3.3a50.49,50.49,0,0,0-.78-9.55A10.4,10.4,0,0,0,391,64.63c-1.64-1.41-4.18-2.11-7.64-2.11A12.85,12.85,0,0,0,376,64.35a9.62,9.62,0,0,0-3.73,5.42,32.28,32.28,0,0,0-1.07,9V88a32.92,32.92,0,0,0,1,8.91,9.68,9.68,0,0,0,3.67,5.49c1.75,1.25,4.25,1.87,7.48,1.87,4.22,0,7.22-1.17,9-3.52S395,95.16,395,91.07V89.52h-7.27v2.42a17,17,0,0,1-.32,3.5,4.09,4.09,0,0,1-1.18,2.28,3.66,3.66,0,0,1-2.55.79,4.41,4.41,0,0,1-2.62-.72,4.09,4.09,0,0,1-1.47-2.25,14.23,14.23,0,0,1-.45-3.94v-8Zm-15.86-6.14a33.11,33.11,0,0,1,.35-5.53,4.81,4.81,0,0,1,1.29-2.85,4,4,0,0,1,2.76-.85,3.75,3.75,0,0,1,2.76.88,4.72,4.72,0,0,1,1.15,2.61,26.81,26.81,0,0,1,.28,4.26v3.66h-8.59Z"/></svg>