<?xml version="1.0" encoding="utf-8"?>
<!-- Generator: Adobe Illustrator 24.3.0, SVG Export Plug-In . SVG Version: 6.00 Build 0)  -->
<svg version="1.1" id="Layer_1" xmlns="http://www.w3.org/2000/svg" xmlns:xlink="http://www.w3.org/1999/xlink" x="0px" y="0px"
	 viewBox="0 0 500 500" style="enable-background:new 0 0 500 500;" xml:space="preserve">
<style type="text/css">
	.st0{opacity:0.25;}
	.st1{fill:#F5F5F5;}
	.st2{fill:#059669;}
	.st3{opacity:0.6;fill:#FFFFFF;enable-background:new    ;}
	.st4{fill:#FFFFFF;}
	.st5{opacity:0.4;}
	.st6{fill:#263238;}
	.st7{opacity:0.2;enable-background:new    ;}
	.st8{opacity:0.5;}
	.st9{opacity:0.6;}
	.st10{opacity:0.6;fill:#86EFAC;enable-background:new    ;}
	.st11{opacity:0.7;fill:#FFFFFF;enable-background:new    ;}
	.st12{fill:#E4897B;}
	.st13{opacity:0.4;fill:#FFFFFF;enable-background:new    ;}
	.st14{fill:#DE5753;}
</style>
<g id="freepik--Shadow--inject-4" class="st0">
	<ellipse id="freepik--path--inject-4" class="st1" cx="250" cy="416.2" rx="193.9" ry="11.3"/>
</g>
<g id="freepik--Tab--inject-4">
	<path class="st2" d="M143,152.8H322c4,0,7.3,3.3,7.3,7.3v210.7c0,4-3.3,7.3-7.3,7.3H143c-4,0-7.3-3.3-7.3-7.3V160.1
		C135.7,156.1,139,152.8,143,152.8z"/>
	<path class="st3" d="M143,152.8H322c4,0,7.3,3.3,7.3,7.3v210.7c0,4-3.3,7.3-7.3,7.3H143c-4,0-7.3-3.3-7.3-7.3V160.1
		C135.7,156.1,139,152.8,143,152.8z"/>
	<rect x="167.1" y="256.1" class="st4" width="130.8" height="22.4"/>
	<g class="st5">
		<path class="st6" d="M178.8,269.5v0.6h-4.5v-6.4h4.4v0.6h-3.7v2.3h3.3v0.6h-3.3v2.4L178.8,269.5z"/>
		<path class="st6" d="M179.7,267.4h2.4v0.6h-2.4V267.4z"/>
		<path class="st6" d="M191.5,267.3v2.8h-0.6v-2.7c0-1-0.5-1.5-1.4-1.5c-0.9,0-1.6,0.6-1.6,1.5c0,0.1,0,0.2,0,0.3v2.5h-0.7v-2.7
			c0-1-0.5-1.5-1.4-1.5c-0.9,0-1.6,0.6-1.6,1.5c0,0.1,0,0.2,0,0.3v2.5h-0.7v-4.8h0.6v0.9c0.4-0.6,1.1-1,1.8-0.9
			c0.7-0.1,1.4,0.3,1.7,1c0.4-0.7,1.1-1,1.9-1c1-0.1,1.9,0.7,2,1.7C191.5,267.1,191.5,267.2,191.5,267.3z"/>
		<path class="st6" d="M196.9,267.1v3h-0.6v-0.8c-0.4,0.6-1,0.9-1.7,0.8c-1.1,0-1.8-0.6-1.8-1.4s0.5-1.4,1.9-1.4h1.5v-0.3
			c0-0.8-0.5-1.3-1.4-1.3c-0.6,0-1.2,0.2-1.6,0.6l-0.3-0.5c0.6-0.5,1.3-0.7,2-0.7c0.9-0.1,1.8,0.6,1.9,1.5
			C196.9,266.9,196.9,267,196.9,267.1z M196.3,268.7v-0.8h-1.5c-0.9,0-1.2,0.4-1.2,0.9s0.4,0.9,1.2,0.9
			C195.4,269.7,196,269.3,196.3,268.7L196.3,268.7z"/>
		<path class="st6" d="M198.6,263.8c0-0.3,0.2-0.5,0.5-0.5c0,0,0,0,0,0c0.3,0,0.5,0.2,0.5,0.4c0,0,0,0,0,0c0,0.3-0.2,0.5-0.5,0.5
			c0,0,0,0,0,0C198.8,264.2,198.6,264,198.6,263.8C198.6,263.8,198.6,263.8,198.6,263.8z M198.7,265.3h0.6v4.8h-0.6V265.3z"/>
		<path class="st6" d="M201.2,263.3h0.6v6.8h-0.6V263.3z"/>
	</g>
	<rect x="167.1" y="286.8" class="st4" width="130.8" height="22.4"/>
	<g class="st5">
		<path class="st6" d="M179.3,296.5c0,1.4-1,2.2-2.6,2.2h-1.7v2h-0.7v-6.4h2.4C178.3,294.3,179.3,295.2,179.3,296.5z M178.6,296.5
			c0-1-0.7-1.6-2-1.6h-1.7v3.2h1.7C177.9,298.1,178.6,297.5,178.6,296.5z"/>
		<path class="st6" d="M184.2,297.8v3h-0.6V300c-0.4,0.6-1,0.9-1.7,0.8c-1.1,0-1.8-0.6-1.8-1.4s0.5-1.4,1.9-1.4h1.5v-0.3
			c0-0.8-0.5-1.3-1.4-1.3c-0.6,0-1.2,0.2-1.6,0.6l-0.3-0.5c0.6-0.4,1.3-0.7,2-0.6c0.9-0.1,1.8,0.5,1.9,1.5
			C184.2,297.5,184.2,297.6,184.2,297.8z M183.5,299.3v-0.8H182c-0.9,0-1.2,0.4-1.2,0.9s0.4,0.9,1.2,0.9
			C182.7,300.3,183.3,299.9,183.5,299.3L183.5,299.3z"/>
		<path class="st6" d="M185.3,300.2l0.3-0.5c0.5,0.4,1.1,0.5,1.7,0.5c0.9,0,1.3-0.3,1.3-0.8c0-1.3-3.1-0.3-3.1-2.2
			c0-0.8,0.7-1.4,1.9-1.4c0.6,0,1.2,0.2,1.7,0.5l-0.3,0.5c-0.4-0.3-0.9-0.4-1.4-0.4c-0.9,0-1.3,0.3-1.3,0.8c0,1.3,3.1,0.3,3.1,2.2
			c0,0.8-0.7,1.4-2,1.4C186.5,300.8,185.9,300.6,185.3,300.2z"/>
		<path class="st6" d="M189.8,300.2l0.3-0.5c0.5,0.4,1.1,0.5,1.7,0.5c0.9,0,1.3-0.3,1.3-0.8c0-1.3-3.1-0.3-3.1-2.2
			c0-0.8,0.7-1.4,1.9-1.4c0.6,0,1.2,0.1,1.7,0.5l-0.3,0.5c-0.4-0.3-0.9-0.4-1.4-0.4c-0.9,0-1.2,0.3-1.2,0.8c0,1.3,3.1,0.3,3.1,2.2
			c0,0.8-0.7,1.4-2,1.4C191,300.8,190.3,300.6,189.8,300.2z"/>
		<path class="st6" d="M201.9,295.9l-1.8,4.8h-0.6l-1.5-4l-1.5,4h-0.6l-1.9-4.8h0.6l1.5,4.1l1.6-4.1h0.6l1.5,4.1l1.5-4.1H201.9z"/>
		<path class="st6" d="M202.3,298.3c0-1.4,1.1-2.5,2.5-2.5c1.4,0,2.5,1.1,2.5,2.5c0,1.4-1.1,2.5-2.5,2.5l0,0c-1.3,0-2.4-1-2.5-2.3
			C202.3,298.4,202.3,298.4,202.3,298.3z M206.5,298.3c0-1-0.9-1.8-1.9-1.7c-1,0-1.8,0.9-1.7,1.9c0,1,0.8,1.7,1.8,1.7
			c1,0,1.8-0.8,1.8-1.7C206.5,298.4,206.5,298.4,206.5,298.3z"/>
		<path class="st6" d="M210.9,295.9v0.6h-0.2c-0.9,0-1.6,0.6-1.6,1.5c0,0.1,0,0.2,0,0.3v2.5h-0.6v-4.8h0.6v0.9
			C209.5,296.2,210.2,295.8,210.9,295.9z"/>
		<path class="st6" d="M216.5,294v6.8h-0.6v-1c-0.4,0.6-1.1,1-1.9,1c-1.4-0.1-2.4-1.3-2.3-2.6c0.1-1.2,1.1-2.2,2.3-2.3
			c0.7,0,1.4,0.4,1.8,1V294H216.5z M215.8,298.4c0-1-0.9-1.8-1.9-1.7c-1,0-1.8,0.9-1.7,1.9c0,1,0.8,1.7,1.8,1.7c1,0,1.8-0.7,1.8-1.7
			C215.8,298.5,215.8,298.4,215.8,298.4L215.8,298.4z"/>
	</g>
	<rect x="167.1" y="332" class="st7" width="130.8" height="22.4"/>
	<g class="st8">
		<path d="M198.9,321.7h-2.1l-0.5,1h-0.4l1.8-3.8h0.4l1.8,3.8h-0.4L198.9,321.7z M198.8,321.4l-0.9-2.1l-0.9,2.1H198.8z"/>
		<path d="M200.3,318.7h0.4v4.1h-0.4V318.7z"/>
		<path d="M203.3,319.8v0.4h-0.1c-0.5,0-1,0.3-1,0.8c0,0.1,0,0.1,0,0.2v1.5h-0.4v-2.9h0.4v0.6C202.4,320,202.8,319.8,203.3,319.8z"
			/>
		<path d="M206.4,321.4H204c0,0.6,0.5,1,1.1,1c0,0,0,0,0,0c0.3,0,0.7-0.1,0.9-0.4l0.2,0.2c-0.6,0.6-1.5,0.6-2.1,0.1
			c-0.3-0.3-0.5-0.7-0.5-1.1c0-0.8,0.6-1.4,1.3-1.5c0,0,0.1,0,0.1,0c0.8,0,1.4,0.6,1.4,1.3c0,0,0,0.1,0,0.1
			C206.4,321.3,206.4,321.4,206.4,321.4z M204,321.1h2c0-0.6-0.4-1-1-1S204,320.6,204,321.1z"/>
		<path d="M209.3,321v1.8H209v-0.5c-0.2,0.3-0.6,0.5-1,0.5c-0.6,0-1-0.3-1-0.8s0.3-0.8,1.1-0.8h0.9V321c0-0.5-0.3-0.8-0.8-0.8
			c-0.4,0-0.7,0.1-1,0.3l-0.2-0.3c0.3-0.3,0.7-0.4,1.2-0.4c0.5-0.1,1.1,0.3,1.2,0.8C209.4,320.8,209.4,320.9,209.3,321z M209,321.9
			v-0.5H208c-0.6,0-0.7,0.2-0.7,0.5s0.3,0.5,0.7,0.5C208.5,322.5,208.9,322.3,209,321.9L209,321.9z"/>
		<path d="M213,318.7v4.1h-0.4v-0.6c-0.2,0.4-0.7,0.6-1.1,0.6c-0.8-0.1-1.4-0.8-1.3-1.6c0.1-0.7,0.6-1.3,1.3-1.3
			c0.4,0,0.9,0.2,1.1,0.6v-1.7H213z M212.6,321.3c0-0.6-0.5-1-1.1-1c-0.6,0-1,0.5-1,1.1c0,0.6,0.5,1,1.1,1c0.6,0,1.1-0.4,1.1-1
			C212.7,321.4,212.7,321.3,212.6,321.3L212.6,321.3z"/>
		<path d="M216.6,319.9l-1.4,3.2c-0.2,0.6-0.6,0.7-1,0.7c-0.3,0-0.5-0.1-0.7-0.3l0.2-0.3c0.1,0.1,0.3,0.2,0.5,0.2
			c0.3,0,0.4-0.1,0.6-0.5l0.1-0.3l-1.3-2.9h0.4l1.1,2.5l1.1-2.5H216.6z"/>
		<path d="M220.7,321v1.8h-0.4v-0.5c-0.2,0.3-0.6,0.5-1,0.5c-0.6,0-1-0.3-1-0.8s0.3-0.8,1.1-0.8h0.9V321c0-0.5-0.3-0.8-0.8-0.8
			c-0.4,0-0.7,0.1-1,0.3l-0.2-0.3c0.3-0.3,0.8-0.4,1.2-0.4c0.5-0.1,1.1,0.3,1.2,0.8C220.7,320.8,220.7,320.9,220.7,321z
			 M220.3,321.9v-0.5h-0.9c-0.6,0-0.7,0.2-0.7,0.5s0.3,0.5,0.7,0.5C219.8,322.5,220.2,322.3,220.3,321.9L220.3,321.9z"/>
		<path d="M228,321.1v1.7h-0.4v-1.6c0-0.6-0.3-0.9-0.8-0.9c-0.5,0-1,0.3-1,0.9c0,0,0,0.1,0,0.1v1.5h-0.4v-1.6c0-0.6-0.3-0.9-0.8-0.9
			c-0.5,0-1,0.3-1,0.9c0,0,0,0.1,0,0.1v1.5h-0.4v-2.9h0.4v0.5c0.2-0.4,0.6-0.6,1.1-0.5c0.4,0,0.8,0.2,1,0.6c0.2-0.4,0.7-0.6,1.1-0.6
			c0.6-0.1,1.1,0.3,1.3,0.9C228,320.8,228,320.9,228,321.1z"/>
		<path d="M231.5,321.4h-2.4c0,0.6,0.6,1,1.1,1c0.3,0,0.7-0.1,0.9-0.4l0.2,0.2c-0.3,0.3-0.7,0.5-1.1,0.5c-0.8,0.1-1.5-0.5-1.5-1.3
			c0,0,0-0.1,0-0.1c0-0.8,0.6-1.4,1.4-1.4c0.8,0,1.4,0.6,1.4,1.4C231.6,321.3,231.5,321.4,231.5,321.4z M229.1,321.1h2.1
			c0-0.6-0.5-1-1-1C229.6,320.1,229.1,320.6,229.1,321.1z"/>
		<path d="M237.1,321.1v1.7h-0.4v-1.6c0-0.6-0.3-0.9-0.8-0.9c-0.5,0-1,0.3-1,0.8c0,0.1,0,0.1,0,0.2v1.5h-0.4v-1.6
			c0-0.6-0.3-0.9-0.8-0.9c-0.5,0-1,0.3-1,0.8c0,0.1,0,0.1,0,0.2v1.5h-0.4v-2.9h0.4v0.5c0.2-0.4,0.6-0.6,1.1-0.5c0.4,0,0.8,0.2,1,0.6
			c0.2-0.4,0.7-0.6,1.1-0.6c0.6-0.1,1.1,0.3,1.3,0.9C237.1,320.8,237.1,320.9,237.1,321.1z"/>
		<path d="M241.1,321.3c0,0.8-0.6,1.4-1.3,1.5c0,0-0.1,0-0.1,0c-0.5,0-0.9-0.2-1.1-0.6v0.6h-0.4v-4.1h0.4v1.7
			c0.2-0.4,0.7-0.6,1.1-0.6c0.8,0,1.4,0.6,1.4,1.3C241.1,321.2,241.1,321.3,241.1,321.3z M240.7,321.3c0-0.6-0.5-1-1.1-1
			c-0.6,0-1,0.5-1,1.1c0,0.6,0.5,1,1.1,1C240.2,322.4,240.7,322,240.7,321.3C240.7,321.4,240.7,321.3,240.7,321.3z"/>
		<path d="M244.4,321.4H242c0,0.6,0.5,1,1.1,1c0,0,0,0,0,0c0.3,0,0.7-0.2,0.9-0.4l0.2,0.2c-0.6,0.6-1.5,0.6-2.1,0.1
			c-0.3-0.3-0.5-0.7-0.5-1.1c0-0.8,0.6-1.4,1.3-1.5c0,0,0.1,0,0.1,0c0.8,0,1.4,0.6,1.4,1.3c0,0,0,0.1,0,0.1L244.4,321.4z M242,321.1
			h2c0-0.6-0.4-1-1-1S242,320.6,242,321.1z"/>
		<path d="M246.6,319.8v0.4h-0.1c-0.5,0-1,0.3-1,0.8c0,0.1,0,0.1,0,0.2v1.5h-0.4v-2.9h0.4v0.6C245.7,320,246.2,319.8,246.6,319.8z"
			/>
		<path d="M249.2,319.9c0-0.4-0.3-0.7-0.9-0.7c-0.4,0-0.8,0.1-1.1,0.4l-0.3-0.2c0.3-0.4,0.9-0.6,1.4-0.6c0.8,0,1.3,0.4,1.3,1
			c0,0.9-1,1-1,1.8h-0.4C248.2,320.7,249.2,320.6,249.2,319.9z M248.1,322.5c0-0.2,0.2-0.3,0.3-0.2c0.1,0,0.2,0.1,0.2,0.2
			c0,0.2-0.1,0.3-0.2,0.3c-0.2,0-0.3-0.1-0.3-0.2C248.1,322.5,248.1,322.5,248.1,322.5z"/>
		<path d="M251.9,318.9h0.9v3.1h1.9v0.7h-2.8V318.9z"/>
		<path d="M254.9,321.3c-0.1-0.9,0.6-1.7,1.5-1.7s1.7,0.6,1.7,1.5s-0.6,1.7-1.5,1.7c0,0-0.1,0-0.1,0c-0.8,0.1-1.6-0.6-1.6-1.4
			C254.9,321.3,254.9,321.3,254.9,321.3z M257.2,321.3c0-0.4-0.4-0.7-0.8-0.7c-0.4,0-0.7,0.4-0.7,0.8c0,0.4,0.4,0.7,0.7,0.7
			C256.9,322.1,257.2,321.8,257.2,321.3C257.3,321.3,257.3,321.3,257.2,321.3z"/>
		<path d="M261.7,319.8v2.5c0.1,0.8-0.5,1.5-1.3,1.6c-0.1,0-0.3,0-0.4,0c-0.5,0-1-0.1-1.5-0.4l0.3-0.6c0.3,0.2,0.6,0.3,1,0.3
			c0.6,0,0.9-0.3,0.9-0.8v-0.1c-0.2,0.3-0.6,0.4-0.9,0.4c-0.8,0.1-1.5-0.5-1.5-1.3c-0.1-0.8,0.5-1.5,1.3-1.5c0.1,0,0.2,0,0.2,0
			c0.4,0,0.8,0.1,1,0.4v-0.4H261.7z M260.9,321.2c0-0.4-0.3-0.7-0.7-0.7c0,0-0.1,0-0.1,0c-0.4,0-0.8,0.2-0.8,0.6
			c0,0.4,0.2,0.8,0.6,0.8c0.1,0,0.1,0,0.2,0C260.5,321.9,260.9,321.6,260.9,321.2C260.9,321.2,260.9,321.2,260.9,321.2z"/>
		<path d="M264,318.9c0-0.3,0.2-0.5,0.5-0.5c0,0,0,0,0,0c0.3,0,0.5,0.2,0.5,0.4c0,0,0,0,0,0c0,0.3-0.2,0.5-0.5,0.5
			C264.2,319.4,264,319.2,264,318.9L264,318.9z M264.1,319.8h0.9v3h-0.9V319.8z"/>
		<path d="M268.7,321v1.7h-0.9v-1.5c0-0.5-0.2-0.7-0.6-0.7s-0.7,0.2-0.7,0.8v1.5h-0.9v-3h0.8v0.4c0.3-0.3,0.6-0.4,1-0.4
			c0.6,0,1.2,0.5,1.2,1.1C268.8,320.8,268.8,320.9,268.7,321z"/>
	</g>
	<rect x="167.1" y="330.6" class="st2" width="130.8" height="22.4"/>
	<path class="st4" d="M215.6,345.3L214,343h-0.5h-1.9v2.3h-1.1v-7.7h3c2,0,3.2,1,3.2,2.7c0.1,1.1-0.6,2.1-1.7,2.4l1.8,2.6
		L215.6,345.3z M215.6,340.3c0-1.1-0.7-1.7-2.1-1.7h-1.9v3.5h1.9C214.8,342,215.6,341.4,215.6,340.3L215.6,340.3z"/>
	<path class="st4" d="M223.5,342.8h-4.7c0.2,1,1.1,1.8,2.1,1.7c0.6,0,1.2-0.2,1.7-0.7l0.6,0.7c-1.2,1.2-3.2,1.3-4.5,0
		c-0.5-0.5-0.9-1.3-0.9-2c-0.1-1.6,1.1-2.9,2.7-3c0.1,0,0.1,0,0.2,0c1.5,0,2.8,1.2,2.9,2.7c0,0.1,0,0.2,0,0.3
		C223.5,342.5,223.5,342.7,223.5,342.8z M218.8,342h3.7c-0.1-1-1-1.8-2.1-1.7C219.6,340.4,218.9,341.1,218.8,342z"/>
	<path class="st4" d="M230.6,339.5v5c0,2-1.1,3-3,3c-1,0-2-0.3-2.8-0.9l0.5-0.8c0.6,0.5,1.4,0.8,2.2,0.8c1.4,0,2-0.6,2-2v-0.5
		c-0.5,0.6-1.3,0.9-2.1,0.9c-1.6,0-2.8-1.3-2.8-2.8c0-1.6,1.3-2.8,2.8-2.8c0,0,0,0,0,0c0.8,0,1.6,0.3,2.1,1v-0.9L230.6,339.5z
		 M229.6,342.3c0.1-1.1-0.8-2-1.9-2.1c-1.1-0.1-2,0.8-2.1,1.9c-0.1,1.1,0.8,2,1.9,2.1c0,0,0.1,0,0.1,0c1,0.1,1.9-0.7,2-1.7
		C229.5,342.4,229.5,342.3,229.6,342.3L229.6,342.3z"/>
	<path class="st4" d="M232.4,337.7c0-0.4,0.3-0.7,0.7-0.7c0,0,0,0,0,0c0.4,0,0.7,0.2,0.8,0.6c0,0.4-0.2,0.7-0.6,0.8
		c-0.1,0-0.1,0-0.2,0C232.7,338.4,232.4,338.1,232.4,337.7C232.4,337.7,232.4,337.7,232.4,337.7z M232.6,339.5h1.1v5.8h-1.1V339.5z"
		/>
	<path class="st4" d="M234.9,344.7l0.4-0.8c0.6,0.4,1.3,0.6,2,0.6c1,0,1.4-0.3,1.4-0.8c0-1.3-3.7-0.2-3.7-2.5c0-1,0.9-1.7,2.4-1.7
		c0.7,0,1.5,0.2,2.1,0.5l-0.4,0.8c-0.5-0.3-1.1-0.5-1.7-0.5c-0.9,0-1.4,0.3-1.4,0.8c0,1.4,3.7,0.2,3.7,2.5c0,1-1,1.7-2.5,1.7
		C236.4,345.4,235.6,345.2,234.9,344.7z"/>
	<path class="st4" d="M244.4,345c-0.4,0.3-0.8,0.4-1.3,0.4c-0.9,0.1-1.7-0.5-1.8-1.5c0-0.1,0-0.2,0-0.4v-3.2h-1v-0.9h1v-1.3h1v1.3
		h1.7v0.9h-1.7v3.1c-0.1,0.5,0.2,0.9,0.7,1c0.1,0,0.2,0,0.2,0c0.3,0,0.6-0.1,0.8-0.3L244.4,345z"/>
	<path class="st4" d="M250.7,342.8H246c0.2,1,1.1,1.8,2.1,1.7c0.6,0,1.2-0.2,1.7-0.7l0.6,0.7c-1.2,1.2-3.2,1.3-4.5,0
		c-0.6-0.5-0.9-1.3-0.9-2c-0.1-1.6,1.1-2.9,2.7-3c0.1,0,0.1,0,0.2,0c1.6,0,2.8,1.2,2.9,2.7c0,0.1,0,0.2,0,0.3
		C250.7,342.5,250.7,342.7,250.7,342.8z M246,342h3.7c-0.1-1-1.1-1.8-2.1-1.6C246.8,340.5,246.1,341.1,246,342z"/>
	<path class="st4" d="M255.3,339.5v1H255c-1-0.1-1.8,0.7-1.8,1.6c0,0.1,0,0.3,0,0.4v2.9h-1.1v-5.8h1v1
		C253.6,339.8,254.4,339.4,255.3,339.5z"/>
	<g class="st9">
		<path class="st6" d="M209.6,177.6l0.4-0.9c0.8,0.7,1.8,1,2.8,1c1.4,0,2.1-0.6,2.1-1.3c0-2-5.1-0.8-5.1-3.9c0-1.3,1-2.4,3.2-2.4
			c1,0,1.9,0.2,2.7,0.7l-0.4,1c-0.7-0.4-1.5-0.7-2.3-0.7c-1.4,0-2,0.6-2,1.3c0,2,5.1,0.8,5.1,3.9c0,1.3-1,2.4-3.2,2.4
			C211.7,178.8,210.5,178.4,209.6,177.6z"/>
		<path class="st6" d="M217.4,170.2c0-0.4,0.3-0.8,0.8-0.8c0,0,0,0,0,0c0.4,0,0.8,0.3,0.8,0.7c0,0,0,0,0,0c0,0.4-0.4,0.8-0.8,0.8
			C217.8,171,217.4,170.6,217.4,170.2L217.4,170.2z M217.6,172.2h1.2v6.4h-1.2V172.2z"/>
		<path class="st6" d="M227.1,172.2v5.5c0,2.2-1.1,3.3-3.3,3.3c-1.1,0-2.1-0.3-3-0.9l0.6-0.9c0.7,0.6,1.6,0.8,2.4,0.8
			c1.5,0,2.2-0.7,2.2-2.1v-0.5c-0.6,0.7-1.4,1-2.3,1c-1.7,0.1-3.2-1.2-3.3-2.9c-0.1-1.7,1.2-3.2,2.9-3.3c0.1,0,0.2,0,0.4,0
			c0.9,0,1.8,0.3,2.4,1v-1L227.1,172.2z M226,175.2c0.1-1.2-0.9-2.2-2.1-2.3c-1.2-0.1-2.2,0.9-2.3,2.1c-0.1,1.2,0.9,2.2,2.1,2.3
			c0,0,0.1,0,0.1,0c1.1,0.1,2.1-0.7,2.2-1.9C226,175.4,226,175.3,226,175.2L226,175.2z"/>
		<path class="st6" d="M235.3,174.9v3.7h-1.2V175c0-1.2-0.6-1.9-1.7-1.9c-1-0.1-1.9,0.7-2,1.8c0,0.1,0,0.2,0,0.3v3.3h-1.1v-6.4h1.1
			v1c0.6-0.7,1.4-1.1,2.3-1c1.4-0.1,2.5,0.9,2.6,2.3C235.3,174.6,235.3,174.8,235.3,174.9z"/>
		<path class="st6" d="M246.6,172.2v6.4h-1.1v-1c-0.5,0.7-1.3,1-2.2,1c-1.4,0.1-2.6-0.9-2.7-2.2c0-0.2,0-0.4,0-0.5v-3.7h1.1v3.5
			c0,1.2,0.6,1.9,1.7,1.9c1,0.1,1.9-0.7,2-1.7c0-0.1,0-0.2,0-0.4v-3.3L246.6,172.2z"/>
		<path class="st6" d="M255.4,175.4c0.1,1.7-1.2,3.2-2.9,3.2c-0.1,0-0.2,0-0.3,0c-0.9,0-1.7-0.3-2.2-1v3.3h-1.1v-8.7h1.1v1
			c0.5-0.7,1.4-1.1,2.3-1.1c1.7-0.1,3.1,1.2,3.2,2.9C255.4,175.2,255.4,175.3,255.4,175.4z M254.2,175.4c-0.1-1.2-1.1-2.1-2.2-2
			s-2.1,1.1-2,2.2c0.1,1.1,1,2,2.1,2c1.2,0,2.1-0.9,2.2-2.1C254.2,175.5,254.2,175.4,254.2,175.4z"/>
	</g>
	<rect x="167.1" y="225.5" class="st4" width="130.8" height="22.4"/>
	<g class="st5">
		<path class="st6" d="M174.2,233.1h0.7v5.8h3.6v0.6h-4.3L174.2,233.1z"/>
		<path class="st6" d="M183.2,236.5v3h-0.6v-0.8c-0.4,0.5-1,0.8-1.7,0.8c-1.1,0-1.8-0.6-1.8-1.4s0.5-1.4,1.9-1.4h1.5v-0.3
			c0-0.8-0.5-1.3-1.4-1.3c-0.6,0-1.2,0.2-1.6,0.6l-0.3-0.5c0.6-0.4,1.3-0.7,2-0.6c0.9-0.1,1.8,0.6,1.9,1.5
			C183.2,236.3,183.2,236.4,183.2,236.5z M182.5,238.1v-0.8H181c-0.9,0-1.2,0.4-1.2,0.9s0.4,0.9,1.2,0.9
			C181.6,239.1,182.3,238.7,182.5,238.1L182.5,238.1z"/>
		<path class="st6" d="M184.3,239l0.3-0.5c0.5,0.4,1.1,0.5,1.7,0.5c0.9,0,1.3-0.3,1.3-0.8c0-1.3-3.1-0.3-3.1-2.2
			c0-0.8,0.7-1.4,1.9-1.4c0.6,0,1.2,0.1,1.7,0.4l-0.3,0.5c-0.4-0.3-0.9-0.4-1.4-0.4c-0.9,0-1.2,0.3-1.2,0.8c0,1.3,3.1,0.3,3.1,2.2
			c0,0.8-0.7,1.4-2,1.4C185.5,239.6,184.8,239.4,184.3,239z"/>
		<path class="st6" d="M192,239.2c-0.3,0.2-0.6,0.3-1,0.3c-0.7,0.1-1.3-0.4-1.4-1.1c0-0.1,0-0.2,0-0.3v-2.9h-0.9v-0.6h0.9v-1.1h0.6
			v1.1h1.5v0.6h-1.5v2.9c-0.1,0.4,0.2,0.8,0.6,0.9c0.1,0,0.1,0,0.2,0c0.3,0,0.5-0.1,0.7-0.2L192,239.2z"/>
		<path class="st6" d="M201,233.1v6.4h-0.6l-4.1-5.2v5.2h-0.7v-6.4h0.6l4.1,5.2v-5.2H201z"/>
		<path class="st6" d="M206.6,236.5v3H206v-0.8c-0.4,0.5-1,0.9-1.7,0.8c-1.1,0-1.8-0.6-1.8-1.4s0.5-1.4,1.9-1.4h1.6v-0.3
			c0-0.8-0.5-1.3-1.4-1.3c-0.6,0-1.2,0.2-1.6,0.6l-0.3-0.5c0.6-0.4,1.3-0.7,2-0.6c0.9-0.1,1.8,0.6,1.9,1.5
			C206.6,236.3,206.7,236.4,206.6,236.5z M206,238.1v-0.8h-1.5c-0.9,0-1.2,0.4-1.2,0.9s0.4,0.9,1.2,0.9
			C205.1,239.1,205.8,238.7,206,238.1L206,238.1z"/>
		<path class="st6" d="M216.4,236.7v2.8h-0.6v-2.7c0-1-0.5-1.5-1.4-1.5c-0.9,0-1.6,0.6-1.6,1.5c0,0.1,0,0.2,0,0.3v2.5h-0.6v-2.7
			c0-1-0.5-1.5-1.4-1.5c-0.9,0-1.6,0.6-1.6,1.5c0,0.1,0,0.2,0,0.3v2.5h-0.6v-4.8h0.6v0.9c0.4-0.6,1.1-1,1.8-0.9
			c0.7-0.1,1.4,0.3,1.7,1c0.4-0.7,1.1-1,1.9-1c1-0.1,1.9,0.6,2,1.6C216.4,236.4,216.4,236.6,216.4,236.7z"/>
		<path class="st6" d="M222.4,237.3h-4c0.1,1,0.9,1.7,1.9,1.7c0,0,0,0,0,0c0.6,0,1.1-0.2,1.5-0.6l0.4,0.4c-1,1-2.6,1.1-3.6,0.1
			c-0.5-0.5-0.8-1.1-0.8-1.7c-0.1-1.3,0.9-2.4,2.2-2.4c0.1,0,0.1,0,0.2,0c1.3,0,2.3,1,2.3,2.3c0,0.1,0,0.1,0,0.2
			C222.4,237.2,222.4,237.2,222.4,237.3z M218.4,236.8h3.4c0-0.9-0.8-1.7-1.7-1.7C219.1,235.1,218.4,235.9,218.4,236.8z"/>
	</g>
	<rect x="167.1" y="194.9" class="st4" width="130.8" height="22.4"/>
	<g class="st5">
		<path class="st6" d="M174.9,203.1v2.5h3.3v0.6h-3.3v2.7h-0.7v-6.4h4.4v0.6H174.9z"/>
		<path class="st6" d="M179.7,202.6c0-0.3,0.2-0.5,0.5-0.5s0.5,0.2,0.5,0.5c0,0.3-0.2,0.5-0.5,0.5c0,0,0,0,0,0
			C179.9,203,179.7,202.8,179.7,202.6L179.7,202.6z M179.8,204.1h0.6v4.8h-0.6V204.1z"/>
		<path class="st6" d="M184.7,204.1v0.6h-0.2c-0.9,0-1.6,0.6-1.6,1.5c0,0.1,0,0.2,0,0.3v2.5h-0.6v-4.8h0.6v0.9
			C183.3,204.3,184,204,184.7,204.1z"/>
		<path class="st6" d="M185.2,208.4l0.3-0.5c0.5,0.4,1.1,0.6,1.7,0.6c0.9,0,1.3-0.3,1.3-0.8c0-1.3-3.1-0.3-3.1-2.2
			c0-0.8,0.7-1.4,1.9-1.4c0.6,0,1.2,0.1,1.7,0.4l-0.3,0.5c-0.4-0.3-0.9-0.4-1.4-0.4c-0.9,0-1.2,0.3-1.2,0.8c0,1.3,3.1,0.3,3.1,2.2
			c0,0.8-0.7,1.4-2,1.4C186.5,209,185.8,208.8,185.2,208.4z"/>
		<path class="st6" d="M193,208.6c-0.3,0.2-0.6,0.3-1,0.3c-0.7,0.1-1.3-0.4-1.4-1.1c0-0.1,0-0.2,0-0.3v-2.9h-0.9v-0.6h0.9V203h0.6
			v1.1h1.5v0.6h-1.5v2.9c-0.1,0.4,0.2,0.8,0.7,0.9c0.1,0,0.1,0,0.2,0c0.3,0,0.5-0.1,0.7-0.2L193,208.6z"/>
		<path class="st6" d="M202,202.5v6.4h-0.6l-4.1-5.2v5.2h-0.7v-6.4h0.6l4.1,5.2v-5.2H202z"/>
		<path class="st6" d="M207.6,205.9v3H207v-0.8c-0.4,0.5-1,0.8-1.6,0.8c-1.1,0-1.8-0.6-1.8-1.4s0.5-1.4,1.9-1.4h1.6v-0.3
			c0-0.8-0.5-1.3-1.4-1.3c-0.6,0-1.2,0.2-1.6,0.6l-0.3-0.5c0.6-0.4,1.3-0.7,2-0.6c0.9-0.1,1.8,0.6,1.9,1.5
			C207.6,205.7,207.6,205.8,207.6,205.9z M207,207.5v-0.8h-1.5c-0.9,0-1.2,0.4-1.2,0.9s0.4,0.9,1.2,0.9
			C206.1,208.5,206.8,208.1,207,207.5L207,207.5z"/>
		<path class="st6" d="M217.4,206.1v2.8h-0.6v-2.7c0-1-0.5-1.5-1.4-1.5c-0.9,0-1.6,0.6-1.6,1.5c0,0.1,0,0.2,0,0.3v2.5h-0.6v-2.7
			c0-1-0.5-1.5-1.4-1.5c-0.9,0-1.6,0.6-1.6,1.5c0,0.1,0,0.2,0,0.3v2.5h-0.6v-4.8h0.6v0.9c0.4-0.6,1.1-1,1.8-0.9
			c0.7-0.1,1.4,0.3,1.7,1c0.4-0.7,1.1-1,1.9-1c1-0.1,1.9,0.6,2,1.6C217.4,205.9,217.4,206,217.4,206.1z"/>
		<path class="st6" d="M223.4,206.7h-4c0.1,1,0.9,1.7,1.9,1.7c0,0,0,0,0,0c0.6,0,1.1-0.2,1.5-0.6l0.4,0.4c-1,1-2.6,1.1-3.6,0.1
			c-0.5-0.5-0.8-1.1-0.8-1.7c-0.1-1.3,0.9-2.4,2.2-2.4c0.1,0,0.1,0,0.2,0c1.3,0,2.3,1,2.3,2.3c0,0.1,0,0.1,0,0.2
			C223.4,206.6,223.4,206.6,223.4,206.7z M219.4,206.2h3.4c0-0.9-0.8-1.7-1.7-1.7C220.1,204.5,219.4,205.3,219.4,206.2z"/>
	</g>
</g>
<path class="st2" d="M117.8,385.3h-0.9c0-1.4,1.2-34.5,6.9-40c5.9-5.8,12.9-0.1,12.9,0l-0.6,0.7c-0.3-0.2-6.4-5.2-11.7,0
	C119,351.2,117.9,384.9,117.8,385.3z"/>
<path class="st2" d="M117.4,391.9l-0.9-0.1c0-0.4,3.7-40.1-10.7-56.6l0.7-0.6C121.1,351.4,117.4,391.5,117.4,391.9z"/>
<path class="st2" d="M117.8,387.7c-0.1-1.9-2.9-46,8.2-56.2l0.6,0.7c-10.7,9.9-7.9,55-7.9,55.4L117.8,387.7z"/>
<path class="st2" d="M116.4,387.6c0-0.3-0.3-30-8.2-34.5c-1.4-0.9-3.1-1.1-4.6-0.5c-4.6,1.9-7.1,10.7-7.1,10.8l-0.9-0.2
	c0.1-0.4,2.6-9.3,7.6-11.4c1.8-0.7,3.8-0.5,5.4,0.5c8.3,4.8,8.7,34,8.7,35.3L116.4,387.6z"/>
<path class="st2" d="M119.7,387.7c-0.1-1-1.3-23.4,5.1-31.8c1.7-2.2,3.6-3.3,5.6-3.1c4.5,0.3,8,6.5,8.2,6.7l-0.8,0.5
	c0-0.1-3.4-6-7.4-6.2c-1.7-0.1-3.3,0.8-4.8,2.8c-6.2,8-4.9,30.9-4.9,31.1L119.7,387.7z"/>
<path class="st2" d="M118.4,390.8l-0.9-0.1c0-0.5,4-54.1-2.6-63.1l0.8-0.6C122.4,336.3,118.6,388.5,118.4,390.8z"/>
<path class="st2" d="M101.4,357.1c0,0,4.1,1.5,2.9,5.1s-14.1,9.4-14.1,9.4s-5.4-5-0.4-13S101.3,354.6,101.4,357.1z"/>
<path class="st7" d="M101.4,357.1c0,0,4.1,1.5,2.9,5.1s-14.1,9.4-14.1,9.4s-5.4-5-0.4-13S101.3,354.6,101.4,357.1z"/>
<path class="st2" d="M119.2,350.4c0,0-4.3-0.2-4.6,3.6s9.4,14.1,9.4,14.1s6.9-2.5,5.4-11.9S120.3,348.1,119.2,350.4z"/>
<path class="st7" d="M119.2,350.4c0,0-4.3-0.2-4.6,3.6s9.4,14.1,9.4,14.1s6.9-2.5,5.4-11.9S120.3,348.1,119.2,350.4z"/>
<path class="st2" d="M122.9,332.5c0,0-2.9-0.3-2.7-2.1s11.3-6.3,17.8,1c0,0-4.2,7.2-10.2,7.3S122.9,332.5,122.9,332.5z"/>
<path class="st7" d="M122.9,332.5c0,0-2.9-0.3-2.7-2.1s11.3-6.3,17.8,1c0,0-4.2,7.2-10.2,7.3S122.9,332.5,122.9,332.5z"/>
<path class="st2" d="M117.5,328.2c0,0,2.6,1.3,3.4-0.4s-6.2-11.3-15.6-8.5c0,0-0.2,8.3,4.8,11.5S117.5,328.2,117.5,328.2z"/>
<path class="st7" d="M117.5,328.2c0,0,2.6,1.3,3.4-0.4s-6.2-11.3-15.6-8.5c0,0-0.2,8.3,4.8,11.5S117.5,328.2,117.5,328.2z"/>
<path class="st2" d="M131.2,355.7c0,0-2-1.6,0.2-2.4s12.8-0.6,12.9,9.9c0,0-12.3,2-13.9-2S131.2,355.7,131.2,355.7z"/>
<path class="st7" d="M131.2,355.7c0,0-2-1.6,0.2-2.4s12.8-0.6,12.9,9.9c0,0-12.3,2-13.9-2S131.2,355.7,131.2,355.7z"/>
<path class="st2" d="M106,332.2c0,0,2-1.6-0.2-2.4s-12.8-0.6-12.9,9.9c0,0,12.3,2.1,13.9-1.9S106,332.2,106,332.2z"/>
<path class="st7" d="M106,332.2c0,0,2-1.6-0.2-2.4s-12.8-0.6-12.9,9.9c0,0,12.3,2.1,13.9-1.9S106,332.2,106,332.2z"/>
<path class="st2" d="M112.6,340.6c0,0,0.2-2-1.4-1.2s-7.1,6.7-1.4,12.4c0,0,7.7-5.7,6.3-8.7S112.6,340.6,112.6,340.6z"/>
<path class="st7" d="M112.6,340.6c0,0,0.2-2-1.4-1.2s-7.1,6.7-1.4,12.4c0,0,7.7-5.7,6.3-8.7S112.6,340.6,112.6,340.6z"/>
<path class="st2" d="M133,343.4c0,0-1.2-1.6,0.6-1.8s9.6,1.9,7.8,9.7c0,0-9.6-0.7-10-4S133,343.4,133,343.4z"/>
<path class="st7" d="M133,343.4c0,0-1.2-1.6,0.6-1.8s9.6,1.9,7.8,9.7c0,0-9.6-0.7-10-4S133,343.4,133,343.4z"/>
<polygon class="st6" points="102.2,416.7 133.1,416.7 137.2,386.7 98.1,386.7 "/>
<polygon class="st10" points="102.2,416.7 133.1,416.7 137.2,386.7 98.1,386.7 "/>
<path class="st6" d="M141.1,384.2v2.9c0,1.9-1.5,3.5-3.5,3.5H97.2c-1.9,0-3.5-1.5-3.5-3.5v-2.9H141.1z"/>
<g id="freepik--speech-bubble--inject-4">
	<path class="st2" d="M398.6,99.3h-28.7c-4.9,0-8.8,4-8.8,8.8v25c0,4.9,3.9,8.8,8.8,8.9c0,0,0,0,0,0h8.4l-2,7.9l8-7.9h14.4
		c4.9,0,8.9-4,8.9-8.8c0,0,0,0,0,0v-25C407.5,103.3,403.6,99.3,398.6,99.3C398.7,99.3,398.6,99.3,398.6,99.3z"/>
	<path class="st11" d="M398.6,99.3h-28.7c-4.9,0-8.8,4-8.8,8.8v25c0,4.9,3.9,8.8,8.8,8.9c0,0,0,0,0,0h8.4l-2,7.9l8-7.9h14.4
		c4.9,0,8.9-4,8.9-8.8c0,0,0,0,0,0v-25C407.5,103.3,403.6,99.3,398.6,99.3C398.7,99.3,398.6,99.3,398.6,99.3z"/>
	<circle class="st4" cx="384.3" cy="120.6" r="11.1"/>
	<path class="st2" d="M384.3,106.3c-7.9,0-14.3,6.4-14.3,14.3c0,7.9,6.4,14.3,14.3,14.3c7.9,0,14.3-6.4,14.3-14.3
		C398.5,112.7,392.2,106.3,384.3,106.3C384.3,106.3,384.3,106.3,384.3,106.3z M392.4,116.3l-8.6,10.1c-0.2,0.3-0.6,0.5-1,0.5
		c-0.4,0-0.8-0.2-1-0.5l-5.6-6.6c-0.5-0.5-0.4-1.4,0.1-1.9c0.5-0.5,1.4-0.4,1.9,0.1c0,0,0,0,0.1,0.1l4.6,5.4l7.6-8.9
		c0.5-0.5,1.3-0.6,1.9-0.1C392.7,115,392.8,115.7,392.4,116.3z"/>
</g>
<g id="freepik--Character--inject-4">
	<path class="st2" d="M393.6,253.6c0,0-17.4-2.2-43.8,5c0,0-4.2-47.1-3.7-53.6s40.7-4.6,40.7-4.6s1,18.9,3.6,30.2
		S395,251.4,393.6,253.6z"/>
	<path class="st7" d="M393.6,253.6c0,0-17.4-2.2-43.8,5c0,0-4.2-47.1-3.7-53.6s40.7-4.6,40.7-4.6s1,18.9,3.6,30.2
		S395,251.4,393.6,253.6z"/>
	<polygon class="st12" points="337.1,409.6 344.2,411.6 345.9,400.6 346.8,394.7 339.7,392.7 338.5,400.6 	"/>
	<polygon class="st12" points="378,410.2 385.3,411.2 385.3,400.6 385.4,394 378.1,393 378,400.6 	"/>
	<polygon class="st7" points="378.1,393 378,400.6 385.3,400.6 385.4,394 	"/>
	<polygon class="st7" points="338.5,400.6 345.9,400.6 346.8,394.7 339.7,392.7 	"/>
	<path class="st12" d="M305.6,208.8l-7-2.1l1.3,8.1c0,0,6.4,1.5,7-1.9L305.6,208.8z"/>
	<polygon class="st12" points="291.5,208.6 295,215.1 299.9,214.8 298.6,206.7 	"/>
	<polygon class="st12" points="315.3,210.9 303.8,208.3 302.7,213.9 313.2,216.5 	"/>
	<path class="st2" d="M350.4,205.8l-0.7,0.8c-1.5,1.7-5,5.8-8.7,9.4c-3,2.9-6,5.4-8,5.9c-5.7,1.5-26.3-4.6-26.3-4.6l2.1-8.4
		c0,0,19.2,2.6,20.7,2.6c1.1,0,12.8-16.9,15.6-18.3L350.4,205.8z"/>
	<path class="st7" d="M349.7,206.6c-1.5,1.7-5,5.8-8.7,9.4c0.7-5.9,2.9-11.2,5.7-14.6c0.3-0.3,0.6-0.6,0.9-0.9L349.7,206.6z"/>
	<path class="st6" d="M337.2,408.5l8.1-0.2c0.3,0,0.6,0.2,0.6,0.5l1.7,6.5c0.1,0.6-0.2,1.2-0.8,1.3c-0.1,0-0.2,0-0.2,0
		c-2.9,0-7.1,0-10.8,0.1c-4.3,0.1-7-0.1-12,0c-3,0.1-4-2.9-2.7-3.2c5.7-1.4,9.5-1.1,14.4-4.3C336,408.7,336.6,408.5,337.2,408.5z"/>
	<path class="st2" d="M336.5,409.5L336.5,409.5c-1.2,0.3-3.3,0.6-4.1-0.1c-0.2-0.2-0.4-0.5-0.4-0.8c0-0.2,0.1-0.4,0.3-0.5
		c0.9-0.5,3.9,0.9,4.2,1.1c0.1,0,0.1,0.1,0.1,0.2C336.7,409.5,336.6,409.5,336.5,409.5z M332.5,408.4L332.5,408.4
		c-0.1,0-0.2,0.1-0.2,0.2c0,0.2,0.1,0.4,0.2,0.5c0.5,0.4,1.7,0.4,3.3,0.1C334.7,408.8,333.1,408.2,332.5,408.4L332.5,408.4z"/>
	<path class="st2" d="M336.5,409.5h-0.1c-0.9-0.4-2.7-1.9-2.6-2.8c0-0.2,0.2-0.5,0.6-0.5c0.4,0,0.7,0.1,1,0.3c1,0.8,1.2,2.7,1.2,2.8
		C336.7,409.4,336.6,409.5,336.5,409.5L336.5,409.5z M334.3,406.7c-0.1,0-0.2,0.1-0.2,0.2c-0.1,0.5,1.2,1.7,2.1,2.2
		c-0.1-0.8-0.5-1.6-1.1-2.2c-0.2-0.2-0.5-0.2-0.7-0.2C334.4,406.6,334.3,406.7,334.3,406.7z"/>
	<path class="st6" d="M378.2,408.5l8.1-0.2c0.3,0,0.6,0.2,0.6,0.5l1.7,6.5c0.2,0.6-0.2,1.1-0.7,1.3c-0.1,0-0.2,0-0.3,0
		c-2.9,0-7.1,0-10.8,0.1c-4.3,0.1-7-0.1-12,0c-3,0.1-4-2.9-2.7-3.2c5.7-1.4,9.5-1.1,14.4-4.3C377,408.7,377.6,408.5,378.2,408.5z"/>
	<path class="st2" d="M377.5,409.5L377.5,409.5c-1.2,0.3-3.3,0.6-4.1-0.1c-0.2-0.2-0.4-0.5-0.4-0.8c0-0.2,0.1-0.4,0.3-0.5
		c0.9-0.5,3.9,0.9,4.2,1.1c0.1,0,0.1,0.1,0.1,0.2C377.7,409.5,377.6,409.5,377.5,409.5z M373.5,408.4L373.5,408.4
		c-0.1,0-0.2,0.1-0.2,0.2c0,0.2,0.1,0.4,0.2,0.5c0.5,0.4,1.7,0.4,3.3,0.1C375.7,408.8,374.1,408.2,373.5,408.4L373.5,408.4z"/>
	<path class="st2" d="M377.5,409.5h-0.1c-0.9-0.4-2.7-1.9-2.6-2.8c0-0.2,0.1-0.5,0.6-0.5c0.4,0,0.7,0,1,0.3c0.7,0.8,1.1,1.8,1.2,2.8
		C377.7,409.4,377.7,409.5,377.5,409.5L377.5,409.5z M375.3,406.7c-0.1,0-0.1,0.1-0.1,0.2c-0.1,0.5,1.2,1.7,2.1,2.2
		c-0.1-0.8-0.5-1.6-1.1-2.2c-0.2-0.2-0.5-0.2-0.7-0.2L375.3,406.7z"/>
	<path class="st6" d="M393,249.3c3.9,16.8-2.8,149.1-2.8,149.1h-12.9l-5.5-110.2l-20.2,110.2l-13.8-1c9-85.4,16.9-136.4,16.9-136.4
		v-6.4L393,249.3z"/>
	<path class="st13" d="M337.9,397.3l13.8,1l15.9-86.8l4.3-23.5l5.5,110.2h12.9c0,0,6.7-132.2,2.8-149.1l-38.2,5.3v6.4
		C354.8,261,346.9,311.9,337.9,397.3z"/>
	<path class="st6" d="M386.1,187c-0.4,8-0.2,16.1,0.6,24.1c0.5,5.6,1.3,10.9,2.1,15.7c1.9,11.2,4,19.6,4.2,22.5l-38.2,5.3
		c-13.9-39-8.7-61.7-8.7-61.7c2.9-1.2,5.8-2.2,8.8-3c0.6-0.2,1.3-0.3,1.9-0.5c5.4-1.1,10.8-1.8,16.2-2.2c1-0.1,2.1-0.2,3.1-0.2
		C381.4,186.7,386.1,187,386.1,187z"/>
	<path class="st12" d="M365.7,169.4c0.3,5.4,0.9,15.4,5.3,17.9c0,0-2.8,5.3-8.8,5.8c-4.5,0.4-4.2-4.1-4.2-4.1c2.6-1.9,2-5.3,0-9
		L365.7,169.4z"/>
	<path class="st7" d="M362.5,173.8l-4.5,6.3c0.5,0.9,0.9,1.8,1.2,2.7c2.1-0.8,4.5-4,4.2-6.3C363.3,175.6,363,174.7,362.5,173.8z"/>
	<path class="st6" d="M346.2,158.7c-0.9,2.8-0.4,8.5,3.5,6.6S347.7,153.9,346.2,158.7z"/>
	<path class="st12" d="M366.2,162.4c0.4,7.1,1,11.3-2.1,15.3c-4.7,6.1-13.9,3.8-16.5-3.1c-2.3-6.2-2.6-16.8,4-20.4
		c4.8-2.6,10.8-0.8,13.4,3.9C365.7,159.5,366.1,161,366.2,162.4z"/>
	<path class="st6" d="M361.2,158.6v-8c0,0,8.5-0.6,8.1,3.7c4.7,2.3,2.5,9.6-3.8,13.2c-3.5-2.8-3.1-9.4-3.1-9.4
		C362,158.2,361.6,158.4,361.2,158.6z"/>
	<path class="st12" d="M369.6,168c-0.3,1.8-1.4,3.3-2.9,4.3c-2,1.3-3.7-0.3-3.8-2.6c-0.1-2,0.9-5.2,3.2-5.6c1.7-0.3,3.3,0.9,3.5,2.6
		C369.7,167.2,369.7,167.6,369.6,168z"/>
	<path class="st6" d="M355.6,165.6c0.1,0.6-0.2,1.1-0.6,1.1s-0.7-0.4-0.8-1s0.2-1.1,0.5-1.1S355.6,165,355.6,165.6z"/>
	<path class="st6" d="M349.1,166.4c0.1,0.6-0.2,1.1-0.6,1.1s-0.7-0.4-0.8-1s0.2-1.1,0.6-1.1S349,165.8,349.1,166.4z"/>
	<path class="st14" d="M351.2,166.4c-0.5,1.8-1.3,3.5-2.2,5.1c0.9,0.4,1.9,0.5,2.8,0.1L351.2,166.4z"/>
	<path class="st6" d="M355.1,173.5c-0.2,0.1-0.5,0.1-0.8,0.1c-0.1,0-0.2-0.1-0.2-0.2c0-0.1,0.1-0.2,0.2-0.2c0,0,0,0,0,0
		c1.5-0.1,2.8-0.9,3.5-2.2c0-0.1,0.1-0.1,0.2-0.1c0,0,0,0,0,0c0.1,0,0.1,0.1,0.1,0.2c0,0,0,0,0,0
		C357.6,172.4,356.4,173.2,355.1,173.5z"/>
	<path class="st6" d="M357.4,163.3c-0.1,0-0.3,0-0.3-0.1c-0.6-0.6-1.4-1-2.3-0.9c-0.2,0-0.4-0.1-0.4-0.2c0,0,0,0,0,0
		c0-0.2,0.1-0.4,0.3-0.4c0,0,0,0,0,0c1.1-0.1,2.2,0.3,2.9,1.1c0.1,0.1,0.1,0.3,0,0.5c0,0,0,0,0,0
		C357.5,163.2,357.4,163.3,357.4,163.3z"/>
	<path class="st6" d="M346,164.4c-0.1,0-0.1,0-0.2,0c-0.2-0.1-0.3-0.3-0.2-0.4c0.3-1,1.2-1.9,2.2-2.2c0.2,0,0.4,0.1,0.4,0.2
		s-0.1,0.4-0.2,0.4c-0.8,0.3-1.5,0.9-1.7,1.7C346.2,164.3,346.1,164.4,346,164.4z"/>
	<path class="st6" d="M364.9,161.5c0,0-5-1.8-7.3-4.7c0,0-4.5,1.2-5.5,3c-0.9-0.8-1-2-0.4-3c0,0-3.4,0.7-4.1,3
		c-1.1-0.5-1.8-1.8-1.6-3c0,0-1.5,0.6-2,3c0,0-3.8-7.8,8.6-10.1c-0.9-0.3-1.9-0.5-2.9-0.5c0,0,8.6-3.5,15.5-0.3
		S371,158.3,364.9,161.5z"/>
	<path class="st2" d="M396,256l-12,1.6c0,0-5-34.6-7.1-45.8V188l6.3-1.6l4.9,1.6c1.3,4.8,2.4,9.7,3.1,14.6c0.6,3.7,1.1,7.7,1.6,11.8
		c0.6,5.5,1.2,11.1,1.6,16.4c0.7,8.5,1.2,16,1.5,20.6C395.9,254.3,396,256,396,256z"/>
	<path class="st2" d="M376.9,211.8c0,0,1-16.8,6.3-25.5c0,0-0.1-2.5-1.2-2.9s-5.1,2-5.1,2s-2.5-1.7-3.1-0.9S371.9,190.6,376.9,211.8
		z"/>
	<path class="st11" d="M376.9,211.8c0,0,1-16.8,6.3-25.5c0,0-0.1-2.5-1.2-2.9s-5.1,2-5.1,2s-2.5-1.7-3.1-0.9
		S371.9,190.6,376.9,211.8z"/>
	<path class="st2" d="M349.6,260.6l1.4,1c0,0-2-11.1-1.2-39.4c0-1.4,0.1-2.7,0.1-3.9c1-23.9,4.7-28.2,5-28.5l-3.5,1.2l-6.3,2.2
		C343.3,213.6,349.6,260.6,349.6,260.6z"/>
	<path class="st2" d="M350.1,214.2c0,0-3.5-16.4-2.4-22s4.7-3.1,4.7-3.1s3.4-2.7,4.4,0.3C356.8,189.4,352.2,192.7,350.1,214.2z"/>
	<path class="st11" d="M350.1,214.2c0,0-3.5-16.4-2.4-22s4.7-3.1,4.7-3.1s3.4-2.7,4.4,0.3C356.8,189.4,352.2,192.7,350.1,214.2z"/>
	<path class="st7" d="M392.6,214.4c-5.1-2.9-5.8-10.4-5.8-10.4c0.3-0.1,2.2-0.8,4.2-1.4C391.6,206.3,392.2,210.3,392.6,214.4z"/>
	<path class="st7" d="M367.6,311.6l4.3-23.5l-0.8-12.4C371.1,275.7,365.2,297.2,367.6,311.6z"/>
	<path class="st7" d="M395.8,251.3c-3.2-0.2-6-0.4-6-0.4l-0.6-13.1c1-0.6,2.2-0.8,3.4-0.6c0.8-2.1,1.4-4.3,1.8-6.4
		C395,239.2,395.5,246.8,395.8,251.3z"/>
	<polygon class="st12" points="396.9,230.7 390.6,240.8 395.5,243.7 401.4,234.6 	"/>
	<path class="st2" d="M387.7,187.8c4.2,0.5,22.2,25.1,23,32.5s-10.5,20.2-10.5,20.2l-7.6-4.4c0,0,7.7-11.8,8.1-15s-14-16.1-14-16.1
		c-1.1-3-1.7-6.1-1.8-9.3C384.6,190.4,387.7,187.8,387.7,187.8z"/>
	<path class="st2" d="M389.1,237.8c0,0,6.5,1.4,9,5.4c0,0-2.7,8.4-4.6,9.4s-6.7,0.9-6.7,0.9S386.5,244.2,389.1,237.8z"/>
</g>
</svg>
