<svg id="Layer_1" data-name="Layer 1" xmlns="http://www.w3.org/2000/svg" viewBox="0 0 300 300"><defs><style>.cls-1{fill:#d1fae5;}.cls-2{fill:#059669;}</style></defs><rect class="cls-1" width="300" height="300" rx="25"/><path class="cls-2" d="M167.63,228.49a26.72,26.72,0,0,0,0,4.65l7.18.93c10.42,2.11,18.34,9.69,22.3,19.49a12.38,12.38,0,0,0,.85,2.2l-96.19.18a17.58,17.58,0,0,0,1.13-3.06c4.1-10.46,13.33-17.44,24.42-19.3,1.64-.27,3.3-.33,4.95-.5a3.3,3.3,0,0,0,.08-1.26V215.89l-87.6.06c-2.86,0-5.68.2-8.45-.65-5.81-1.79-10.91-7.62-11.26-13.79-.1-1.71,0-3.47,0-5.18V61.76a17.53,17.53,0,0,1,.36-5.17C27.53,50.22,32.24,45,39.31,44.22A48.54,48.54,0,0,1,45,44.16c1.22-.09,2.53,0,3.76,0H248.36c4,0,8.12-.23,12.08.07,6.66.51,13.17,6.61,14.34,13a30.17,30.17,0,0,1,.2,5.38V199.58c-.16,9.69-7.42,16.27-16.71,16.31l-90.62,0ZM149.27,72.11,95.88,96.7a77.08,77.08,0,0,0-8.27,3.77c-3.88,2.24-5.6,8-1.92,10.47,1.8,1.19,2.21.18,2.21,2.55v4c0,2.88-.27,26.38.06,27.06A6.81,6.81,0,0,0,89.82,146l53.35,35.14c1.93,1.32,4.18,3.35,6.59,3.65a24.24,24.24,0,0,0,6-3.12L203,152.58c3.1-1.72,4.44-1.19,4.48-4.28l0-31.46a18.68,18.68,0,0,1,.16-3.74l.14,0c2.55-.51,5.39-1.66,6.83-3.93a5.89,5.89,0,0,0-2.24-8.42c-1.93-1.06-4.12-1.78-6.15-2.67L154.18,74c-1.21-.56-3.49-2.15-4.84-1.92Z"/><path class="cls-2" d="M150,126.06c-1.55.11-11.4-5.16-13.66-6.27l-26.47-13.11,40.29-18.27c2.91,1.17,5.74,2.64,8.58,4l22.71,10.39c2.82,1.19,6.11,2.21,8.59,4a54,54,0,0,1-8.41,4.37l-25.8,12.28A49.15,49.15,0,0,1,150,126.06Z"/><path class="cls-2" d="M188.66,143l-34.34,21.51c-6.25,4.26-4,3.75-9.84-.36l-37-24.53c-5.41-3.31-4.23-1.73-4.23-8.25V120.06L149,142.86l40.94-20a11.78,11.78,0,0,0,2.28-1l.15,19.05c-.25.36-.92.56-1.31.76Z"/></svg>